<svg xmlns="http://www.w3.org/2000/svg" width="17.025" height="17.025" viewBox="0 0 17.025 17.025"><path d="M612.041,1930.382l-6,6a.628.628,0,0,1-.888,0l-6.219-6.219a.629.629,0,0,0-.888,0l-.888.889a.628.628,0,0,0,0,.888l6.219,6.219a.628.628,0,0,1,0,.888l-6,6a.628.628,0,0,0,0,.888l.888.888a.628.628,0,0,0,.888,0l6-6a.628.628,0,0,1,.888,0l5.774,5.775a.628.628,0,0,0,.888,0l.888-.888a.628.628,0,0,0,0-.888l-5.775-5.774a.628.628,0,0,1,0-.888l6-6a.628.628,0,0,0,0-.888l-.889-.889a.628.628,0,0,0-.888,0" transform="translate(-596.977 -1929.977)" fill="#e00109"/></svg>