<svg id="icon-gold" xmlns="http://www.w3.org/2000/svg" width="26.302" height="26.411" viewBox="0 0 26.302 26.411">
  <circle id="Ellipse_83" data-name="Ellipse 83" cx="13.089" cy="13.089" r="13.089" transform="translate(0 0.232)" fill="#f4dd28"/>
  <path id="Path_678" data-name="Path 678" d="M216.79,91.113A13.094,13.094,0,0,0,203.7,103.852c1.448.858,3.724.171,5.213-.573a8.776,8.776,0,0,1,4.234-.3c3.446.3,6.793,1.772,10.239.886.689-.2,1.674-1.083,2.363-.492a3.852,3.852,0,0,0,4.13.484A13.094,13.094,0,0,0,216.79,91.113Z" transform="translate(-203.701 -90.881)" fill="#f8e823"/>
  <circle id="Ellipse_84" data-name="Ellipse 84" cx="10.184" cy="10.184" r="10.184" transform="translate(2.786 3.251)" fill="#edca26"/>
  <circle id="Ellipse_85" data-name="Ellipse 85" cx="9.69" cy="9.69" r="9.69" transform="translate(3.483 3.715)" fill="#e2a428"/>
  <circle id="Ellipse_86" data-name="Ellipse 86" cx="9.294" cy="9.294" r="9.294" transform="translate(3.715 4.179)" fill="#f4dd28"/>
  <path id="Path_679" data-name="Path 679" d="M216.4,199a13.15,13.15,0,0,1-13.148-12.953c0,.066,0,.132,0,.2a13.151,13.151,0,1,0,26.3,0c0-.066,0-.132,0-.2A13.15,13.15,0,0,1,216.4,199Z" transform="translate(-203.25 -173.092)" fill="#e2a428" opacity="0.3"/>
  <path id="Path_680" data-name="Path 680" d="M216.4,91.244a13.15,13.15,0,0,1,13.148,12.9c0-.082,0-.165,0-.247a13.151,13.151,0,1,0-26.3,0c0,.083,0,.165,0,.247A13.15,13.15,0,0,1,216.4,91.244Z" transform="translate(-203.25 -90.75)" fill="#f4dd28"/>
  <path id="Path_681" data-name="Path 681" d="M240.914,196.19c-5.051,0-9.16-4.549-9.291-10.509q0,.146,0,.294c0,6.1,4.161,11.038,9.294,11.038s9.294-4.942,9.294-11.038q0-.147,0-.294C250.075,191.641,245.965,196.19,240.914,196.19Z" transform="translate(-227.764 -174.567)" fill="#f9f121" opacity="0.25"/>
</svg>
