<svg id="icon-diamond-off" xmlns="http://www.w3.org/2000/svg" width="28.796" height="26.001" viewBox="0 0 28.796 26.001">
  <defs>
    <style>
      .cls-1 {
        fill: #bacddc;
      }
    </style>
  </defs>
  <g id="Group_22" data-name="Group 22" transform="translate(7.995 6.434)">
    <g id="Group_21" data-name="Group 21">
      <path id="Path_116" data-name="Path 116" class="cls-1" d="M430.361,139.822l-12.792-.026,6.4,19.563Z" transform="translate(-417.569 -139.796)"/>
    </g>
  </g>
  <g id="Group_24" data-name="Group 24" transform="translate(14.397 0)">
    <g id="Group_23" data-name="Group 23" transform="translate(0)">
      <path id="Path_117" data-name="Path 117" class="cls-1" d="M441.735,115.51h9.6l-3.234,6.538Z" transform="translate(-441.735 -115.509)"/>
    </g>
  </g>
  <g id="Group_26" data-name="Group 26" transform="translate(20.737 0.001)">
    <g id="Group_25" data-name="Group 25">
      <path id="Path_118" data-name="Path 118" class="cls-1" d="M468.923,115.513l4.8,6.5h-8.059Z" transform="translate(-465.663 -115.513)"/>
    </g>
  </g>
  <g id="Group_28" data-name="Group 28" transform="translate(4.799 0)">
    <g id="Group_27" data-name="Group 27" transform="translate(0)">
      <path id="Path_119" data-name="Path 119" class="cls-1" d="M415.105,115.51l-6.383,6.564-3.215-6.564h9.6Z" transform="translate(-405.507 -115.509)"/>
    </g>
  </g>
  <g id="Group_30" data-name="Group 30" transform="translate(0 0.001)">
    <g id="Group_29" data-name="Group 29">
      <path id="Path_120" data-name="Path 120" class="cls-1" d="M392.193,115.513l3.237,6.5h-8.036Z" transform="translate(-387.395 -115.513)"/>
    </g>
  </g>
  <g id="Group_31" data-name="Group 31" transform="translate(14.397 13.001)">
    <path id="Path_121" data-name="Path 121" class="cls-1" d="M441.733,164.581h0Z" transform="translate(-441.733 -164.581)"/>
    <path id="Path_122" data-name="Path 122" class="cls-1" d="M441.733,164.581h0" transform="translate(-441.733 -164.581)"/>
  </g>
  <g id="Group_32" data-name="Group 32" transform="translate(14.398 6.501)">
    <path id="Path_123" data-name="Path 123" class="cls-1" d="M448.09,140.047l-6.352,19.5v0l14.4-19.5Z" transform="translate(-441.738 -140.047)"/>
  </g>
  <g id="Group_33" data-name="Group 33" transform="translate(0 6.501)">
    <path id="Path_124" data-name="Path 124" class="cls-1" d="M395.43,140.047h-8.036l14.4,19.5v0Z" transform="translate(-387.395 -140.047)"/>
  </g>
  <g id="Group_35" data-name="Group 35" transform="translate(8.038 0)">
    <g id="Group_34" data-name="Group 34">
      <path id="Path_125" data-name="Path 125" class="cls-1" d="M417.733,122.011l6.359-6.5,6.36,6.5Z" transform="translate(-417.733 -115.51)"/>
    </g>
  </g>
</svg>
