<svg xmlns="http://www.w3.org/2000/svg" width="252.654" height="198.136" viewBox="0 0 252.654 198.136">
  <path id="icon-resgate" d="M420.666,320.457l74.719,37.359,38.94-19.486-74.751-37.359-38.907,19.486Zm116.5,106.787a10.647,10.647,0,0,1-1.838-.678l-72.848-36.424a9.476,9.476,0,0,1-3.774-3.419,9.354,9.354,0,0,1-1.356-4.936V343.944l37,18.518a2.223,2.223,0,0,0,2.065,0L537.163,342.1v85.14Zm4.646-85.14v85.14a10.736,10.736,0,0,0,1.839-.678L616.5,390.142a9.794,9.794,0,0,0,3.807-3.419,9.641,9.641,0,0,0,1.323-4.936V343.944l-37,18.518a2.224,2.224,0,0,1-2.065,0L541.81,342.1Zm84.462-.483v40.166a13.578,13.578,0,0,1-2.066,7.356,13.41,13.41,0,0,1-5.645,5.13L545.713,430.7a13.548,13.548,0,0,1-12.454,0l-72.847-36.424a13.822,13.822,0,0,1-7.71-12.485V341.621l-38.263-19.1a2.45,2.45,0,0,1-1.032-1.032,2.343,2.343,0,0,1,1.032-3.13l39.972-19.97-39.972-19.97a2.45,2.45,0,0,1-1.032-1.032,2.343,2.343,0,0,1,1.032-3.13l79.912-39.941a2.325,2.325,0,0,1,2.065,0l43.07,21.52,43.07-21.52a2.325,2.325,0,0,1,2.065,0l79.912,39.941a2.361,2.361,0,0,1,1.033,1.065,2.315,2.315,0,0,1-1.033,3.1l-39.972,19.97,39.972,19.97a2.454,2.454,0,0,1,1.033,1.032,2.344,2.344,0,0,1-1.033,3.13l-38.261,19.1ZM541.81,262.192v72.4l72.395-36.2-72.395-36.2Zm-4.646,72.4-72.4-36.2,72.4-36.2v72.4ZM619.4,295.809l38.907-19.454-74.719-37.392L544.68,258.45l74.72,37.359Zm-35.812,62.008L544.68,338.33l74.72-37.359,38.907,19.486-74.719,37.359ZM534.325,258.45l-38.94-19.486-74.719,37.392,38.907,19.454Z" transform="translate(-413.159 -234.075)" fill="#bacddc" fill-rule="evenodd"/>
</svg>
