<svg xmlns="http://www.w3.org/2000/svg" width="104.172" height="82.635" viewBox="0 0 104.172 82.635"><path d="M65.749,7.9V83.237a2.9,2.9,0,0,1-2.9,2.9H51.26a2.9,2.9,0,0,1-2.592-1.6L44.853,76.9A25.233,25.233,0,0,0,22.284,62.953h-2.9a17.386,17.386,0,1,1,0-34.772h2.9A25.233,25.233,0,0,0,44.853,14.233L48.668,6.6A2.9,2.9,0,0,1,51.26,5H62.851A2.9,2.9,0,0,1,65.749,7.9Zm-5.8,2.9h-6.9l-3.015,6.029A31.029,31.029,0,0,1,22.284,33.977h-2.9a11.591,11.591,0,1,0,0,23.181h2.9A31.029,31.029,0,0,1,50.037,74.31l3.015,6.029h6.9ZM76.5,33.108a2.9,2.9,0,1,1,4.138-4.057,23.592,23.592,0,0,1,0,33.034A2.9,2.9,0,1,1,76.5,58.027,17.8,17.8,0,0,0,76.5,33.108Zm11.72-11.467a2.9,2.9,0,1,1,3.88-4.3,38.006,38.006,0,0,1,0,56.463,2.9,2.9,0,1,1-3.88-4.3,32.211,32.211,0,0,0,0-47.853Z" transform="translate(-1.25 -4.25)" fill="#fff" stroke="#fff" stroke-width="1.5"/></svg>