<svg id="icon-silver" xmlns="http://www.w3.org/2000/svg" width="28.388" height="26.997" viewBox="0 0 28.388 26.997">
  <path id="Path_106" data-name="Path 106" d="M70.851,151.2l7.244,6.87,6.95-3.683Z" transform="translate(-70.851 -140.886)" fill="#a6abaf"/>
  <path id="Path_107" data-name="Path 107" d="M137.411,158.068l7.244-6.87-14.194,3.187Z" transform="translate(-116.267 -140.886)" fill="#a6abaf"/>
  <path id="Path_108" data-name="Path 108" d="M144.655,147.038l-9.9-1.3-4.3,4.487Z" transform="translate(-116.267 -136.726)" fill="#dcdedd"/>
  <path id="Path_109" data-name="Path 109" d="M80.749,145.738l-9.9,1.3,14.194,3.187Z" transform="translate(-70.851 -136.726)" fill="#c6c7c8"/>
  <path id="Path_110" data-name="Path 110" d="M130.461,107.889v13.5l4.3-4.487Z" transform="translate(-116.267 -107.889)" fill="#c6c7c8"/>
  <path id="Path_111" data-name="Path 111" d="M112.422,116.9l4.3,4.487v-13.5Z" transform="translate(-102.523 -107.889)" fill="#dcdedd"/>
  <path id="Path_112" data-name="Path 112" d="M95.442,168.265,93.62,178.08l4.917-7.567,3.855-5.932Z" transform="translate(-88.198 -151.083)" fill="#c6c7c8"/>
  <path id="Path_113" data-name="Path 113" d="M98.537,170.513,93.62,178.08l8.772-4.766v-8.732Z" transform="translate(-88.198 -151.083)" fill="#9298a1"/>
  <path id="Path_114" data-name="Path 114" d="M137.411,168.265l-6.95-3.683,3.855,5.932,4.917,7.567Z" transform="translate(-116.267 -151.083)" fill="#c6c7c8"/>
  <path id="Path_115" data-name="Path 115" d="M134.316,170.513l-3.855-5.932v8.732l8.772,4.766Z" transform="translate(-116.267 -151.083)" fill="#a6abaf"/>
</svg>
