<svg xmlns="http://www.w3.org/2000/svg" width="456.998" height="204.52" viewBox="0 0 456.998 204.52"><g transform="translate(-125.543 -318.947)"><g transform="translate(126.34 394.67)"><path d="M-18444.68-20852.818h-39.109v126.336h454v-126.932h-31.486" transform="translate(18484.492 20853.779)" fill="none" stroke="#fff" stroke-width="3"/></g><g transform="translate(154.357 415.696)"><path d="M145.68,396.689h6.588l11.079,32.741c1.7,4.991,4.192,13.075,4.192,13.075h.2s2.6-8.085,4.292-13.075l11.579-32.741H189.9L171.234,448.3h-7.287Z" transform="translate(-145.68 -380.818)" fill="#fff"/><path d="M175.517,435.459c0-12.277,9.583-14.772,21.262-16.17,10.181-1.2,13.875-1.8,13.875-6.987v-1c0-6.987-4.392-10.381-12.379-10.381-9.183,0-13.974,3.794-14.473,11.479h-6.089c.7-9.981,7.287-16.47,20.562-16.47,11.281,0,18.267,4.691,18.267,15.971v28.049c0,3.094,1.2,4.392,3.394,4.492a11.1,11.1,0,0,0,2.3-.4h.3v4.492a9.973,9.973,0,0,1-4.191.8c-4.494,0-7.288-2.3-7.587-7.287v-1.1h-.3c-2.9,4.092-8.185,8.885-18.067,8.885C182.805,449.834,175.517,445.041,175.517,435.459Zm35.237-5.489v-9.283c-3.294,1.8-8.385,2.694-13.377,3.393-8.683,1.2-15.372,2.5-15.372,11.379,0,7.188,5.39,9.384,11.479,9.384C204.764,444.843,210.754,437.057,210.754,429.97Z" transform="translate(-132.294 -381.158)" fill="#fff"/><path d="M210.522,397.029h6.189v7.885h.2a19.848,19.848,0,0,1,17.268-8.983c9.583,0,16.471,5.69,16.471,16.071v36.633h-6.19V412.6c0-7.786-4.491-11.379-11.777-11.379-8.785,0-15.971,6.189-15.971,14.673v32.741h-6.189Z" transform="translate(-116.589 -381.158)" fill="#fff"/><path d="M248.421,444.326V406.695h-7.786V401.6h7.786V385.733h6.189V401.6h9.583v5.091H254.61v36.633c0,3.694,1.7,4.892,4.991,4.892a11.9,11.9,0,0,0,4.092-.8h.3v5.29a16.583,16.583,0,0,1-5.69.9C252.414,453.611,248.421,450.915,248.421,444.326Z" transform="translate(-103.079 -385.733)" fill="#fff"/><path d="M258.758,435.459c0-12.277,9.583-14.772,21.262-16.17,10.183-1.2,13.875-1.8,13.875-6.987v-1c0-6.987-4.392-10.381-12.379-10.381-9.183,0-13.974,3.794-14.472,11.479h-6.09c.7-9.981,7.288-16.47,20.562-16.47,11.281,0,18.267,4.691,18.267,15.971v28.049c0,3.094,1.2,4.392,3.394,4.492a11.1,11.1,0,0,0,2.3-.4h.3v4.492a9.973,9.973,0,0,1-4.191.8c-4.492,0-7.288-2.3-7.587-7.287v-1.1h-.3c-2.894,4.092-8.185,8.885-18.067,8.885C266.045,449.834,258.758,445.041,258.758,435.459Zm35.237-5.489v-9.283c-3.294,1.8-8.385,2.694-13.375,3.393-8.685,1.2-15.373,2.5-15.373,11.379,0,7.188,5.39,9.384,11.48,9.384C288,444.843,293.995,437.057,293.995,429.97Z" transform="translate(-94.948 -381.158)" fill="#fff"/><path d="M293.755,453.226h5.989c1.1,5.99,6.988,8.385,14.473,8.385,10.981,0,16.171-5.689,16.171-14.773v-8.185h-.3c-3.793,5.79-8.583,8.984-16.37,8.984-13.575,0-22.16-10.581-22.16-25.754,0-16.768,10.181-25.952,22.16-25.952,7.985,0,12.976,3.494,16.37,9.084h.3v-7.986h6.089v49.61c0,5.789-1.7,10.481-4.791,13.875-3.893,4.092-9.583,6.187-17.269,6.187C301.74,466.7,294.653,460.913,293.755,453.226Zm37.033-31.443c0-12.177-5.39-20.662-16.671-20.662-10.181,0-16.17,8.285-16.17,20.862,0,11.779,5.19,20.464,16.071,20.464C325.5,442.447,330.788,434.162,330.788,421.784Z" transform="translate(-80.232 -381.158)" fill="#fff"/><path d="M326.5,422.914c0-15.473,9.283-27.052,23.556-27.052,16.57,0,22.26,13.675,22.16,28.149H332.884c.3,11.58,5.889,20.662,17.668,20.662,8.585,0,13.075-4.591,15.073-11.578h5.989c-2.2,10.181-9.483,16.869-21.062,16.869C335.08,449.964,326.5,438.385,326.5,422.914Zm39.228-3.794c-.3-10.181-5.091-18.167-15.671-18.167-10.481,0-15.971,7.886-17.068,18.167Z" transform="translate(-64.559 -381.189)" fill="#fff"/><path d="M361.981,397.029h6.19v7.885h.2a19.853,19.853,0,0,1,17.269-8.983c9.583,0,16.47,5.69,16.47,16.071v36.633H395.92V412.6c0-7.786-4.491-11.379-11.777-11.379-8.785,0-15.971,6.189-15.971,14.673v32.741h-6.19Z" transform="translate(-48.638 -381.158)" fill="#fff"/><path d="M392.922,432.564h6.289c.9,8.685,6.887,12.179,15.172,12.179,8.585,0,13.075-3.994,13.075-9.983,0-5.69-3.193-7.587-13.774-9.983-10.481-2.395-18.866-4.891-18.866-14.873,0-8.583,7.387-13.974,17.968-13.974,12.277,0,17.968,6.189,19.166,15.272h-6.19c-.7-6.687-5.29-10.181-12.976-10.181-7.986,0-11.779,3.793-11.779,8.585,0,5.889,4.891,7.287,14.773,9.583,10.381,2.2,17.868,4.791,17.868,15.472,0,9.183-7.387,15.372-19.366,15.372C400.507,450.032,393.52,442.545,392.922,432.564Z" transform="translate(-34.757 -381.158)" fill="#fff"/></g><g transform="translate(180.48 318.947)"><path d="M452.109,351.043a8.146,8.146,0,0,0,1.2-2.06c.171-.687,1.029-1.03,1.714-1.2a8.664,8.664,0,0,1,2.231-.345l14.411-3.1c1.544-.343,14.754-2.757,15.955-3.616.343-.172.687-.516.687-.687s0-.343-.345-.343c-.171-.171-1.029-.342-1.03-.858-17.5,1.215-24.363,3.452-27.452,3.8a14.907,14.907,0,0,1-2.573.174h-.516a.455.455,0,0,1-.514-.514v-.516a35.9,35.9,0,0,0,2.57-5.148l5.825-11.673a23.843,23.843,0,0,0,1.541-2.919.629.629,0,0,0,.172-.514c0-.172,0-.343-.516-.343-.343-.171-.343-.687-.516-.858.172-.343,0-.514-.172-.514a1.3,1.3,0,0,0-.685.343,3.6,3.6,0,0,1-1.2.859,2.285,2.285,0,0,1-.858.516,5.414,5.414,0,0,1,1.715-1.718.6.6,0,0,1,.171-.343l-.171-.171c-.172,0-.172.172-.343.172h-.516v.171c-.171,0-.342.172-.514.345.172-.172.172-.343.514-.516a1.947,1.947,0,0,0-1.373-.514h-.342c-.859,0-1.2.516-1.715,1.03a12.208,12.208,0,0,0-2.573,2.576,39.234,39.234,0,0,0-4.627,6.7c-3.086,4.807-4.455,8.926-7.2,13.561-1.543,3.09-10.808,3.956-14.411,4.817a30.627,30.627,0,0,0-5.489,1.549c-.343.172-.858.516-.858.687a.89.89,0,0,0-.342.687v.343a2.45,2.45,0,0,1,.343,1.03,2.709,2.709,0,0,0,2.576,1.2h.858l12.7-1.9h.172c.514,0,.514.171.514.685v.343c-.514,1.03-2.4,7.208-2.912,8.238a14.885,14.885,0,0,0-1.2,3.606c-.514.687-.513,1.2-1.027,1.888a10.522,10.522,0,0,1-1.2,2.4v.514c-.169,1.717-1.369,3.777-2.4,5.493v.172a.6.6,0,0,1-.171.343s.343.171.343.342l-.762,2.868a.322.322,0,0,0-.264-.122,1.5,1.5,0,0,0-1.03.687l-7.372,7.214a175.733,175.733,0,0,1-14.232,13.567l-7.545,6.183a50.624,50.624,0,0,1-16.809,8.766l-1.544.516h-.687c-.514,0-.687-.172-1.03-.687V413.9a9.786,9.786,0,0,1,0-4.46,30.455,30.455,0,0,1,.684-3.433c0-.514.685-1.03.685-1.544.513-2.4,1.883-4.634,2.912-6.867,1.714-2.919,3.255-5.837,5.141-8.583,2.913-4.121,5.826-8.241,10.285-11.505a17.053,17.053,0,0,1,4.117-2.406c.343-.171.514-.343.858-.343a2.113,2.113,0,0,1,1.373.685c.343.171.343.343,0,.514a20.861,20.861,0,0,0,2.919,2.571,2.746,2.746,0,0,0,1.717.858c.343,0,1.373-.345,1.372-.688l.171-1.544-.688-2.231A8.748,8.748,0,0,0,408.2,370.3a15.089,15.089,0,0,0-4.976-.853,13.805,13.805,0,0,0-2.574.172,3.463,3.463,0,0,0-2.231.688,18.967,18.967,0,0,0-5.317,3.436,58.981,58.981,0,0,0-9.086,9.445l-3.771,4.979q-1.53,2.3-2.8,4.6c-1.611,1.6-3.27,3.149-5.08,4.849-2.057,1.718-5.831,3.952-7.546,5.327a67.829,67.829,0,0,1-9.6,6.528,38.186,38.186,0,0,1-10.808,3.613h-1.715q-2.06,0-2.06-1.543a6.636,6.636,0,0,1-.519-3.6v-.687l3.593-13.216a3.365,3.365,0,0,1,2.229-1.546l2.4-.517a41.327,41.327,0,0,0,11.149-4.814,23.4,23.4,0,0,0,7.03-7.213,12.783,12.783,0,0,0,2.4-5.15v-.514c.513-2.4-.69-4.117-2.922-5.317a14.146,14.146,0,0,0-6.349-1.368,19.792,19.792,0,0,0-2.918.174,8.323,8.323,0,0,0-3.6,1.375,22.377,22.377,0,0,0-6,4.3,55.722,55.722,0,0,0-7.029,7.213c-.154.184-.3.371-.443.558a12.5,12.5,0,0,1-3.158,2.534c-1.886,1.718-3.427,3.949-5.657,5.5A193.129,193.129,0,0,1,316.94,404.86a33.3,33.3,0,0,1-3.219,3.845l-1.712,1.733-4.511,4.343c-.95.717-1.795,1.93-3.246,1.931a4.783,4.783,0,0,0-1.888.345.6.6,0,0,0-.342.171.168.168,0,0,1-.172-.171l.171-.687a27.364,27.364,0,0,1,1.369-5.664c1.027-2.918,2.054-5.492,2.91-8.068.684-2.059,2.056-4.634,2.739-6.694,1.027-2.4,2.056-4.462,3.255-7.038a66.806,66.806,0,0,0,3.767-10.3,24.515,24.515,0,0,1,.684-3.775,3.553,3.553,0,0,0-.861-3.088,5.162,5.162,0,0,0-3.777-1.369h-.858c-.172-.171-.516-.171-1.03-.171a3.3,3.3,0,0,0-1.715.517,9.2,9.2,0,0,0-2.229,1.2l-5.831,4.466a94.605,94.605,0,0,0-15.945,15.8c-2.229,2.232-4.114,4.808-6.344,6.869-.171.343-.687.516-.858,1.03a2.468,2.468,0,0,1-1.2.343v-.858a7.7,7.7,0,0,1,.513-1.888,37.01,37.01,0,0,1,1.712-4.634,26.022,26.022,0,0,1,1.711-5.835A55.213,55.213,0,0,1,285,377.088a2.758,2.758,0,0,1,.685-1.2l.169-1.717c0-.343,0-.514-.687-.514a.842.842,0,0,0-.514.172c-.343.343-1.029.859-1.2,1.373h-.171c-.172-.171-.172-.171-.172-.342a6.99,6.99,0,0,1,.858-1.546c0-.171.343-.516.514-.687,0-.172-.172-.343-.516-.343h-.343V371.6l-.172-.172-.342.343c-.172,0-.172.172-.514.516l-1.2.516c0-.171-.172-.171-.172-.343,0-.343.514-.858.685-1.03v-.171h-.514a5.627,5.627,0,0,1-1.029.516c-.343.172-.343.172-.343.343v-.343a.168.168,0,0,1-.172-.171.634.634,0,0,0,.171-.516c.343-.171,0-.342-.343-.342a1.839,1.839,0,0,0-1.03-.171,2.853,2.853,0,0,0-2.057,1.031l-1.03,1.2a9.751,9.751,0,0,0-.856,1.373,35.91,35.91,0,0,0-2.913,4.808c-.507,1.017-1.065,2.122-1.618,3.261h-.265a2.29,2.29,0,0,0-1.373.516l-1.543,1.031c-1.373.516-2.4,1.031-3.946,1.547a21.087,21.087,0,0,1-4.975,1.549c-2.231.345-4.633.69-7.035,1.207-.514,0-.858,0-.858-.514,0-.171,0-.171.342-.343a1.031,1.031,0,0,1,.172-.687A4.2,4.2,0,0,1,250,384.5c0-.858-.345-1.544-1.547-2.229a5.092,5.092,0,0,0-1.715-.342,6.063,6.063,0,0,0-1.2-.169,6.688,6.688,0,0,0-2.745.345c-2.744.861-4.975,2.063-5.487,3.951v.516a.685.685,0,0,0-.342.687,1.285,1.285,0,0,0,.859,1.372l.859.685a16,16,0,0,0,3.432,1.714c.859.171,1.03.342,1.031.685l-.171.858c-.171,1.03-.858,1.717-1.029,2.576a13.618,13.618,0,0,1-2.227,4.463l-2.742,4.12a26.23,26.23,0,0,1-5.657,6.868,11.485,11.485,0,0,1-1.886,1.2,2.691,2.691,0,0,1-1.715.517,3.389,3.389,0,0,1-1.373-.685l-.688-.514a6.171,6.171,0,0,1-.687-1.888,4.407,4.407,0,0,1-.174-2.574v-2.059a1.526,1.526,0,0,1,.171-.858l1.368-5.835c.856-1.717,1.027-3.261,1.883-4.807.171-1.2.342-2.06.513-2.918a41.529,41.529,0,0,0,3.084-6.18c.685-1.03,1.027-2.574,1.885-3.606,1.2-1.888,2.913-4.12,4.284-6.352.858-.858,1.372-2.06,2.571-2.919l.172-.343a1.3,1.3,0,0,0-.172-.858,2.14,2.14,0,0,1-.516-.342,3.311,3.311,0,0,0-1.717-.514h-.858a5.094,5.094,0,0,0-1.717-.342,3.157,3.157,0,0,0-2.229.688l-1.886,1.031c-1.2,1.2-2.573,2.747-3.945,3.949-1.091,1.366-2.183,2.948-3.359,4.489a1.311,1.311,0,0,0-.239-.025,1.29,1.29,0,0,0-.685.172c-.343-.516-.345-.858-.688-.858a1.5,1.5,0,0,0-1.029.687l-7.372,7.213a175.986,175.986,0,0,1-14.231,13.568l-7.545,6.183a50.619,50.619,0,0,1-16.81,8.766l-1.543.516H173.5c-.516,0-.687-.171-1.03-.685v-.343a9.792,9.792,0,0,1,0-4.462,30.433,30.433,0,0,1,.684-3.432c0-.514.685-1.03.685-1.546.513-2.4,1.883-4.634,2.912-6.865,1.714-2.919,3.255-5.837,5.141-8.583,2.913-4.121,5.826-8.241,10.285-11.507a17.092,17.092,0,0,1,4.117-2.4c.342-.172.514-.343.858-.343a2.109,2.109,0,0,1,1.372.685q.517.256,0,.514a20.859,20.859,0,0,0,2.919,2.571,2.745,2.745,0,0,0,1.717.856c.343,0,1.372-.343,1.372-.687l.171-1.544-.688-2.231a8.743,8.743,0,0,0-4.637-4.628,15.1,15.1,0,0,0-4.978-.855,13.93,13.93,0,0,0-2.573.174,3.444,3.444,0,0,0-2.231.688,18.893,18.893,0,0,0-5.316,3.436,58.919,58.919,0,0,0-9.086,9.445l-3.771,4.979a62.452,62.452,0,0,0-5.141,9.27,18.751,18.751,0,0,0-1.2,4.12l-.856,2.4a9.713,9.713,0,0,1-.511,3.089,27.112,27.112,0,0,0,.52,6.52c1.2,2.916,3.607,4.973,6.7,6.515a9.756,9.756,0,0,0,3.089.513,18.838,18.838,0,0,0,4.118-.69c4.975-1.549,9.09-4.126,13.378-7.219a72.146,72.146,0,0,0,8.573-7.042c6.529-5.8,13.313-11.85,19.354-18.382-.6,1.11-1.178,2.3-1.692,3.439a5.938,5.938,0,0,1-.514,2.06,7.74,7.74,0,0,0-.513,1.888l-1.027,3.6c0,.171,0,.343-.514.514a2.4,2.4,0,0,1-.513,1.546c0,.171-.172.343-.171.514a1.558,1.558,0,0,0,.514.858,2.458,2.458,0,0,0-.513,1.717,5.863,5.863,0,0,0-.171,1.717c-.171.171-.171.171,0,.343,0,.685.172,1.372.174,2.573,0,1.544,1.031,2.916,2.577,4.117a12.706,12.706,0,0,0,4.634,2.054l2.06.514a20.275,20.275,0,0,0,5.148,1.2h.687a13.267,13.267,0,0,0,7.891-2.751c.514-1.03,1.714-1.889,2.228-2.748a36.326,36.326,0,0,0,4.457-6.009c1.2-2.06,1.883-4.12,2.912-6.351,1.37-2.06,1.541-3.948,2.568-6.008,0-.859.171-.859,1.2-1.031a15.65,15.65,0,0,0,2.745-.174,39.887,39.887,0,0,0,7.549-1.034,25.315,25.315,0,0,0,6-2.237c.245-.094.479-.188.708-.282a18.91,18.91,0,0,0-1.049,3.714c0,.516.343.859,0,1.2,0,.343.345.858.345,1.372a14.374,14.374,0,0,0-.684,2.574,11.622,11.622,0,0,0-.342,2.4,14.038,14.038,0,0,0,.175,4.633,10.024,10.024,0,0,0,1.375,3.087c.174.687.859.858,1.375,1.372a5.145,5.145,0,0,0,2.576,2.057,2.315,2.315,0,0,0,1.544.342,4.216,4.216,0,0,0,2.745-1.031,7,7,0,0,0,2.4-2.061c5.143-5.324,9.6-11.505,14.056-16.827a69.063,69.063,0,0,1,5.829-6.526c2.057-2.06,3.943-3.606,5.829-5.324,1.372-.859,2.573-1.718,3.945-2.577.172,0,.343,0,.514-.343h.343l-.171.514-3.083,6.18a81.653,81.653,0,0,0-3.94,7.726L300.629,392c-.343,1.03-1.372,1.889-1.37,3.09l-3.081,8.238a76.215,76.215,0,0,0-2.225,7.724,29.454,29.454,0,0,0,0,5.49,11.46,11.46,0,0,0,1.72,3.6c.687.514,1.373,1.029,1.373,1.544,1.03.685.687.342,2.231.684a3.322,3.322,0,0,0,2.232,1.029,4.9,4.9,0,0,0,2.058-.688,17.031,17.031,0,0,1,3.945-1.892c1.543-1.888,3.772-4.12,5.487-4.121,3.6-4.808,8.4-9.445,12.515-14.6a104.6,104.6,0,0,0,7.171-8.64c-.527,1.292-1.1,2.608-1.683,4l-.34,4.118a17.4,17.4,0,0,0-.513,2.918,17.714,17.714,0,0,0-.169,2.918,9.358,9.358,0,0,0,.862,3.774c1.2,2.573,3.778,4.287,6.354,6a11.837,11.837,0,0,0,6.865,1.883,24.809,24.809,0,0,0,5.147-.691,36.413,36.413,0,0,0,13.894-6.875c2.915-2.576,7.372-6.355,10.63-9.617h-.283l.452-.342-.855,2.4a9.757,9.757,0,0,1-.513,3.089,27.188,27.188,0,0,0,.52,6.52c1.2,2.916,3.607,4.973,6.7,6.515a9.718,9.718,0,0,0,3.09.513,18.757,18.757,0,0,0,4.117-.69c4.975-1.549,9.09-4.126,13.378-7.217a72.319,72.319,0,0,0,8.575-7.043A257.258,257.258,0,0,0,429.422,386l-.62,1.615a110.669,110.669,0,0,1-5.306,16.134,8.891,8.891,0,0,1-.342,1.888l-2.4,8.411a7.58,7.58,0,0,0-.342,1.715c0,.687-.169,1.373-.169,2.06a23,23,0,0,0-1.2,4.634v.343c0,1.715-1.367,7.379-1.706,10.982-.343,1.546-.513,2.747,0,2.918a3.37,3.37,0,0,1,1.373.685,2.423,2.423,0,0,1,.343.514,6.126,6.126,0,0,1,1.889.685c.343.514,3.765-10.814,4.281-11.157a3.454,3.454,0,0,0,.685-1.373v-.343c.171-1.888,1.541-3.775,2.227-5.664a30.17,30.17,0,0,0,1.54-5.492v-.343a1.241,1.241,0,0,1,.685-1.03,10.164,10.164,0,0,0,.342-2.4c0-.516.513-1.031.513-1.546,1.369-4.462,4.965-14.074,6.163-18.366,1.027-2.574,1.541-4.976,2.739-7.552,1.37-3.09,2.225-6.178,3.6-9.268a2.9,2.9,0,0,1,.169-1.2l3.254-8.411C448.342,362.028,451.08,353.446,452.109,351.043Zm-103.1,34.573a.631.631,0,0,1,.171-.514,69.631,69.631,0,0,1,7.2-8.757c1.372-.859,2.229-1.89,3.945-2.577l.687-.516h.514c.343,0,.687.171.687.514v.171a11.61,11.61,0,0,1-2.056,3.777c-1.885,2.919-4.8,5.151-7.888,7.213a25.285,25.285,0,0,1-2.915,1.2c-.343,0-.516-.171-.516-.343Zm-17.456,7.856a.448.448,0,0,1-.212.052Zm-.526.648.19-.361a1.542,1.542,0,0,1,.468-.064A1.675,1.675,0,0,1,331.03,394.12Zm188.5-3.9c-.514-.171-.859-.858-1.373-.858a.636.636,0,0,0-.514.172c-.343-.171.171-.343-.343-.514a.858.858,0,0,0-1.03,0l-1.715,1.03a8.352,8.352,0,0,1-1.885,3.09c-3.258,3.607-6.173,7.04-9.429,10.475-3.6,4.292-2.876,2.464-6.819,5.9-1.372,1.373-3.259,2.232-4.63,3.435a11.936,11.936,0,0,1-2.06.517h-.685a2.784,2.784,0,0,1-2.4-1.2,6.56,6.56,0,0,1-.517-3.259c.171-1.373.171-2.574.34-3.946.169-1.888.684-3.6,1.026-5.492a62.692,62.692,0,0,1,2.738-8.582c2.568-6.352,5.482-12.7,8.393-18.883l2.912-5.837a2.448,2.448,0,0,0,.342-1.03,2.7,2.7,0,0,0-1.2-2.229,11.1,11.1,0,0,0-2.4-1.027,7.72,7.72,0,0,0-1.373-.342c-.343,0-.514.343-1.2,1.03l-4.287,4.637c-3.258,3.433-7.2,7.213-9.943,10.646-4.458,5.324-9.257,10.475-13.887,15.626a68.533,68.533,0,0,1-10.287,9.788,1.859,1.859,0,0,1-.858.172h-.172c0-.171-.172-.514-.172-.685a7.333,7.333,0,0,1,.342-1.889,25.5,25.5,0,0,1,2.4-5.492,95.474,95.474,0,0,1,8.225-13.906c1.886-1.889,3.429-3.778,5.315-5.5l2.573-1.889a2.282,2.282,0,0,1,.858-.172c.171,0,.343,0,.514.342l3.091,2.057a2.927,2.927,0,0,0,.858.343.9.9,0,0,0,.687-.345c.342-.343.858-.687.856-1.2,0-.343-.343-.687-.343-.858a4,4,0,0,0-1.2-2.573,13.092,13.092,0,0,0-8.754-3.426c-.685,0-1.2.174-1.544.174a3.313,3.313,0,0,0-1.715.516,17.773,17.773,0,0,0-4.8,3.436c-.685.172-.856.687-1.2,1.2a55.584,55.584,0,0,0-7.886,9.1c-1.37,2.574-3.255,5.322-4.455,8.069a29.106,29.106,0,0,0-3.081,9.439,9.648,9.648,0,0,1,0,2.231v.858a3.944,3.944,0,0,0,1.376,3.774c1.717,1.543,3.091,3.258,5.322,3.943a11.719,11.719,0,0,0,2.231.34,3.333,3.333,0,0,0,1.2-.172,11.915,11.915,0,0,0,4.288-2.406c1.886-1.717,3.945-3.262,5.488-4.98a110.463,110.463,0,0,0,8.056-9.787l8.914-11.5c.514-1.03.513-2.06,2.057-2.4v.343a13.433,13.433,0,0,1-1.883,3.433,102.925,102.925,0,0,0-5.477,16.991v1.373c0,.858,0,1.888,0,2.745a8.93,8.93,0,0,0,1.205,5.49,14.023,14.023,0,0,0,6.868,5.657,9.135,9.135,0,0,0,4.12,1.026,14,14,0,0,0,6.347-1.892l6-4.124c1.885-2.4,4.457-4.636,6.171-6.7,4.972-5.322,4.246-5.211,9.045-10.876.514-.859,1.029-1.889,1.543-2.919C519.707,390.566,519.705,390.223,519.534,390.223Z" transform="translate(-163.713 -318.947)" fill="#fb5b76"/></g></g></svg>