<svg id="logo-conecta-mobile-white" xmlns="http://www.w3.org/2000/svg" width="674.849" height="424.615" viewBox="0 0 674.849 424.615">
  <g id="Group_758" data-name="Group 758" transform="translate(0 136.914)">
    <path id="Path_611" data-name="Path 611" d="M697.853,435.138H140.5v-287.7h57.729V149.5H142.568V433.072H695.787V234.4H562.467v-2.066H697.853Z" transform="translate(-140.504 -147.435)" fill="#fff"/>
  </g>
  <g id="Group_759" data-name="Group 759" transform="translate(50.795 157.387)">
    <path id="Path_612" data-name="Path 612" d="M162.025,167.048h10.716l18.025,53.259c2.759,8.119,6.819,21.273,6.819,21.273h.326s4.222-13.154,6.982-21.273l18.837-53.259h10.229L203.594,251H191.741Z" transform="translate(-162.025 -141.229)" fill="#fff"/>
    <path id="Path_613" data-name="Path 613" d="M191.815,230.594c0-19.973,15.589-24.032,34.587-26.305,16.564-1.949,22.574-2.924,22.574-11.367V191.3c0-11.367-7.145-16.888-20.138-16.888-14.938,0-22.732,6.17-23.544,18.674h-9.906c1.135-16.239,11.856-26.794,33.45-26.794,18.349,0,29.716,7.631,29.716,25.979V237.9c0,5.034,1.95,7.145,5.523,7.307a18.161,18.161,0,0,0,3.734-.649h.486v7.307a16.2,16.2,0,0,1-6.819,1.3c-7.307,0-11.856-3.734-12.342-11.853v-1.787h-.489c-4.709,6.658-13.314,14.452-29.39,14.452C203.671,253.977,191.815,246.184,191.815,230.594Zm57.321-8.931v-15.1c-5.358,2.922-13.64,4.383-21.759,5.521-14.126,1.95-25.007,4.06-25.007,18.512,0,11.693,8.768,15.264,18.674,15.264C239.393,245.858,249.136,233.193,249.136,221.663Z" transform="translate(-121.503 -142.259)" fill="#fff"/>
    <path id="Path_614" data-name="Path 614" d="M226.766,168.078h10.067V180.9h.326c5.683-8.443,14.775-14.612,28.092-14.612,15.587,0,26.794,9.257,26.794,26.142v59.594H281.975V193.408c0-12.665-7.307-18.512-19.161-18.512-14.289,0-25.982,10.069-25.982,23.872v53.259H226.766Z" transform="translate(-73.96 -142.259)" fill="#fff"/>
    <path id="Path_615" data-name="Path 615" d="M269.5,251.426V190.208H256.832v-8.28H269.5V156.109h10.067v25.819h15.59v8.28h-15.59V249.8c0,6.009,2.761,7.959,8.12,7.959a19.4,19.4,0,0,0,6.658-1.3h.486v8.605a26.987,26.987,0,0,1-9.255,1.463C275.995,266.529,269.5,262.144,269.5,251.426Z" transform="translate(-33.062 -156.109)" fill="#fff"/>
    <path id="Path_616" data-name="Path 616" d="M274.927,230.594c0-19.973,15.59-24.032,34.588-26.305,16.564-1.949,22.573-2.924,22.573-11.367V191.3c0-11.367-7.144-16.888-20.138-16.888-14.938,0-22.732,6.17-23.544,18.674H278.5c1.138-16.239,11.855-26.794,33.45-26.794,18.351,0,29.718,7.631,29.718,25.979V237.9c0,5.034,1.947,7.145,5.521,7.307a18.163,18.163,0,0,0,3.734-.649h.486v7.307a16.206,16.206,0,0,1-6.819,1.3c-7.307,0-11.855-3.734-12.342-11.853v-1.787h-.486c-4.709,6.658-13.314,14.452-29.392,14.452C286.783,253.977,274.927,246.184,274.927,230.594Zm57.321-8.931v-15.1c-5.358,2.922-13.64,4.383-21.759,5.521-14.126,1.95-25.007,4.06-25.007,18.512,0,11.693,8.771,15.264,18.677,15.264C322.505,245.858,332.248,233.193,332.248,221.663Z" transform="translate(-8.448 -142.259)" fill="#fff"/>
  </g>
  <g id="Group_760" data-name="Group 760" transform="translate(195.357 278.016)">
    <path id="Path_617" data-name="Path 617" d="M226.846,300.492h9.741c1.787,9.743,11.367,13.64,23.546,13.64,17.863,0,26.305-9.255,26.305-24.032V276.786h-.486C279.78,286.2,271.989,291.4,259.321,291.4c-22.083,0-36.048-17.213-36.048-41.9,0-27.278,16.562-42.218,36.048-42.218,12.991,0,21.11,5.684,26.631,14.778h.486V209.072h9.906v80.7c0,9.42-2.761,17.051-7.793,22.574-6.333,6.656-15.59,10.066-28.092,10.066C239.835,322.414,228.307,312.994,226.846,300.492Zm60.243-51.149c0-19.81-8.771-33.613-27.119-33.613-16.562,0-26.305,13.477-26.305,33.936,0,19.163,8.445,33.289,26.142,33.289C278.482,282.955,287.09,269.478,287.09,249.343Z" transform="translate(-223.273 -207.124)" fill="#fff"/>
    <path id="Path_618" data-name="Path 618" d="M258.155,251.222c0-25.17,15.1-44,38.321-44,26.954,0,36.211,22.245,36.048,45.789H268.547c.486,18.837,9.58,33.613,28.741,33.613,13.966,0,21.271-7.468,24.521-18.835h9.741c-3.571,16.562-15.424,27.443-34.262,27.443C272.118,295.227,258.155,276.392,258.155,251.222Zm63.814-6.172c-.486-16.562-8.28-29.553-25.493-29.553-17.051,0-25.982,12.828-27.766,29.553Z" transform="translate(-175.824 -207.217)" fill="#fff"/>
    <path id="Path_619" data-name="Path 619" d="M293.587,209.072h10.067V221.9h.326c5.683-8.445,14.777-14.615,28.092-14.615,15.59,0,26.794,9.257,26.794,26.142v59.6H348.8V234.4c0-12.665-7.308-18.512-19.161-18.512-14.289,0-25.982,10.069-25.982,23.872v53.262H293.587Z" transform="translate(-127.627 -207.124)" fill="#fff"/>
    <path id="Path_620" data-name="Path 620" d="M324.479,266.879h10.229c1.461,14.129,11.2,19.812,24.681,19.812,13.966,0,21.271-6.5,21.271-16.241,0-9.255-5.2-12.34-22.408-16.236-17.048-3.9-30.691-7.959-30.691-24.2,0-13.966,12.019-22.734,29.23-22.734,19.973,0,29.23,10.067,31.179,24.844H377.9c-1.138-10.879-8.608-16.562-21.11-16.562-12.991,0-19.161,6.17-19.161,13.966,0,9.578,7.956,11.853,24.032,15.587,16.888,3.573,29.067,7.794,29.067,25.17,0,14.938-12.016,25.007-31.5,25.007C336.818,295.3,325.454,283.118,324.479,266.879Z" transform="translate(-85.606 -207.124)" fill="#fff"/>
  </g>
  <g id="Group_761" data-name="Group 761" transform="translate(95.73 0)">
    <path id="Path_621" data-name="Path 621" d="M650.216,141.638a13.238,13.238,0,0,0,1.952-3.352c.278-1.116,1.673-1.676,2.79-1.957a14.157,14.157,0,0,1,3.628-.562l23.445-5.042c2.511-.562,24-4.487,25.956-5.884.557-.281,1.114-.838,1.114-1.116s0-.559-.557-.559c-.281-.278-1.676-.557-1.678-1.395-28.47,1.978-39.631,5.615-44.656,6.177a23.988,23.988,0,0,1-4.187.283l-.838,0a.741.741,0,0,1-.838-.838v-.838c2.23-3.352,2.509-5.027,4.18-8.377L670,99.191a38.756,38.756,0,0,0,2.509-4.746,1.02,1.02,0,0,0,.278-.838c0-.278,0-.557-.838-.557-.557-.279-.559-1.116-.838-1.395.278-.559,0-.838-.281-.838a2.116,2.116,0,0,0-1.114.559,5.885,5.885,0,0,1-1.955,1.4,3.676,3.676,0,0,1-1.395.838c.557-1.116,1.395-1.676,2.79-2.792a.973.973,0,0,1,.278-.559l-.278-.278c-.281,0-.281.278-.559.278l-.838,0v.279c-.279,0-.557.279-.836.559.279-.281.279-.559.836-.838a3.15,3.15,0,0,0-2.233-.836h-.559c-1.395,0-1.952.838-2.79,1.676a19.822,19.822,0,0,0-4.182,4.192,63.723,63.723,0,0,0-7.529,10.893c-5.018,7.82-7.246,14.52-11.7,22.061-2.509,5.027-17.582,6.434-23.442,7.834-3.349.84-6.7,1.4-8.931,2.521-.557.279-1.395.838-1.395,1.116a1.456,1.456,0,0,0-.557,1.119v.557a3.95,3.95,0,0,1,.559,1.676c.84,1.395,2.235,1.952,4.19,1.95h1.4l20.652-3.087.278,0c.838,0,.838.279.838,1.116l0,.559c-.836,1.676-3.9,11.726-4.735,13.4-.557,1.4-1.949,4.468-1.949,5.863-.836,1.119-.836,1.954-1.673,3.073-.276,1.395-1.393,2.792-1.95,3.909v.838c-.276,2.792-2.228,6.144-3.9,8.936v.279a.973.973,0,0,1-.279.559s.557.278.557.557l-1.239,4.666a.521.521,0,0,0-.43-.2,2.441,2.441,0,0,0-1.673,1.119L603.09,198.341c-6.972,7.822-15.62,15.365-23.152,22.071l-12.273,10.059a82.388,82.388,0,0,1-27.346,14.258l-2.511.84h-1.117c-.838,0-1.116-.279-1.676-1.116V243.9a15.936,15.936,0,0,1,0-7.258,48.837,48.837,0,0,1,1.112-5.584c0-.838,1.114-1.676,1.114-2.514.833-3.909,3.064-7.539,4.737-11.169,2.787-4.747,5.294-9.5,8.362-13.963,4.74-6.7,9.479-13.406,16.734-18.717a27.843,27.843,0,0,1,6.7-3.913c.557-.279.836-.559,1.395-.559a3.447,3.447,0,0,1,2.233,1.116q.839.418,0,.836a34.054,34.054,0,0,0,4.749,4.185,4.476,4.476,0,0,0,2.795,1.392c.557,0,2.233-.559,2.23-1.119l.279-2.511-1.121-3.628c-1.676-3.349-3.914-6.139-7.544-7.532a24.569,24.569,0,0,0-8.1-1.388,22.644,22.644,0,0,0-4.187.281,5.628,5.628,0,0,0-3.628,1.121c-3.347,1.676-6.137,3.075-8.648,5.589a95.716,95.716,0,0,0-14.782,15.365l-6.134,8.1q-2.485,3.739-4.562,7.475c-2.62,2.6-5.318,5.124-8.263,7.888-3.347,2.795-9.486,6.429-12.276,8.665a109.973,109.973,0,0,1-15.623,10.619c-5.58,3.075-12,4.756-17.582,5.877l-2.79,0q-3.353,0-3.354-2.509a10.778,10.778,0,0,1-.84-5.861l0-1.119,5.844-21.5c1.116-1.4,1.952-2.235,3.628-2.516l3.909-.84a67.21,67.21,0,0,0,18.136-7.831c5.023-3.073,8.37-7.263,11.435-11.733a20.8,20.8,0,0,0,3.9-8.377v-.838c.833-3.909-1.123-6.7-4.753-8.648a23.015,23.015,0,0,0-10.329-2.226,32.146,32.146,0,0,0-4.746.283,13.527,13.527,0,0,0-5.861,2.238,36.323,36.323,0,0,0-9.765,6.986A90.689,90.689,0,0,0,467.979,189.8c-.248.3-.484.6-.72.906a20.334,20.334,0,0,1-5.136,4.123c-3.068,2.795-5.577,6.425-9.205,8.941a314.118,314.118,0,0,1-22.59,25.42,54.283,54.283,0,0,1-5.237,6.252l-2.783,2.818-7.34,7.067c-1.546,1.166-2.92,3.137-5.28,3.139a7.814,7.814,0,0,0-3.071.562.973.973,0,0,0-.557.279.273.273,0,0,1-.281-.279l.279-1.116a44.619,44.619,0,0,1,2.226-9.215c1.671-4.746,3.342-8.934,4.735-13.123,1.114-3.349,3.345-7.539,4.459-10.89,1.671-3.909,3.345-7.26,5.294-11.45a108.291,108.291,0,0,0,6.127-16.753,40.145,40.145,0,0,1,1.112-6.141,5.769,5.769,0,0,0-1.4-5.023,8.4,8.4,0,0,0-6.144-2.228h-1.395c-.279-.279-.838-.279-1.676-.279a5.4,5.4,0,0,0-2.79.84,15.069,15.069,0,0,0-3.628,1.957l-9.484,7.267c-5.58,3.911-10.321,8.662-15.063,13.411a114.083,114.083,0,0,0-10.878,12.29c-3.625,3.632-6.692,7.822-10.317,11.173-.281.559-1.116.838-1.395,1.676a4.018,4.018,0,0,1-1.954.559v-1.395a12.5,12.5,0,0,1,.833-3.071c.557-2.792,1.952-5.027,2.785-7.539a42.4,42.4,0,0,1,2.785-9.493,89.837,89.837,0,0,1,8.082-16.477,4.52,4.52,0,0,1,1.114-1.954l.278-2.792c0-.557,0-.838-1.119-.835a1.385,1.385,0,0,0-.838.278c-.557.559-1.673,1.4-1.952,2.235h-.278c-.279-.279-.279-.279-.279-.557a11.333,11.333,0,0,1,1.393-2.514c0-.279.559-.838.838-1.116,0-.281-.281-.559-.838-.559l-.559,0v-1.116l-.281-.281-.557.559c-.278,0-.278.279-.838.838l-1.952.84c0-.281-.279-.281-.279-.559,0-.557.836-1.395,1.114-1.676v-.279H372.5a9.05,9.05,0,0,1-1.673.838c-.559.281-.559.281-.559.559v-.557a.273.273,0,0,1-.279-.279,1.03,1.03,0,0,0,.279-.838c.557-.281,0-.559-.559-.559a3.01,3.01,0,0,0-1.676-.276,4.648,4.648,0,0,0-3.347,1.678l-1.673,1.954a15.525,15.525,0,0,0-1.395,2.235,58.414,58.414,0,0,0-4.74,7.82c-.824,1.655-1.732,3.453-2.632,5.306h-.432a3.705,3.705,0,0,0-2.233.838l-2.511,1.678c-2.23.838-3.906,1.678-6.418,2.516a34.29,34.29,0,0,1-8.093,2.518c-3.628.562-7.536,1.124-11.442,1.964-.838,0-1.4,0-1.4-.836,0-.279,0-.279.559-.559a1.668,1.668,0,0,1,.279-1.116c-.84-1.116-.84-1.952-1.119-3.349,0-1.395-.562-2.511-2.516-3.625a8.283,8.283,0,0,0-2.792-.557,9.808,9.808,0,0,0-1.954-.276,10.855,10.855,0,0,0-4.466.562c-4.466,1.4-8.093,3.356-8.926,6.427v.838a1.111,1.111,0,0,0-.557,1.116,2.087,2.087,0,0,0,1.4,2.23l1.4,1.116c1.673.836,3.349,2.23,5.584,2.787,1.395.279,1.673.557,1.676,1.114l-.279,1.4c-.278,1.676-1.392,2.792-1.671,4.187a22.189,22.189,0,0,1-3.623,7.26l-4.461,6.7a42.666,42.666,0,0,1-9.2,11.173,18.911,18.911,0,0,1-3.068,1.957,4.37,4.37,0,0,1-2.792.84,5.512,5.512,0,0,1-2.233-1.114l-1.119-.838c-.279-.838-1.116-1.952-1.119-3.068a7.177,7.177,0,0,1-.281-4.187l0-1.954c0-.559,0-.838,0-1.4a2.522,2.522,0,0,1,.279-1.395l2.226-9.493c1.393-2.792,1.671-5.3,3.064-7.817.279-1.954.557-3.352.833-4.746a67.574,67.574,0,0,0,5.018-10.052c1.114-1.676,1.671-4.189,3.066-5.865,1.952-3.073,4.739-6.7,6.97-10.333,1.395-1.4,2.23-3.352,4.182-4.749l.279-.559a2.094,2.094,0,0,0-.279-1.395,3.435,3.435,0,0,1-.838-.557,5.381,5.381,0,0,0-2.792-.835h-1.4a8.226,8.226,0,0,0-2.792-.555,5.145,5.145,0,0,0-3.628,1.119l-3.068,1.678c-1.952,1.954-4.182,4.468-6.415,6.425-1.775,2.221-3.552,4.8-5.466,7.3a2.138,2.138,0,0,0-.387-.04,2.1,2.1,0,0,0-1.116.281c-.559-.838-.559-1.4-1.119-1.395a2.435,2.435,0,0,0-1.673,1.116l-11.993,11.735c-6.972,7.819-15.62,15.365-23.152,22.071l-12.273,10.057A82.268,82.268,0,0,1,200.613,245l-2.511.84-1.119,0c-.836,0-1.114-.278-1.674-1.116l0-.559a15.928,15.928,0,0,1,0-7.256,48.826,48.826,0,0,1,1.112-5.584c0-.838,1.114-1.676,1.114-2.514.836-3.909,3.064-7.539,4.737-11.169,2.788-4.749,5.3-9.5,8.362-13.963,4.739-6.705,9.481-13.406,16.734-18.717a27.759,27.759,0,0,1,6.7-3.913c.557-.278.836-.559,1.395-.559a3.444,3.444,0,0,1,2.233,1.114c.559.279.559.559,0,.838a33.878,33.878,0,0,0,4.749,4.182,4.454,4.454,0,0,0,2.792,1.395c.557,0,2.233-.562,2.233-1.119l.276-2.514-1.119-3.628c-1.678-3.347-3.913-6.137-7.543-7.529a24.585,24.585,0,0,0-8.1-1.39,22.638,22.638,0,0,0-4.187.283,5.6,5.6,0,0,0-3.628,1.119c-3.349,1.678-6.139,3.075-8.65,5.591A95.8,95.8,0,0,0,199.733,194.2l-6.134,8.1a101.75,101.75,0,0,0-8.36,15.08c-1.116,2.235-1.393,4.468-1.949,6.7l-1.393,3.911a15.784,15.784,0,0,1-.833,5.025,44.134,44.134,0,0,0,.845,10.6c1.959,4.744,5.87,8.091,10.895,10.6a15.854,15.854,0,0,0,5.027.833,30.485,30.485,0,0,0,6.7-1.124c8.091-2.518,14.787-6.71,21.762-11.74a117.664,117.664,0,0,0,13.949-11.457c10.619-9.429,21.655-19.276,31.484-29.9-.979,1.806-1.917,3.75-2.754,5.6a9.683,9.683,0,0,1-.836,3.352,12.608,12.608,0,0,0-.836,3.071l-1.669,5.863c0,.278,0,.559-.838.838a3.882,3.882,0,0,1-.835,2.514c0,.278-.279.557-.279.838a2.573,2.573,0,0,0,.84,1.395,3.99,3.99,0,0,0-.836,2.792,9.524,9.524,0,0,0-.278,2.792c-.279.279-.279.279,0,.557,0,1.116.281,2.233.281,4.187,0,2.511,1.681,4.744,4.194,6.7a20.644,20.644,0,0,0,7.539,3.342l3.352.835a32.831,32.831,0,0,0,8.374,1.947h1.117a21.586,21.586,0,0,0,12.837-4.477c.836-1.676,2.79-3.073,3.625-4.47,3.068-3.071,5.02-6.422,7.251-9.774,1.95-3.352,3.064-6.7,4.735-10.333,2.233-3.352,2.509-6.422,4.18-9.774,0-1.395.279-1.395,1.954-1.676a25.426,25.426,0,0,0,4.466-.283,64.792,64.792,0,0,0,12.28-1.683c3.068-.84,6.977-1.961,9.767-3.637.4-.153.777-.307,1.149-.463a30.736,30.736,0,0,0-1.7,6.045c0,.838.559,1.4,0,1.954,0,.559.559,1.395.562,2.233a23.126,23.126,0,0,0-1.114,4.189,18.708,18.708,0,0,0-.555,3.906,22.748,22.748,0,0,0,.286,7.539c.281,1.952,1.4,3.347,2.235,5.023.281,1.116,1.4,1.393,2.235,2.23.84,1.673,2.516,2.509,4.189,3.347a3.75,3.75,0,0,0,2.514.555,6.835,6.835,0,0,0,4.466-1.678,11.359,11.359,0,0,0,3.9-3.352c8.367-8.66,15.618-18.717,22.869-27.374,2.788-3.911,6.134-6.984,9.481-10.616,3.347-3.352,6.415-5.868,9.483-8.66,2.233-1.4,4.185-2.795,6.418-4.192.279,0,.559,0,.836-.559h.559l-.279.836-5.016,10.055c-2.23,4.189-4.739,8.377-6.41,12.566l-1.671,3.352c-.559,1.676-2.233,3.073-2.23,5.025l-5.013,13.4a123.905,123.905,0,0,0-3.618,12.564,47.863,47.863,0,0,0,.007,8.934,18.732,18.732,0,0,0,2.795,5.858c1.119.838,2.235,1.673,2.235,2.511,1.678,1.114,1.119.557,3.63,1.114,1.4,1.114,2.235,1.673,3.63,1.671a7.912,7.912,0,0,0,3.349-1.119c1.395-1.119,3.628-1.957,6.418-3.076,2.511-3.073,6.137-6.705,8.929-6.708,5.853-7.82,13.663-15.363,20.357-23.742a170.753,170.753,0,0,0,11.664-14.055c-.857,2.1-1.794,4.239-2.738,6.51l-.555,6.7a41.248,41.248,0,0,0-1.107,9.491,15.211,15.211,0,0,0,1.4,6.141c1.957,4.185,6.146,6.972,10.335,9.76a19.255,19.255,0,0,0,11.169,3.064,40.5,40.5,0,0,0,8.374-1.123,59.258,59.258,0,0,0,22.6-11.185c4.742-4.189,11.995-10.338,17.3-15.646h-.281c-.052,0-.113,0-.179,0l.736-.555-1.392,3.909a15.838,15.838,0,0,1-.833,5.025,44.162,44.162,0,0,0,.845,10.607c1.959,4.744,5.87,8.091,10.895,10.6a15.782,15.782,0,0,0,5.025.833,30.446,30.446,0,0,0,6.7-1.121c8.093-2.518,14.789-6.71,21.764-11.742a117.415,117.415,0,0,0,13.947-11.454c11.3-10.036,23.076-20.548,33.362-31.965l-1.008,2.627a179.641,179.641,0,0,1-8.631,26.248,14.584,14.584,0,0,1-.555,3.071l-3.9,13.68a12.413,12.413,0,0,0-.555,2.792c0,1.116-.279,2.233-.276,3.349-1.114,2.514-1.393,5.025-1.947,7.539v.559c0,2.79-2.224,12-2.778,17.867-.555,2.511-.833,4.466,0,4.744a5.491,5.491,0,0,1,2.233,1.116,3.956,3.956,0,0,1,.559.836,10.039,10.039,0,0,1,3.073,1.114c.557.838,6.125-17.591,6.963-18.151a5.6,5.6,0,0,0,1.114-2.233V263.1c.276-3.071,2.506-6.141,3.621-9.215a49.417,49.417,0,0,0,2.506-8.934v-.559a2.012,2.012,0,0,1,1.114-1.676,16.389,16.389,0,0,0,.555-3.909c0-.836.835-1.674.835-2.511,2.228-7.26,8.077-22.9,10.024-29.876,1.673-4.189,2.507-8.1,4.458-12.285,2.228-5.027,3.619-10.052,5.849-15.08a4.8,4.8,0,0,1,.276-1.954l5.294-13.682C644.091,159.508,648.544,145.547,650.216,141.638ZM482.5,197.881a1.028,1.028,0,0,1,.279-.838A113.663,113.663,0,0,1,494.492,182.8c2.233-1.4,3.628-3.073,6.418-4.192l1.116-.838h.838c.557,0,1.117.279,1.117.835v.279a18.906,18.906,0,0,1-3.345,6.144c-3.066,4.749-7.81,8.381-12.83,11.735a41.336,41.336,0,0,1-4.744,1.959c-.559,0-.838-.281-.838-.559Zm-28.4,12.781a.774.774,0,0,1-.345.083Zm-.857,1.05.309-.583a2.509,2.509,0,0,1,.762-.106A2.719,2.719,0,0,1,453.249,211.712ZM759.9,205.375c-.836-.279-1.395-1.395-2.233-1.395a1.02,1.02,0,0,0-.838.281c-.557-.278.278-.559-.559-.838a1.391,1.391,0,0,0-1.673,0l-2.79,1.676c-.838,1.676-1.393,3.63-3.066,5.027-5.3,5.868-10.04,11.454-15.339,17.041-5.858,6.982-4.678,4.008-11.093,9.6-2.233,2.235-5.3,3.632-7.531,5.589a19.637,19.637,0,0,1-3.349.84h-1.117a4.526,4.526,0,0,1-3.911-1.95,10.645,10.645,0,0,1-.84-5.3c.276-2.233.274-4.187.552-6.42.276-3.071,1.112-5.863,1.666-8.934a102.314,102.314,0,0,1,4.456-13.961c4.178-10.333,8.915-20.664,13.652-30.717l4.739-9.5a3.981,3.981,0,0,0,.557-1.676,4.4,4.4,0,0,0-1.959-3.628c-.557-.557-2.511-1.114-3.908-1.671a12.6,12.6,0,0,0-2.233-.557c-.559,0-.838.559-1.952,1.678L714.16,168.1c-5.3,5.587-11.716,11.733-16.177,17.32-7.251,8.66-15.059,17.041-22.59,25.42a111.441,111.441,0,0,1-16.734,15.925,3.02,3.02,0,0,1-1.395.281h-.281c0-.278-.279-.838-.281-1.116a11.894,11.894,0,0,1,.557-3.071c1.114-2.792,1.949-6.144,3.9-8.936a155.2,155.2,0,0,1,13.38-22.621c3.066-3.073,5.577-6.146,8.645-8.941l4.185-3.073a3.716,3.716,0,0,1,1.395-.281c.279,0,.559,0,.838.557l5.027,3.347a4.738,4.738,0,0,0,1.395.557,1.45,1.45,0,0,0,1.116-.559c.56-.559,1.395-1.116,1.395-1.954,0-.559-.559-1.116-.559-1.4-.281-1.395-.562-3.068-1.957-4.185-3.633-3.625-9.5-5.575-14.242-5.57-1.116,0-1.954.281-2.511.281a5.368,5.368,0,0,0-2.79.84c-2.792,1.676-5.3,2.795-7.813,5.589-1.116.279-1.395,1.116-1.952,1.954a90.283,90.283,0,0,0-12.828,14.806c-2.23,4.19-5.3,8.658-7.248,13.125a47.234,47.234,0,0,0-5.011,15.356,15.828,15.828,0,0,1,0,3.63v1.395a6.42,6.42,0,0,0,2.238,6.139c2.794,2.511,5.03,5.3,8.66,6.413a19.291,19.291,0,0,0,3.63.557,5.53,5.53,0,0,0,1.954-.281c2.231-.84,5.023-1.959,6.975-3.916,3.068-2.792,6.415-5.308,8.926-8.1a180.939,180.939,0,0,0,13.107-15.922l14.5-18.715c.836-1.676.836-3.349,3.347-3.911v.559a21.789,21.789,0,0,1-3.066,5.585,167.609,167.609,0,0,0-8.91,27.643c0,.557,0,1.395,0,2.233,0,1.395,0,3.071,0,4.466a14.54,14.54,0,0,0,1.961,8.931,22.806,22.806,0,0,0,11.174,9.2,14.87,14.87,0,0,0,6.7,1.669c3.349,0,6.42-1.121,10.326-3.078l9.764-6.708c3.066-3.911,7.251-7.543,10.041-10.895,8.089-8.66,6.906-8.478,14.714-17.695.836-1.4,1.673-3.073,2.509-4.747C760.182,205.932,760.182,205.375,759.9,205.375Z" transform="translate(-181.063 -89.427)" fill="#fb5b76"/>
  </g>
</svg>
