<svg xmlns="http://www.w3.org/2000/svg" xmlns:xlink="http://www.w3.org/1999/xlink" width="213.588" height="162.16" viewBox="0 0 213.588 162.16">
  <defs>
    <clipPath id="clip-path">
      <rect id="Rectangle_1509" data-name="Rectangle 1509" width="213.588" height="162.16" fill="none"/>
    </clipPath>
  </defs>
  <g id="logo-essilor-splash" transform="translate(-242.697 -286.64)">
    <rect id="Rectangle_1507" data-name="Rectangle 1507" width="213.588" height="162.16" transform="translate(242.697 286.639)" fill="#fff"/>
    <g id="Group_17" data-name="Group 17" transform="translate(242.697 286.639)">
      <g id="Group_16" data-name="Group 16" clip-path="url(#clip-path)">
        <path id="Path_2046" data-name="Path 2046" d="M269.454,521.436c-6.665,0-11.3-3.843-11.3-9.356,0-5.529,4.635-9.373,11.3-9.373a14.166,14.166,0,0,1,5.66,1.1l.449.211-8.629,5.4a3.135,3.135,0,0,0-1.474,2.043,3.208,3.208,0,0,0,.471,2.416,3.424,3.424,0,0,0,4.656.957s15.442-9.6,15.89-9.892c-3.268-5.026-9.74-8.14-17.023-8.14-10.765,0-19.2,6.714-19.2,15.276,0,8.545,8.436,15.259,19.2,15.259,10.594,0,18.945-6.535,19.18-14.918h-7.881c-.214,5.319-4.806,9.016-11.3,9.016" transform="translate(-245.831 -373.821)" fill="#50565a"/>
        <path id="Path_2047" data-name="Path 2047" d="M411.447,512.18h-7.39a1.724,1.724,0,0,0-1-1.622c-1.132-.616-3.4-.924-6.814-.924s-5.682.308-6.813.94a1.685,1.685,0,0,0-1,1.605,1.826,1.826,0,0,0,1.389,1.865,33.429,33.429,0,0,0,6.707.7,40.647,40.647,0,0,1,9.612,1.249q5.317,1.776,5.318,6.178,0,7.419-15.207,7.427t-15.208-7.427h7.39a1.731,1.731,0,0,0,1,1.638c1.131.616,3.4.94,6.813.94s5.682-.324,6.814-.94a1.731,1.731,0,0,0,1-1.638,1.8,1.8,0,0,0-1.282-1.832,31.353,31.353,0,0,0-6.75-.746,39.621,39.621,0,0,1-9.59-1.249c-3.61-1.152-5.4-3.211-5.4-6.163q0-7.394,15.208-7.394t15.207,7.394" transform="translate(-300.082 -377.132)" fill="#50565a"/>
        <path id="Path_2048" data-name="Path 2048" d="M441.294,497.877h7.411v24.761h-7.411Zm7.411-4.9h-7.411v-4.849h7.411" transform="translate(-325.08 -370.223)" fill="#50565a"/>
        <path id="Path_2049" data-name="Path 2049" d="M483.009,522.639c-18.925,1.005-18.9-1.249-18.9-8.967v-25.54h7.39v25.54c0,1.28-.384,3.422.9,4.151,1.816,1.022,6.023.5,10.616.5" transform="translate(-334.543 -370.223)" fill="#50565a"/>
        <path id="Path_2050" data-name="Path 2050" d="M527.919,519.24c0-2.562-.641-4.426-1.922-5.578-1.559-1.427-4.314-2.14-8.245-2.14s-6.686.713-8.244,2.14c-1.282,1.152-1.922,3.016-1.922,5.578,0,2.578.64,4.427,1.922,5.578,1.559,1.394,4.315,2.092,8.244,2.092s6.686-.7,8.245-2.092c1.281-1.151,1.922-3,1.922-5.578m7.39,0q0,12.625-17.557,12.633-17.621,0-17.621-12.633,0-12.672,17.621-12.681,17.557,0,17.557,12.681" transform="translate(-349.487 -377.868)" fill="#50565a"/>
        <path id="Path_2051" data-name="Path 2051" d="M586.495,509.634c-4.592,0-7.775.422-9.526,1.265a3.044,3.044,0,0,0-1.922,2.887v15.762h-7.39V513.786q0-9,18.838-9" transform="translate(-377.499 -377.132)" fill="#50565a"/>
        <path id="Path_2052" data-name="Path 2052" d="M351.988,512.18H344.6a1.705,1.705,0,0,0-.982-1.622c-1.133-.616-3.417-.924-6.835-.924-3.4,0-5.681.308-6.813.94a1.685,1.685,0,0,0-1,1.605,1.825,1.825,0,0,0,1.387,1.865,33.73,33.73,0,0,0,6.728.7,40.43,40.43,0,0,1,9.59,1.249q5.318,1.776,5.318,6.178,0,7.419-15.207,7.427c-10.124,0-15.207-2.481-15.207-7.427h7.39a1.731,1.731,0,0,0,1,1.638c1.131.616,3.416.94,6.813.94,3.418,0,5.7-.324,6.835-.94a1.713,1.713,0,0,0,.982-1.638,1.811,1.811,0,0,0-1.26-1.832,31.543,31.543,0,0,0-6.748-.746,39.992,39.992,0,0,1-9.612-1.249c-3.589-1.152-5.4-3.211-5.4-6.163,0-4.929,5.083-7.394,15.207-7.394q15.22,0,15.207,7.394" transform="translate(-275.417 -377.132)" fill="#50565a"/>
        <rect id="Rectangle_1508" data-name="Rectangle 1508" width="202.866" height="102.583" transform="translate(5.703 4.8)" fill="#1c82c3"/>
        <path id="Path_2053" data-name="Path 2053" d="M378.411,385.961c-35.669-7.7-44.917-41.659-44.917-41.659l.213-.341s20.782-33.778,63.8-24.859c0,0,32.572,5.967,44.6,41.838,0,0-21.38,34.167-63.693,25.021m12.325-72.81c-49.531,1.135-63.778,43.134-63.778,43.134l-.128.422s18.774,34.621,59.911,34.021c48.827-.713,63.629-43.281,63.629-43.281-22.342-36.016-59.634-34.3-59.634-34.3" transform="translate(-277.598 -297.632)" fill="#fff"/>
        <path id="Path_2054" data-name="Path 2054" d="M410.829,378.644c-10.338,0-17.557-5.967-17.557-14.513,0-8.562,7.219-14.546,17.557-14.546a21.911,21.911,0,0,1,8.821,1.736l.406.179-13.286,8.3a5.226,5.226,0,0,0-2.371,3.34,5.108,5.108,0,0,0,.748,3.925,5.577,5.577,0,0,0,7.56,1.557l25.1-15.616c-5.105-8.043-15.421-13.021-26.977-13.021-17,0-30.308,10.605-30.308,24.146s13.306,24.145,30.308,24.145c16.831,0,30.074-10.442,30.309-23.8H428.386c-.213,8.367-7.39,14.172-17.557,14.172" transform="translate(-299.87 -308.768)" fill="#fff"/>
      </g>
    </g>
  </g>
</svg>
