<svg id="logo-conecta-splash" xmlns="http://www.w3.org/2000/svg" width="759.736" height="478.029" viewBox="0 0 759.736 478.029">
  <g id="Group_758" data-name="Group 758" transform="translate(0 154.137)">
    <path id="Path_611" data-name="Path 611" d="M767.96,471.327H140.5V147.435H205.5v2.324H142.828V469H765.635V245.34H615.545v-2.326H767.96Z" transform="translate(-140.504 -147.435)" fill="#8a9bb0"/>
  </g>
  <g id="Group_759" data-name="Group 759" transform="translate(57.184 177.185)">
    <path id="Path_612" data-name="Path 612" d="M162.025,167.048h12.063l20.293,59.959c3.106,9.141,7.677,23.949,7.677,23.949h.367s4.754-14.808,7.86-23.949l21.207-59.959h11.516l-34.184,94.51H195.479Z" transform="translate(-162.025 -137.981)" fill="#4f5965"/>
    <path id="Path_613" data-name="Path 613" d="M191.815,238.683c0-22.485,17.55-27.055,38.938-29.614,18.648-2.195,25.413-3.292,25.413-12.8v-1.828c0-12.8-8.043-19.012-22.671-19.012-16.817,0-25.591,6.946-26.505,21.023H195.838c1.278-18.281,13.347-30.164,37.657-30.164,20.657,0,33.454,8.591,33.454,29.247v51.371c0,5.668,2.195,8.043,6.218,8.227a20.443,20.443,0,0,0,4.2-.731h.548v8.227a18.244,18.244,0,0,1-7.677,1.461c-8.226,0-13.347-4.2-13.894-13.344v-2.012h-.55c-5.3,7.5-14.989,16.27-33.087,16.27C205.162,265.007,191.815,256.233,191.815,238.683Zm64.532-10.055v-17c-6.032,3.29-15.356,4.934-24.5,6.215-15.9,2.195-28.153,4.57-28.153,20.84,0,13.164,9.871,17.184,21.023,17.184C245.378,255.866,256.347,241.608,256.347,228.628Z" transform="translate(-112.658 -139.236)" fill="#4f5965"/>
    <path id="Path_614" data-name="Path 614" d="M226.766,168.3H238.1v14.439h.367c6.4-9.5,16.634-16.45,31.625-16.45,17.548,0,30.164,10.421,30.164,29.431v67.09H288.919V196.819c0-14.258-8.227-20.84-21.571-20.84-16.087,0-29.25,11.336-29.25,26.875v59.959H226.766Z" transform="translate(-54.739 -139.236)" fill="#4f5965"/>
    <path id="Path_615" data-name="Path 615" d="M271.093,263.416V194.5H256.832v-9.321h14.261V156.109h11.333v29.067h17.551V194.5H282.426v67.091c0,6.765,3.109,8.96,9.141,8.96a21.839,21.839,0,0,0,7.5-1.464h.547v9.688a30.382,30.382,0,0,1-10.419,1.647C278.405,280.419,271.093,275.482,271.093,263.416Z" transform="translate(-4.915 -156.109)" fill="#4f5965"/>
    <path id="Path_616" data-name="Path 616" d="M274.927,238.683c0-22.485,17.551-27.055,38.938-29.614,18.648-2.195,25.413-3.292,25.413-12.8v-1.828c0-12.8-8.043-19.012-22.671-19.012-16.817,0-25.591,6.946-26.505,21.023H278.95c1.281-18.281,13.347-30.164,37.657-30.164,20.659,0,33.456,8.591,33.456,29.247v51.371c0,5.668,2.192,8.043,6.215,8.227a20.446,20.446,0,0,0,4.2-.731h.547v8.227a18.245,18.245,0,0,1-7.677,1.461c-8.226,0-13.347-4.2-13.894-13.344v-2.012h-.547c-5.3,7.5-14.989,16.27-33.09,16.27C288.274,265.007,274.927,256.233,274.927,238.683Zm64.532-10.055v-17c-6.032,3.29-15.356,4.934-24.5,6.215-15.9,2.195-28.152,4.57-28.152,20.84,0,13.164,9.874,17.184,21.026,17.184C328.49,255.866,339.459,241.608,339.459,228.628Z" transform="translate(25.071 -139.236)" fill="#4f5965"/>
  </g>
  <g id="Group_760" data-name="Group 760" transform="translate(219.93 312.987)">
    <path id="Path_617" data-name="Path 617" d="M227.3,312.216h10.966c2.012,10.969,12.8,15.356,26.508,15.356,20.109,0,29.614-10.419,29.614-27.055V285.528h-.547c-6.949,10.6-15.72,16.453-29.981,16.453-24.86,0-40.583-19.379-40.583-47.167,0-30.709,18.645-47.529,40.583-47.529,14.625,0,23.766,6.4,29.981,16.637h.547V209.3h11.152V300.15c0,10.6-3.109,19.2-8.774,25.413-7.129,7.493-17.551,11.333-31.625,11.333C241.918,336.9,228.941,326.291,227.3,312.216Zm67.821-57.583c0-22.3-9.874-37.841-30.531-37.841-18.645,0-29.614,15.172-29.614,38.2,0,21.573,9.507,37.477,29.431,37.477C285.426,292.474,295.117,277.3,295.117,254.633Z" transform="translate(-223.273 -207.104)" fill="#4f5965"/>
    <path id="Path_618" data-name="Path 618" d="M258.155,256.757c0-28.336,17-49.54,43.142-49.54,30.345,0,40.766,25.044,40.583,51.549H269.855c.547,21.207,10.785,37.841,32.356,37.841,15.723,0,23.947-8.407,27.605-21.2h10.966c-4.02,18.645-17.365,30.895-38.572,30.895C273.875,306.3,258.155,285.093,258.155,256.757ZM330,249.809c-.548-18.645-9.321-33.27-28.7-33.27-19.2,0-29.25,14.442-31.259,33.27Z" transform="translate(-165.468 -207.217)" fill="#4f5965"/>
    <path id="Path_619" data-name="Path 619" d="M293.587,209.3H304.92v14.442h.367c6.4-9.507,16.636-16.453,31.625-16.453,17.551,0,30.164,10.421,30.164,29.431v67.093H355.741v-66c0-14.258-8.227-20.84-21.571-20.84-16.086,0-29.25,11.335-29.25,26.874v59.961H293.587Z" transform="translate(-106.752 -207.104)" fill="#4f5965"/>
    <path id="Path_620" data-name="Path 620" d="M324.479,274.375H336c1.645,15.906,12.613,22.3,27.786,22.3,15.722,0,23.946-7.312,23.946-18.284,0-10.419-5.849-13.892-25.227-18.279-19.193-4.387-34.551-8.96-34.551-27.238,0-15.722,13.53-25.594,32.906-25.594,22.485,0,32.906,11.333,35.1,27.969H384.621c-1.281-12.247-9.691-18.645-23.766-18.645-14.625,0-21.571,6.946-21.571,15.722,0,10.783,8.957,13.344,27.055,17.548,19.012,4.023,32.723,8.774,32.723,28.336,0,16.817-13.528,28.153-35.465,28.153C338.371,306.368,325.576,292.657,324.479,274.375Z" transform="translate(-55.559 -207.104)" fill="#4f5965"/>
  </g>
  <g id="Group_761" data-name="Group 761" transform="translate(107.771 0)">
    <path id="Path_621" data-name="Path 621" d="M709.229,148.206a14.905,14.905,0,0,0,2.2-3.773c.313-1.257,1.884-1.887,3.141-2.2a15.938,15.938,0,0,1,4.084-.632l26.394-5.676c2.827-.632,27.021-5.051,29.221-6.624.627-.316,1.254-.943,1.254-1.257s0-.63-.627-.63c-.316-.314-1.887-.627-1.889-1.57-32.051,2.227-44.616,6.321-50.273,6.954a27.006,27.006,0,0,1-4.714.319l-.943,0a.834.834,0,0,1-.943-.943v-.943c2.511-3.773,2.825-5.66,4.706-9.43L731.5,100.42a43.645,43.645,0,0,0,2.825-5.344,1.149,1.149,0,0,0,.313-.943c0-.314,0-.627-.943-.627-.627-.314-.63-1.257-.943-1.57.313-.63,0-.943-.316-.943a2.382,2.382,0,0,0-1.254.63,6.625,6.625,0,0,1-2.2,1.573,4.139,4.139,0,0,1-1.57.943c.627-1.257,1.57-1.887,3.141-3.143a1.1,1.1,0,0,1,.314-.63l-.314-.314c-.316,0-.316.314-.63.314l-.943,0v.314c-.314,0-.627.314-.941.63.314-.316.314-.63.941-.943a3.546,3.546,0,0,0-2.514-.941h-.63c-1.57,0-2.2.943-3.141,1.887a22.316,22.316,0,0,0-4.709,4.719A71.739,71.739,0,0,0,709.51,108.3c-5.649,8.8-8.157,16.347-13.177,24.836-2.825,5.66-19.793,7.243-26.391,8.819-3.771.946-7.541,1.578-10.055,2.838-.627.314-1.57.943-1.57,1.257a1.639,1.639,0,0,0-.627,1.259v.627a4.447,4.447,0,0,1,.63,1.887c.946,1.57,2.516,2.2,4.717,2.195h1.573l23.25-3.476.313,0c.943,0,.943.314.943,1.257l0,.63c-.941,1.887-4.389,13.2-5.33,15.087-.627,1.573-2.195,5.03-2.195,6.6-.941,1.26-.941,2.2-1.884,3.46-.311,1.57-1.568,3.143-2.2,4.4v.943c-.311,3.144-2.508,6.917-4.389,10.06v.314a1.1,1.1,0,0,1-.314.63s.627.314.627.627l-1.395,5.253a.587.587,0,0,0-.484-.223,2.748,2.748,0,0,0-1.884,1.26l-13.5,13.209c-7.849,8.806-17.585,17.3-26.064,24.847l-13.817,11.325a92.751,92.751,0,0,1-30.786,16.052l-2.827.946h-1.257c-.943,0-1.257-.314-1.886-1.257v-.627a17.941,17.941,0,0,1-.006-8.171,54.992,54.992,0,0,1,1.252-6.287c0-.943,1.254-1.887,1.254-2.83.938-4.4,3.449-8.487,5.333-12.574,3.138-5.344,5.96-10.69,9.414-15.72,5.336-7.546,10.671-15.093,18.839-21.071a31.345,31.345,0,0,1,7.538-4.406c.627-.314.941-.63,1.57-.63a3.88,3.88,0,0,1,2.514,1.257q.945.47,0,.941a38.336,38.336,0,0,0,5.346,4.711,5.038,5.038,0,0,0,3.146,1.568c.627,0,2.514-.63,2.511-1.259l.314-2.827-1.262-4.084c-1.887-3.771-4.406-6.911-8.492-8.479A27.66,27.66,0,0,0,619.7,181.9a25.491,25.491,0,0,0-4.714.316,6.336,6.336,0,0,0-4.084,1.262c-3.768,1.887-6.909,3.462-9.736,6.292a107.753,107.753,0,0,0-16.642,17.3l-6.906,9.117q-2.8,4.209-5.136,8.415c-2.95,2.928-5.987,5.769-9.3,8.88-3.768,3.146-10.679,7.238-13.82,9.754a123.808,123.808,0,0,1-17.588,11.955c-6.281,3.462-13.509,5.354-19.793,6.616l-3.141,0q-3.775,0-3.776-2.824a12.134,12.134,0,0,1-.946-6.6l0-1.259,6.579-24.2c1.257-1.573,2.2-2.516,4.084-2.832l4.4-.946a75.664,75.664,0,0,0,20.418-8.816c5.654-3.46,9.422-8.176,12.874-13.209,2.2-3.143,3.768-5.973,4.392-9.43v-.943c.938-4.4-1.265-7.541-5.351-9.736a25.909,25.909,0,0,0-11.628-2.506,36.188,36.188,0,0,0-5.343.319,15.229,15.229,0,0,0-6.6,2.519,40.893,40.893,0,0,0-10.993,7.865,102.1,102.1,0,0,0-12.874,13.209c-.279.337-.545.68-.81,1.02a22.89,22.89,0,0,1-5.782,4.642c-3.454,3.146-6.279,7.233-10.363,10.065-7.533,9.747-16.326,19.182-25.432,28.618a61.107,61.107,0,0,1-5.9,7.039l-3.133,3.173-8.264,7.955c-1.74,1.313-3.287,3.531-5.944,3.534a8.8,8.8,0,0,0-3.457.632,1.1,1.1,0,0,0-.627.314.308.308,0,0,1-.316-.314l.314-1.257a50.232,50.232,0,0,1,2.506-10.374c1.881-5.343,3.762-10.057,5.33-14.774,1.254-3.77,3.765-8.487,5.019-12.26,1.881-4.4,3.765-8.173,5.96-12.89a121.911,121.911,0,0,0,6.9-18.86,45.2,45.2,0,0,1,1.251-6.914,6.5,6.5,0,0,0-1.576-5.654,9.451,9.451,0,0,0-6.916-2.508h-1.57c-.314-.314-.943-.314-1.887-.314a6.076,6.076,0,0,0-3.141.946,16.965,16.965,0,0,0-4.084,2.2l-10.677,8.181c-6.282,4.4-11.62,9.752-16.958,15.1a128.434,128.434,0,0,0-12.247,13.836c-4.082,4.089-7.533,8.806-11.615,12.579-.316.63-1.257.943-1.57,1.887a4.524,4.524,0,0,1-2.2.63v-1.57c0-1.257.624-2.2.938-3.457.627-3.143,2.2-5.66,3.135-8.487a47.736,47.736,0,0,1,3.135-10.687,101.136,101.136,0,0,1,9.1-18.55,5.088,5.088,0,0,1,1.254-2.2l.313-3.143c0-.627,0-.943-1.259-.941a1.559,1.559,0,0,0-.943.313c-.627.63-1.884,1.573-2.2,2.516h-.314c-.314-.314-.314-.314-.314-.627a12.76,12.76,0,0,1,1.568-2.83c0-.314.63-.943.943-1.257,0-.316-.316-.63-.943-.63l-.63,0v-1.257l-.316-.316-.627.63c-.313,0-.313.314-.943.943l-2.2.946c0-.316-.314-.316-.314-.63,0-.627.941-1.57,1.254-1.887v-.314h-.943a10.188,10.188,0,0,1-1.884.943c-.63.316-.63.316-.63.63v-.627a.307.307,0,0,1-.314-.314,1.159,1.159,0,0,0,.314-.943c.627-.316,0-.63-.63-.63a3.388,3.388,0,0,0-1.887-.311,5.233,5.233,0,0,0-3.768,1.889l-1.884,2.2a17.478,17.478,0,0,0-1.57,2.516,65.761,65.761,0,0,0-5.336,8.8c-.927,1.863-1.95,3.887-2.963,5.973h-.486a4.171,4.171,0,0,0-2.514.943l-2.827,1.889c-2.511.943-4.4,1.889-7.225,2.832a38.6,38.6,0,0,1-9.111,2.835c-4.084.632-8.484,1.265-12.882,2.211-.943,0-1.571,0-1.573-.941,0-.314,0-.314.63-.63a1.878,1.878,0,0,1,.314-1.257c-.946-1.257-.946-2.2-1.259-3.77,0-1.57-.632-2.827-2.833-4.081a9.325,9.325,0,0,0-3.143-.627,11.042,11.042,0,0,0-2.2-.311c-1.887,0-3.771,0-5.027.632-5.027,1.573-9.111,3.779-10.049,7.235v.943a1.251,1.251,0,0,0-.627,1.257,2.35,2.35,0,0,0,1.573,2.511l1.573,1.257c1.884.941,3.77,2.511,6.287,3.138,1.57.314,1.884.627,1.887,1.254l-.314,1.573c-.313,1.887-1.568,3.143-1.881,4.714a24.979,24.979,0,0,1-4.079,8.173l-5.022,7.546a48.032,48.032,0,0,1-10.36,12.579,21.293,21.293,0,0,1-3.454,2.2,4.92,4.92,0,0,1-3.143.946,6.205,6.205,0,0,1-2.514-1.254l-1.259-.943c-.314-.943-1.257-2.2-1.26-3.454a8.08,8.08,0,0,1-.316-4.714l0-2.2c0-.63,0-.943,0-1.573a2.839,2.839,0,0,1,.314-1.57l2.506-10.687c1.568-3.143,1.881-5.971,3.449-8.8.314-2.2.627-3.773.938-5.344a76.075,76.075,0,0,0,5.649-11.317c1.254-1.887,1.881-4.716,3.452-6.6,2.2-3.46,5.336-7.546,7.847-11.633,1.57-1.573,2.511-3.773,4.708-5.346l.314-.63a2.358,2.358,0,0,0-.314-1.57,3.867,3.867,0,0,1-.943-.627,6.058,6.058,0,0,0-3.143-.941h-1.573a9.261,9.261,0,0,0-3.143-.624,5.792,5.792,0,0,0-4.084,1.259l-3.454,1.889c-2.2,2.2-4.709,5.03-7.222,7.233-2,2.5-4,5.4-6.154,8.221a2.407,2.407,0,0,0-.436-.045,2.367,2.367,0,0,0-1.257.316c-.63-.943-.63-1.573-1.26-1.57a2.741,2.741,0,0,0-1.884,1.257l-13.5,13.211c-7.849,8.8-17.585,17.3-26.064,24.847l-13.817,11.322a92.616,92.616,0,0,1-30.783,16.052l-2.827.946-1.26,0c-.941,0-1.254-.313-1.884-1.257l0-.63a17.931,17.931,0,0,1-.005-8.168,54.963,54.963,0,0,1,1.252-6.287c0-.943,1.254-1.887,1.254-2.83.941-4.4,3.449-8.487,5.333-12.574,3.138-5.346,5.963-10.69,9.414-15.72,5.336-7.549,10.674-15.093,18.839-21.071a31.25,31.25,0,0,1,7.538-4.406c.627-.313.941-.63,1.57-.63a3.877,3.877,0,0,1,2.514,1.254c.63.314.63.63,0,.943a38.139,38.139,0,0,0,5.346,4.709,5.014,5.014,0,0,0,3.143,1.57c.627,0,2.514-.632,2.514-1.259l.311-2.83-1.259-4.084c-1.889-3.768-4.406-6.909-8.492-8.476a27.677,27.677,0,0,0-9.114-1.565,25.485,25.485,0,0,0-4.714.319,6.308,6.308,0,0,0-4.084,1.259c-3.77,1.889-6.911,3.462-9.739,6.295a107.856,107.856,0,0,0-16.642,17.3l-6.906,9.119a114.547,114.547,0,0,0-9.412,16.977c-1.257,2.516-1.568,5.03-2.195,7.544l-1.568,4.4a17.77,17.77,0,0,1-.938,5.657c0,4.084.005,8.171.951,11.939,2.205,5.341,6.608,9.109,12.265,11.933a17.849,17.849,0,0,0,5.66.938,34.322,34.322,0,0,0,7.541-1.265c9.109-2.835,16.647-7.554,24.5-13.217a132.468,132.468,0,0,0,15.7-12.9c11.954-10.615,24.379-21.7,35.444-33.666-1.1,2.033-2.158,4.222-3.1,6.3a10.9,10.9,0,0,1-.941,3.773c-.314,1.257-.941,2.2-.941,3.457l-1.879,6.6c0,.314,0,.63-.943.943a4.37,4.37,0,0,1-.941,2.83c0,.313-.314.627-.314.943a2.9,2.9,0,0,0,.946,1.57,4.492,4.492,0,0,0-.941,3.143,10.723,10.723,0,0,0-.313,3.144c-.314.314-.314.314,0,.627,0,1.257.316,2.514.316,4.714,0,2.827,1.892,5.341,4.722,7.538a23.24,23.24,0,0,0,8.487,3.763l3.773.941a36.96,36.96,0,0,0,9.427,2.192h1.257a24.3,24.3,0,0,0,14.452-5.041c.941-1.887,3.141-3.46,4.081-5.033,3.454-3.457,5.652-7.23,8.163-11,2.195-3.773,3.449-7.546,5.33-11.633,2.514-3.773,2.825-7.23,4.706-11,0-1.57.314-1.57,2.2-1.887a28.624,28.624,0,0,0,5.027-.319,72.943,72.943,0,0,0,13.825-1.894c3.454-.946,7.855-2.208,11-4.095.449-.173.874-.345,1.294-.521a34.6,34.6,0,0,0-1.918,6.8c0,.943.63,1.573,0,2.2,0,.63.63,1.57.632,2.514a26.034,26.034,0,0,0-1.254,4.716,21.061,21.061,0,0,0-.624,4.4,25.609,25.609,0,0,0,.322,8.487c.316,2.2,1.573,3.768,2.516,5.654.316,1.257,1.573,1.568,2.516,2.511.946,1.884,2.832,2.825,4.716,3.768.63.627,1.887.627,2.83.624a7.7,7.7,0,0,0,5.027-1.889,12.789,12.789,0,0,0,4.395-3.773c9.42-9.749,17.582-21.071,25.745-30.818,3.138-4.4,6.906-7.863,10.674-11.952,3.768-3.773,7.222-6.606,10.676-9.749,2.514-1.573,4.711-3.146,7.225-4.719.314,0,.63,0,.941-.63h.63l-.314.941L440.909,205.3c-2.511,4.716-5.336,9.43-7.217,14.147l-1.881,3.773c-.63,1.887-2.514,3.46-2.511,5.657l-5.644,15.09a139.5,139.5,0,0,0-4.073,14.144,53.881,53.881,0,0,0,.008,10.057c.316,1.884,1.889,4.711,3.146,6.6,1.259.943,2.516,1.884,2.516,2.827,1.889,1.254,1.26.627,4.087,1.254,1.573,1.254,2.516,1.884,4.087,1.881a8.907,8.907,0,0,0,3.77-1.259c1.57-1.26,4.084-2.2,7.225-3.462,2.827-3.46,6.909-7.549,10.052-7.552,6.59-8.8,15.382-17.3,22.918-26.728A192.227,192.227,0,0,0,490.523,225.9c-.965,2.365-2.02,4.772-3.082,7.328l-.625,7.544a46.432,46.432,0,0,0-1.246,10.684,17.125,17.125,0,0,0,1.576,6.914c2.2,4.711,6.919,7.849,11.636,10.987a21.678,21.678,0,0,0,12.574,3.449,45.588,45.588,0,0,0,9.428-1.265,66.713,66.713,0,0,0,25.442-12.592c5.338-4.716,13.5-11.638,19.471-17.614h-.316c-.059,0-.128,0-.2,0l.829-.624-1.568,4.4a17.83,17.83,0,0,1-.938,5.657c0,4.087.005,8.171.951,11.941,2.205,5.341,6.608,9.109,12.265,11.931a17.766,17.766,0,0,0,5.657.938,34.276,34.276,0,0,0,7.541-1.262c9.111-2.835,16.65-7.554,24.5-13.219a132.185,132.185,0,0,0,15.7-12.9c12.725-11.3,25.979-23.133,37.559-35.986l-1.135,2.958c-1.251,6.287-6.579,22.634-9.717,29.55a16.415,16.415,0,0,1-.624,3.457l-4.389,15.4a13.973,13.973,0,0,0-.625,3.143c0,1.257-.314,2.514-.311,3.771-1.254,2.83-1.568,5.657-2.192,8.487v.63c0,3.141-2.5,13.514-3.127,20.115-.625,2.827-.938,5.027.005,5.341a6.182,6.182,0,0,1,2.514,1.257,4.456,4.456,0,0,1,.63.941,11.3,11.3,0,0,1,3.46,1.254c.627.943,6.9-19.8,7.838-20.434a6.307,6.307,0,0,0,1.254-2.514v-.63c.311-3.457,2.822-6.914,4.076-10.374,1.254-3.77,2.508-7.23,2.822-10.057v-.63A2.265,2.265,0,0,1,669.411,262a18.452,18.452,0,0,0,.625-4.4c0-.941.94-1.884.94-2.827,2.508-8.173,9.093-25.777,11.285-33.634,1.884-4.716,2.822-9.117,5.019-13.831,2.509-5.66,4.074-11.317,6.584-16.977a5.4,5.4,0,0,1,.311-2.2l5.96-15.4C702.333,168.323,707.347,152.606,709.229,148.206Zm-188.81,63.317a1.157,1.157,0,0,1,.314-.943,127.967,127.967,0,0,1,13.185-16.039c2.514-1.573,4.084-3.46,7.225-4.719l1.257-.943h.943c.627,0,1.257.314,1.257.941v.314c-.627,2.516-2.195,4.716-3.765,6.917-3.452,5.346-8.792,9.436-14.444,13.211-1.57.943-3.141,1.26-5.341,2.205-.63,0-.943-.316-.943-.63Zm-31.968,14.389a.872.872,0,0,1-.388.093Zm-.965,1.182.348-.656a2.825,2.825,0,0,1,.858-.119A3.061,3.061,0,0,1,487.486,227.094Zm345.226-7.134c-.941-.314-1.57-1.57-2.514-1.57a1.148,1.148,0,0,0-.943.316c-.627-.313.313-.63-.63-.943a1.566,1.566,0,0,0-1.884,0l-3.141,1.887c-.943,1.887-1.568,4.087-3.452,5.66-5.968,6.606-11.3,12.9-17.269,19.185-6.6,7.86-5.266,4.512-12.489,10.8-2.514,2.516-5.968,4.089-8.479,6.292-1.257.63-2.83.63-3.771.946h-1.257a5.1,5.1,0,0,1-4.4-2.195,11.984,11.984,0,0,1-.946-5.971c.311-2.514.308-4.714.622-7.228.311-3.457,1.252-6.6,1.876-10.057a115.186,115.186,0,0,1,5.017-15.717c4.7-11.633,10.036-23.263,15.369-34.58l5.336-10.69a4.482,4.482,0,0,0,.627-1.887,4.955,4.955,0,0,0-2.206-4.084c-.627-.627-2.827-1.254-4.4-1.881a14.188,14.188,0,0,0-2.514-.627c-.63,0-.943.63-2.2,1.889L781.216,178c-5.968,6.29-13.19,13.209-18.212,19.5-8.163,9.749-16.953,19.185-25.432,28.618a125.461,125.461,0,0,1-18.839,17.928,3.4,3.4,0,0,1-1.57.316h-.316c0-.313-.314-.943-.316-1.257a13.393,13.393,0,0,1,.627-3.457c1.254-3.143,2.195-6.917,4.392-10.06a174.715,174.715,0,0,1,15.063-25.466c3.452-3.46,6.279-6.919,9.733-10.065l4.711-3.46a4.183,4.183,0,0,1,1.57-.316c.314,0,.63,0,.944.627l5.66,3.768a5.334,5.334,0,0,0,1.57.627,1.633,1.633,0,0,0,1.257-.63c.63-.63,1.57-1.257,1.57-2.2,0-.63-.63-1.257-.63-1.573-.316-1.57-.633-3.454-2.2-4.711-4.09-4.081-10.69-6.276-16.033-6.271-1.257,0-2.2.316-2.827.316a6.043,6.043,0,0,0-3.141.946c-3.143,1.887-5.971,3.146-8.8,6.292-1.257.314-1.57,1.257-2.2,2.2a101.64,101.64,0,0,0-14.442,16.668c-2.511,4.717-5.963,9.746-8.16,14.776a53.177,53.177,0,0,0-5.641,17.287,17.815,17.815,0,0,1,0,4.087v1.57c-.311,2.514.319,5.341,2.519,6.911,3.146,2.827,5.662,5.965,9.749,7.22a21.718,21.718,0,0,0,4.087.627,6.226,6.226,0,0,0,2.2-.316c2.511-.946,5.654-2.206,7.852-4.408,3.454-3.143,7.222-5.976,10.049-9.119a203.7,203.7,0,0,0,14.755-17.925L767.1,205.981c.941-1.887.941-3.771,3.768-4.4v.63a24.528,24.528,0,0,1-3.451,6.287,188.692,188.692,0,0,0-10.031,31.121c0,.627,0,1.57,0,2.514,0,1.57,0,3.457,0,5.027a16.369,16.369,0,0,0,2.208,10.055,25.675,25.675,0,0,0,12.579,10.36,16.741,16.741,0,0,0,7.544,1.879c3.77,0,7.228-1.262,11.625-3.465l10.993-7.552c3.452-4.4,8.163-8.492,11.3-12.265,9.106-9.749,7.775-9.545,16.565-19.921.941-1.573,1.884-3.46,2.824-5.344C833.028,220.587,833.028,219.96,832.712,219.96Z" transform="translate(-181.063 -89.427)" fill="#fb5b76"/>
  </g>
</svg>
