<svg xmlns="http://www.w3.org/2000/svg" width="57.259" height="68.526" viewBox="0 0 57.259 68.526"><defs><style>.a{fill:#edf2f9;}</style></defs><g transform="translate(-492.001 -394.999)"><path class="a" d="M772.682,714.694a9.2,9.2,0,0,0-5.368,1.783c-.306.211-2.051,1.485-4.206,3.063a11.846,11.846,0,0,0-9.336-5.944,7.043,7.043,0,0,0-1.922,0,11.81,11.81,0,0,0-9.332,5.924c-1.844-1.358-3.7-2.717-4.038-2.949a9.328,9.328,0,0,0-5.344-1.766,8.845,8.845,0,0,0-6.936,14.346,6.243,6.243,0,0,0,.678.76,8.554,8.554,0,0,0,1.546,1.23l11.7,8.943v32.3c-.011.2-.012.351-.012.454a13.16,13.16,0,0,0,25.387,0c0-.108,0-.279-.016-.5V740.093l11.924-9.069a8.528,8.528,0,0,0,1.7-1.4c.09-.094.177-.19.234-.258a8.841,8.841,0,0,0-6.662-14.673Z" transform="translate(-232.279 -318.531)"/></g></svg>