<svg xmlns="http://www.w3.org/2000/svg" xmlns:xlink="http://www.w3.org/1999/xlink" width="88.164" height="108.815" viewBox="0 0 88.164 108.815"><defs><style>.a{fill:#fff;}.b{fill:#4f5965;}.c{fill:#ffe5e3;}.d{filter:url(#a);}</style><filter id="a" x="0" y="0" width="88.164" height="108.815" filterUnits="userSpaceOnUse"><feOffset dx="1" dy="1" input="SourceAlpha"/><feGaussianBlur stdDeviation="1" result="b"/><feFlood flood-opacity="0.302"/><feComposite operator="in" in2="b"/><feComposite in="SourceGraphic"/></filter></defs><g transform="translate(2 2)"><g class="d" transform="matrix(1, 0, 0, 1, -2, -2)"><path class="a" d="M729.01,1017.324c-.286,0-.571.01-.855.029a12.687,12.687,0,0,0-13.78-5.31,12.643,12.643,0,0,0-7.029-3.043V994.735a12.7,12.7,0,1,0-25.4,0v29.55a14.009,14.009,0,0,0-22.394,11.221,16.1,16.1,0,0,0,2.671,8.139c2.916,4.887,21.7,34.325,22.443,35.475l.258.361a13.935,13.935,0,0,0,11.026,5.362h22.06c16.944,0,22.622-25.917,23.587-31.113l.08-.433.037-23.268A12.717,12.717,0,0,0,729.01,1017.324Z" transform="translate(-657.55 -980.03)"/></g><g transform="translate(4.309 5.744)"><path class="b" d="M728.448,1021.576a7.781,7.781,0,0,0-3.689.958,7.846,7.846,0,0,0-12.31-5.184,7.842,7.842,0,0,0-10.476-3.307V994.174a7.89,7.89,0,1,0-15.78,0v44.575l-5.575-8.948a9.2,9.2,0,0,0-16.818,5.143,11.6,11.6,0,0,0,1.991,5.672c2.857,4.786,21.443,33.92,22.354,35.33a9.146,9.146,0,0,0,7.24,3.521h22.06c13.409,0,18.337-24.4,18.856-27.179l.036-22.821A7.9,7.9,0,0,0,728.448,1021.576Zm3.56,30.115c-1.285,6.71-6.278,23.45-14.562,23.45h-22.06a4.8,4.8,0,0,1-3.713-1.694c-.192-.3-19.34-30.318-22.17-35.059a8.227,8.227,0,0,1-1.374-3.443,4.868,4.868,0,0,1,8.86-2.786l13.535,21.722V994.174a3.56,3.56,0,1,1,7.121,0v38.474h4.33v-11.563a3.565,3.565,0,1,1,7.13,0v13.342h4.33v-10.651a3.562,3.562,0,0,1,7.123,0v12.429h4.329v-6.737a3.562,3.562,0,1,1,7.123,0Z" transform="translate(-663.8 -986.28)"/><path class="c" d="M731.5,1051.186c-1.285,6.71-6.278,23.451-14.562,23.451h-22.06a4.8,4.8,0,0,1-3.713-1.694c-.193-.3-19.34-30.318-22.17-35.059a8.227,8.227,0,0,1-1.374-3.443,4.868,4.868,0,0,1,8.86-2.786l13.535,21.722V993.669a3.56,3.56,0,1,1,7.121,0v38.474h4.33V1020.58a3.565,3.565,0,1,1,7.13,0v13.342h4.33v-10.65a3.562,3.562,0,0,1,7.123,0V1035.7h4.329v-6.737a3.562,3.562,0,1,1,7.123,0Z" transform="translate(-663.295 -985.775)"/><g transform="translate(4.329 4.33)"><path class="a" d="M717.986,1027.009h4.328v-5.558a3.5,3.5,0,0,0-1.015-.165,3.56,3.56,0,0,0-3.313,2.278Z" transform="translate(-660.979 -985.991)"/><path class="a" d="M707.869,1022.189H712.2v-5.762a3.485,3.485,0,0,0-4.328,2.108Z" transform="translate(-662.314 -986.654)"/><path class="a" d="M691.985,997.456v-7.184a3.471,3.471,0,0,0-1.017-.167,3.566,3.566,0,0,0-3.56,3.564v3.786Z" transform="translate(-665.014 -990.105)"/><path class="a" d="M721.519,1065.453h-22.06a4.8,4.8,0,0,1-3.713-1.693c-.191-.3-19.339-30.317-22.169-35.058a8.219,8.219,0,0,1-1.374-3.443c0-.091.022-.174.027-.263a4.862,4.862,0,0,0-4.606,4.84A8.227,8.227,0,0,0,669,1033.28c2.83,4.74,21.978,34.757,22.17,35.059a4.8,4.8,0,0,0,3.713,1.695h22.06c3.045,0,5.643-2.272,7.779-5.468A6.589,6.589,0,0,1,721.519,1065.453Z" transform="translate(-667.624 -985.501)"/><path class="a" d="M697.744,1019.851h4.328v-5.808a3.482,3.482,0,0,0-4.328,2.114Z" transform="translate(-663.65 -986.968)"/></g></g></g></svg>