<svg xmlns="http://www.w3.org/2000/svg" xmlns:xlink="http://www.w3.org/1999/xlink" width="111.418" height="105.779" viewBox="0 0 111.418 105.779"><defs><style>.a{fill:#fff;}.b{fill:#bacddc;}.c{fill:#edf2f9;}.d{fill:#fb5b76;}.e{fill:#4f5965;}.f{filter:url(#a);}</style><filter id="a" x="0" y="0" width="111.418" height="105.779" filterUnits="userSpaceOnUse"><feOffset dx="1" dy="1" input="SourceAlpha"/><feGaussianBlur stdDeviation="1" result="b"/><feFlood flood-opacity="0.302"/><feComposite operator="in" in2="b"/><feComposite in="SourceGraphic"/></filter></defs><g transform="translate(2 2)"><g class="f" transform="matrix(1, 0, 0, 1, -2, -2)"><path class="a" d="M552.716,905.7l-40.937-68.063v-14.23a6.947,6.947,0,0,0-6.953-6.952h-22.27a6.952,6.952,0,0,0-4.961,11.822l.368.375-.366.373a6.953,6.953,0,0,0,4.959,11.826h13.479l-14.41,24.776-.45-.19a6.909,6.909,0,0,0-8.628,2.736l-23.214,37.446a6.952,6.952,0,0,0,5.909,10.617h91.518a6.954,6.954,0,0,0,5.957-10.534Z" transform="translate(-446.29 -814.46)"/></g><g transform="translate(4.674 4.676)"><path class="a" d="M498.748,837.078,484.72,859.914l4.893,3.7,5-3.588s4.024,4.567,4.35,4.132,4.458-4.241,4.458-4.241l4.567,4.567,5-4.894Z" transform="translate(-447.102 -817.944)"/><path class="a" d="M492.175,822.287l-14.246.217,4.459,5-3.806,5.437,14.681.761Z" transform="translate(-448.249 -820.443)"/><path class="b" d="M516.879,858.872l-2.772,3.052a1.983,1.983,0,0,1-2.934,0l-3.078-3.39-3.077,3.39a2.049,2.049,0,0,1-2.935,0l-3.077-3.39-3.078,3.39a2.049,2.049,0,0,1-2.935,0l-2.764-3.043-5.486,9.432h0l-3.983,6.96a1.98,1.98,0,0,1-2.7.735,1.983,1.983,0,0,1-.737-2.705l2.882-5.034-2.479-1.053-20.443,32.977h84.451Z" transform="translate(-451.739 -814.318)"/><path class="c" d="M509.473,865.8l-2.772,3.052a1.985,1.985,0,0,1-2.935,0l-3.078-3.39-3.077,3.389a2.047,2.047,0,0,1-2.934,0l-3.078-3.39-3.078,3.39a2.05,2.05,0,0,1-2.935,0l-2.762-3.044-5.439-1.94-6.178,10.654-.888-.377L453.5,901.276H530.81Z" transform="translate(-452.379 -813.416)"/><path class="d" d="M483.481,821.822l4.132,5.22-4.567,6.09,15.877.218-.218-11.31Z" transform="translate(-447.385 -820.522)"/><path class="e" d="M547.738,907.546,506.09,838.3v-15.61a1.985,1.985,0,0,0-1.984-1.983h-22.27a1.982,1.982,0,0,0-1.413,3.37l3.786,3.858-3.786,3.858a1.982,1.982,0,0,0,1.413,3.37h20.288v3.152L483,871.2l-4.487-1.905a1.97,1.97,0,0,0-2.46.78l-23.214,37.447a1.982,1.982,0,0,0,1.683,3.027h91.518a1.983,1.983,0,0,0,1.7-3ZM486.56,831.2l1.841-1.876a1.993,1.993,0,0,0,0-2.776l-1.841-1.876h15.564V831.2Zm17.575,11.54,11.412,18.974-2.1,2.318-3.078-3.39a2.05,2.05,0,0,0-2.935,0l-3.078,3.39-3.078-3.39a2.047,2.047,0,0,0-2.934,0l-3.077,3.389-2.14-2.358Zm-46.053,63.842,20.443-32.977L481,874.662l-2.882,5.034a1.982,1.982,0,1,0,3.439,1.97l3.983-6.96h0l5.486-9.432,2.763,3.043a2.049,2.049,0,0,0,2.935,0l3.078-3.39,3.077,3.39a2.049,2.049,0,0,0,2.935,0l3.077-3.39,3.078,3.39a1.983,1.983,0,0,0,2.934,0l2.772-3.052,24.853,41.321Z" transform="translate(-452.54 -820.71)"/></g></g></svg>