<svg xmlns="http://www.w3.org/2000/svg" xmlns:xlink="http://www.w3.org/1999/xlink" width="129.629" height="93.538" viewBox="0 0 129.629 93.538"><defs><style>.a{fill:#fff;}.b{fill:#4f5965;}.c{fill:#fb5b76;}.d{fill:#e6e6e6;}.e{filter:url(#a);}</style><filter id="a" x="0" y="0" width="129.629" height="93.538" filterUnits="userSpaceOnUse"><feOffset dx="1" dy="1" input="SourceAlpha"/><feGaussianBlur stdDeviation="1" result="b"/><feFlood flood-opacity="0.302"/><feComposite operator="in" in2="b"/><feComposite in="SourceGraphic"/></filter></defs><g transform="translate(2 2)"><g class="e" transform="matrix(1, 0, 0, 1, -2, -2)"><path class="a" d="M1080.917,518.134l-5.951-14.584-20.657,8.439,8.682-20.669-14.518-6.107-9.286,22.1V489.959l-70.972,17.313V508.7H957.288v34.483h10.928v1.433l9.809,2.393v25.739H1016.3l-8.366-18.443,31.249,7.623V546.588l8.627,21.114,14.581-5.955-8.438-20.654,20.681,8.682,6.088-14.526-20.567-8.634Z" transform="translate(-955.29 -483.21)"/></g><g transform="translate(7.225 6.021)"><g transform="translate(0 0)"><path class="b" d="M973.975,511.846H963.046v22.441h10.929v2.725l9.809,2.393v24.447H1006.7l-9.616-21.2,35.822,8.738v-56.64l-58.929,14.376Zm-7.219,18.732V515.556h7.219v15.021Zm34.185,29.564H987.495V540.309l5.536,1.352-.391.177Zm-23.257-48.107,51.51-12.562v47.19L977.684,534.1Z" transform="translate(-963.046 -490.221)"/><rect class="c" width="3.709" height="21.787" transform="translate(88.017 40.358) rotate(-67.226)"/><rect class="c" width="21.79" height="3.71" transform="translate(88.187 26.543) rotate(-22.222)"/><rect class="c" width="21.784" height="3.711" transform="translate(79.941 20.08) rotate(-67.19)"/><rect class="c" width="3.71" height="21.79" transform="translate(79.561 46.58) rotate(-22.224)"/></g><path class="a" d="M975.2,511.232l51.51-12.562v47.19L975.2,533.3Z" transform="translate(-960.564 -489.42)"/><path class="d" d="M979.127,527.405v-19.1l-3.925.957v22.065l51.51,12.562v-4.88Z" transform="translate(-960.564 -487.452)"/></g></g></svg>