<svg xmlns="http://www.w3.org/2000/svg" width="49.216" height="85.862" viewBox="0 0 49.216 85.862"><defs><style>.a{fill:#edf2f9;}</style></defs><g transform="translate(-471 -1134)"><path class="a" d="M263.971,627.053l-11.887-16.064a10.456,10.456,0,1,0-15.26,0l-11.885,16.064a5.413,5.413,0,0,0-5.093,5.4v8.542a5.415,5.415,0,0,0,3.84,5.174v5.052q0,.433.017.869a5.393,5.393,0,0,0-1.808,4.03c0,6.714,9.763,23.155,22.559,23.155s22.559-16.441,22.559-23.155a5.4,5.4,0,0,0-1.807-4.031q.016-.434.016-.868v-5.052a5.415,5.415,0,0,0,3.841-5.174V632.45A5.413,5.413,0,0,0,263.971,627.053Z" transform="translate(251.154 540.591)"/></g></svg>