<svg xmlns="http://www.w3.org/2000/svg" xmlns:xlink="http://www.w3.org/1999/xlink" width="107.347" height="84.835" viewBox="0 0 107.347 84.835"><defs><style>.a{fill:#fff;}.b{fill:#3894df;}.c{fill:#fb5b76;}.d{fill:#4f5965;}.e{filter:url(#a);}</style><filter id="a" x="0" y="0" width="107.347" height="84.835" filterUnits="userSpaceOnUse"><feOffset dx="1" dy="1" input="SourceAlpha"/><feGaussianBlur stdDeviation="1" result="b"/><feFlood flood-opacity="0.302"/><feComposite operator="in" in2="b"/><feComposite in="SourceGraphic"/></filter></defs><g transform="translate(2 2)"><g class="e" transform="matrix(1, 0, 0, 1, -2, -2)"><path class="a" d="M932.134,501.063a8.111,8.111,0,0,0-6.671-3.485l-61.531.094-1.042-2.564a8.073,8.073,0,0,0-7.508-5.053H840.338a8.1,8.1,0,0,0,0,16.209h9.589l11.194,27.528a11.426,11.426,0,0,0-6.785,10.436v1.6a11.4,11.4,0,0,0,10.013,11.3c-.014.227-.021.453-.021.683a11.073,11.073,0,0,0,22.147,0c0-.2,0-.4-.015-.6h14.367c-.011.2-.016.4-.016.6a11.076,11.076,0,1,0,22.1-1.122,8.1,8.1,0,0,0-2.031-15.646l12.185-32.518A8.086,8.086,0,0,0,932.134,501.063Z" transform="translate(-830.23 -488.05)"/></g><g transform="translate(6.256 6.256)"><g transform="translate(19.949 9.371)"><path class="a" d="M920.215,502.544,907,537.8H867.514l-14.336-35.258Z" transform="translate(-853.178 -502.544)"/></g><g transform="translate(31.686 17.196)"><path class="b" d="M904.648,536.232l10.28-27.433H862.559l11.154,27.433Z" transform="translate(-862.559 -508.799)"/></g><g transform="translate(32.094 56.688)"><path class="c" d="M867.7,540.363a4.818,4.818,0,1,0,4.818,4.821A4.816,4.816,0,0,0,867.7,540.363Z" transform="translate(-862.885 -540.363)"/></g><g transform="translate(68.578 56.688)"><path class="c" d="M896.863,540.363a4.818,4.818,0,1,0,4.822,4.821A4.816,4.816,0,0,0,896.863,540.363Z" transform="translate(-892.045 -540.363)"/></g><g transform="translate(22.102 42.765)"><path class="d" d="M914.356,541.121H860.024a5.2,5.2,0,0,1-5.125-5.131v-1.6a5.208,5.208,0,0,1,5.125-5.152h45.171a1.849,1.849,0,1,1,0,3.7H860.024a1.519,1.519,0,0,0-1.428,1.455v1.6a1.527,1.527,0,0,0,1.428,1.434h54.332a1.849,1.849,0,0,1,0,3.7Z" transform="translate(-854.899 -529.235)"/></g><path class="d" d="M911.008,541.534H871.52a1.851,1.851,0,0,1-1.713-1.151l-16.925-41.63h-13.8a1.849,1.849,0,1,1,0-3.7h15.042a1.85,1.85,0,0,1,1.713,1.152l2.63,6.471,65.749-.1h0a1.846,1.846,0,0,1,1.732,2.5l-13.211,35.258A1.843,1.843,0,0,1,911.008,541.534Zm-38.245-3.7h36.963l11.827-31.558-61.584.1Z" transform="translate(-837.234 -495.055)"/></g></g></svg>