<svg xmlns="http://www.w3.org/2000/svg" width="74.143" height="67.866" viewBox="0 0 74.143 67.866"><defs><style>.a{fill:#edf2f9;}</style></defs><g transform="translate(-411 -1140)"><path class="a" d="M266.674,508.894a28.158,28.158,0,0,0-13.784-15.179,9.209,9.209,0,0,0-1.027-10.679,10.189,10.189,0,0,0-14.381-.974A11.348,11.348,0,0,0,233.6,489.9a11.55,11.55,0,0,0,0,1.647,28.028,28.028,0,0,0-19.785,17.349,11.241,11.241,0,0,0,.916,22.462,28.3,28.3,0,0,0,51.027,0q.159,0,.317,0a11.242,11.242,0,0,0,.6-22.467Z" transform="translate(207.826 660.457)"/></g></svg>