<svg xmlns="http://www.w3.org/2000/svg" width="81.547" height="58.229" viewBox="0 0 81.547 58.229"><defs><style>.a{fill:#edf2f9;}</style></defs><g transform="translate(-672 -1203)"><path class="a" d="M639.135,1136.339c3.222-1.224,5.239-3.685,5.239-6.645s-2.017-5.422-5.239-6.644c0-7.495-1.669-11.672-2.992-13.809-5.547-7.331-18.3-12.195-33.559-12.195-20.838,0-36.551,8.861-36.551,20.61,0,.392.021.792.06,1.192l0,.966c-.042.437-.062.849-.062,1.253s.021.813.06,1.22v4.408a6.79,6.79,0,0,0-3.266,5.65,6.711,6.711,0,0,0,3.3,5.676l1.317,2.545c4.328,8.773,18.218,14.709,35.138,14.709s30.809-5.936,35.137-14.709Z" transform="translate(109.174 105.954)"/></g></svg>