<svg xmlns="http://www.w3.org/2000/svg" width="79.957" height="45.831" viewBox="0 0 79.957 45.831"><defs><style>.a{fill:#edf2f9;}</style></defs><g transform="translate(-666 -271)"><path class="a" d="M806.784,850.193l.462-.462-2.046-2.245-.009-.01a9.864,9.864,0,0,0-.851-.933l-16.795-18.411H776.6V837.6h6.769l5.122,5.615c-4.18.3-9.986,1.27-14.169,4.133l-6.154-3.176-5.994,3.2c-4.185-2.877-10.008-3.847-14.2-4.151L753.1,837.6h6.767v-9.469H748.917l-16.791,18.409a9.931,9.931,0,0,0-.852.934l-2.106,2.317.487.463a23.923,23.923,0,0,0-1.4,9.051c0,4.561,1.226,8,3.751,10.523,4.151,4.134,10.675,4.134,14.993,4.134l2.17-.005a17.855,17.855,0,0,0,18.083-17.563c0-.329-.014-.656-.044-.979l1.031-.55,1.023.528q-.047.5-.047,1a17.854,17.854,0,0,0,18.078,17.563l2.177.005c4.318,0,10.843,0,14.993-4.135,2.523-2.516,3.75-5.958,3.75-10.522A23.808,23.808,0,0,0,806.784,850.193Z" transform="translate(-62.254 -557.132)"/></g></svg>