<svg xmlns="http://www.w3.org/2000/svg" xmlns:xlink="http://www.w3.org/1999/xlink" width="65.801" height="123.39" viewBox="0 0 65.801 123.39"><defs><style>.a{fill:#fff;}.b{fill:#f1c14f;}.c{fill:#feee00;}.d{fill:#4f5965;}.e{filter:url(#a);}</style><filter id="a" x="0" y="0" width="65.801" height="123.39" filterUnits="userSpaceOnUse"><feOffset dx="1" dy="1" input="SourceAlpha"/><feGaussianBlur stdDeviation="1" result="b"/><feFlood flood-opacity="0.302"/><feComposite operator="in" in2="b"/><feComposite in="SourceGraphic"/></filter></defs><g transform="translate(2 2)"><g class="e" transform="matrix(1, 0, 0, 1, -2, -2)"><path class="a" d="M1045.561,780.33a22.234,22.234,0,0,0-3.275-4.667,26.573,26.573,0,0,0-3.5-3.315,6.775,6.775,0,0,0-2.818-1.322l-2.162-1.07c.8-2.953,1.637-6.2,2.263-9.618,2.467-13.5-4.128-22.391-8.426-25.521l-7.886-5.717a34.71,34.71,0,0,0-7.7-12.2L996.8,702.731l4.25,20.148c2.3,10.923.432,13.269-3.295,17.944a47.636,47.636,0,0,0-6.033,9.1c-7.062,14.388,1.943,29.1,2.326,29.715l2.593,4.167a33.294,33.294,0,0,0-1.7,7.509,26.1,26.1,0,0,0,6.12,19.406,26.484,26.484,0,0,0,18.419,9.328c.665.049,1.344.074,2.019.074a27.455,27.455,0,0,0,27.219-24.669A26.121,26.121,0,0,0,1045.561,780.33Z" transform="translate(-987.03 -700.73)"/></g><g transform="translate(4.361 13.076)"><path class="b" d="M1023.37,737.593a21.886,21.886,0,0,1,5.418,18.122l-4.857,18.868.187,4.3,2.428,3.736a14.019,14.019,0,0,0,3.55.56,15.934,15.934,0,0,0,2.989-2.055l1.121-6.725,4.3,5.418s10.275,17.373-11.769,29.516c0,0-25.407,6.913-26.341-21.109l3.176-10.274,6.911-10.649,5.418-7.659,4.67-5.791,1.308-4.67.935-7.285Z" transform="translate(-992.636 -712.603)"/><path class="c" d="M1007.58,721.306s12.89,8.593,1.869,30.451c0,0-9.528,12.143-10.835,19.054,0,0-8.22-8.22.934-24.659C999.548,746.152,1010.2,735.13,1007.58,721.306Z" transform="translate(-993.099 -714.063)"/><path class="c" d="M1000.392,786.531c.934,28.022,26.341,21.109,26.341,21.109,1.156-.636,2.215-1.289,3.2-1.951a19.713,19.713,0,0,0,.454-2.673,19.332,19.332,0,0,0-2.363-11.229,15.512,15.512,0,0,0-1.234-1.986,8.243,8.243,0,0,1-1.767,4.138c-1.929,2.271-5.074,2.871-8.631,1.642-6.746-2.331-4.593-10.193-2.1-19.3.953-3.487,2.02-7.385,2.746-11.355a23.422,23.422,0,0,0,.082-8.5l-1.223,1.517-2.416,3.415a36.746,36.746,0,0,1-4.178,7.129l-1.7,2.223c-.965,1.263-1.988,2.6-3.031,3.987l-1.008,1.554Z" transform="translate(-992.636 -710.915)"/><path class="d" d="M1001.275,774.959c.38-7.879,2.477-10.643,5.652-14.83a63.5,63.5,0,0,0,6.724-10.484c8.852-17.486-4.977-30.626-5.119-30.757l-4.552-4.229,1.237,5.861c2.753,13.06-.166,16.721-4.206,21.789a43.122,43.122,0,0,0-5.5,8.251c-5.937,12.1,1.769,24.7,2.1,25.226l3.359,5.4Zm8.881-47.332a21.639,21.639,0,0,1-.059,20.473,59.721,59.721,0,0,1-6.384,9.938c-2.326,3.068-4.229,5.577-5.348,9.693-1.315-4.391-1.972-10.177.722-15.665a39.559,39.559,0,0,1,5.081-7.6C1007.464,740.336,1010.592,736.412,1010.156,727.627Z" transform="translate(-993.274 -714.659)"/><path class="d" d="M1040.633,779.579a17.521,17.521,0,0,0-2.645-3.773,21.757,21.757,0,0,0-2.921-2.772,2.163,2.163,0,0,0-1.324-.471l-3.245-1.606,1.278,4.13c.689,2.221.451,4.7-.564,5.9-.728.859-1.925.983-3.655.387-2.9-1-1.717-5.916.455-13.85.906-3.308,1.933-7.058,2.648-10.966,2.574-14.093-6.211-20.665-6.587-20.938l-5.031-3.647,1.95,5.634c2.963,8.556-2.838,17.167-4.687,19.6-.5.66-1.033,1.357-1.589,2.081-3.784,4.949-8.5,11.109-11.68,16.722a33.154,33.154,0,0,0-4.332,12.772,21.507,21.507,0,0,0,5.042,15.989,21.887,21.887,0,0,0,15.225,7.7c.557.04,1.121.061,1.678.061a22.788,22.788,0,0,0,22.606-20.459A21.5,21.5,0,0,0,1040.633,779.579Zm-14.452,5.194c3.346,1.157,6.3.593,8.119-1.544a7.744,7.744,0,0,0,1.662-3.892,14.486,14.486,0,0,1,1.16,1.869,18.183,18.183,0,0,1,2.223,10.561,18.951,18.951,0,0,1-18.695,17.132c-.454,0-.914-.017-1.367-.051a18.07,18.07,0,0,1-16.667-19.76,30.067,30.067,0,0,1,3.9-11.387c3.062-5.4,7.689-11.451,11.407-16.313l1.6-2.091c1.4-1.847,5.656-8,6.174-15.272a20.251,20.251,0,0,1,1.1,11.92c-.682,3.733-1.686,7.4-2.582,10.678C1021.862,775.187,1019.838,782.582,1026.182,784.773Z" transform="translate(-992.796 -713.108)"/></g></g></svg>