<svg xmlns="http://www.w3.org/2000/svg" xmlns:xlink="http://www.w3.org/1999/xlink" width="95.524" height="108.343" viewBox="0 0 95.524 108.343"><defs><filter id="a" x="0" y="0" width="95.524" height="108.343" filterUnits="userSpaceOnUse"><feOffset dx="1" dy="1" input="SourceAlpha"/><feGaussianBlur stdDeviation="1" result="b"/><feFlood flood-opacity="0.302"/><feComposite operator="in" in2="b"/><feComposite in="SourceGraphic"/></filter></defs><g transform="translate(2 2)"><g transform="matrix(1, 0, 0, 1, -2, -2)" filter="url(#a)"><path d="M856.262,983.3c3.143-4.818,1.608-10.621.63-14.317a20.494,20.494,0,0,1-.833-4.084c0-14.316-8.972-24.859-22.871-26.9a26.47,26.47,0,0,0-10.376,0c-13.892,2.043-22.859,12.588-22.859,26.9a24.191,24.191,0,0,1-.692,4.331c-.834,3.89-2,9.347.71,13.995a24.339,24.339,0,0,0-16.729,23.089v33.514h89.525v-33.514A24.339,24.339,0,0,0,856.262,983.3Z" transform="translate(-781.24 -935.48)" fill="#fff"/></g><g transform="translate(5.587 4.471)"><ellipse cx="19.415" cy="19.415" rx="19.415" ry="19.415" transform="translate(20.083 2.905)" fill="#fff"/><g transform="translate(23.053 1.103)"><path d="M808.121,960.235a17.516,17.516,0,1,1,17.515,17.516A17.514,17.514,0,0,1,808.121,960.235Z" transform="translate(-808.121 -942.721)" fill="#ffe5e3"/></g><g transform="translate(2.003 46.542)"><path d="M847.762,983.378h-3.31c-3.224,6.193-9.7,16.431-17.157,16.431s-13.931-10.238-17.159-16.431H806.83a17.545,17.545,0,0,0-17.544,17.541v26.759H865.3v-26.759A17.547,17.547,0,0,0,847.762,983.378Z" transform="translate(-789.286 -983.378)" fill="#fff"/></g><g transform="translate(8.009 47.602)"><path d="M864.671,1027.567v-26.759a17.432,17.432,0,0,0-2.518-9.018c-2.639-1.588-4.529-6.844-7.83-6.844l-7.868-.619c-4.711,4.8-8.169,8.541-13.984,13.216-6.648,5.342-11.357-2.382-16.069-6.806a19.319,19.319,0,0,1-2.036-1.464H812.2a17.546,17.546,0,0,0-17.543,17.542v20.753Z" transform="translate(-794.66 -984.326)" fill="#3894df"/></g><g transform="translate(31.618 1.501)"><path d="M815.785,947.058v3.98l7.8,7.323,2.844-.249,1.3-4.367,3.661,3.979,12.736.8L840.3,949.6l-10.668-6.527-9.711,1.274Z" transform="translate(-815.785 -943.077)" fill="#f1c14f"/></g><g transform="translate(48.97 24.586)"><path d="M841.818,963.732l-2.866,7.164-7.642,8.915,5.572.318,8.916-3.184.8-6.526Z" transform="translate(-831.311 -963.732)" fill="#f1c14f"/></g><g transform="translate(17.29 26.655)"><path d="M819.52,979.752l-9.87-7.163-5.094-7.006-1.592,7.96,2,4.62,8.025,2.226Z" transform="translate(-802.964 -965.584)" fill="#f1c14f"/></g><g transform="translate(0 44.538)"><path d="M867.516,1029.889H787.494v-28.762a19.565,19.565,0,0,1,19.544-19.541h.738L827.5,998.409l19.736-16.823h.735a19.564,19.564,0,0,1,19.543,19.541Zm-76.018-4h72.015v-24.759a15.557,15.557,0,0,0-14.82-15.521L827.5,1003.667l-21.182-18.062a15.559,15.559,0,0,0-14.822,15.521Z" transform="translate(-787.494 -981.585)" fill="#4f5965"/></g><g transform="translate(10.731 47.351)"><g transform="translate(56.553)"><rect width="2.001" height="43.018" fill="#4f5965"/></g><rect width="2.002" height="43.018" fill="#4f5965"/></g><g transform="translate(17.255 70.586)"><path d="M812.138,1018.2a13.237,13.237,0,0,1-9.2-3.7l2.769-2.889a9.306,9.306,0,0,0,15.742-6.722h4a13.309,13.309,0,0,1-13.31,13.31Z" transform="translate(-802.933 -1004.891)" fill="#54afed"/><g transform="translate(23.616)"><path d="M833.269,1018.2a13.234,13.234,0,0,1-9.2-3.7l2.768-2.889a9.305,9.305,0,0,0,15.742-6.722h4A13.323,13.323,0,0,1,833.269,1018.2Z" transform="translate(-824.064 -1004.891)" fill="#54afed"/></g></g><g transform="translate(15.038 0.125)"><path d="M814.809,985.311c-4.126,0-8-.535-10.843-2.786h0c-4.178-3.3-3.095-8.355-2.139-12.817a26.858,26.858,0,0,0,.8-5.322c0-13.693,9.144-22.54,23.3-22.54s23.3,8.847,23.3,22.54a22.45,22.45,0,0,0,.991,5.3c1.091,4.122,2.328,8.791-1.33,12-4.379,3.841-11.386,3.576-18.167,3.315-3.405-.128-6.538-.122-10.144.087C818.648,985.2,816.7,985.311,814.809,985.311Zm11.11-39.461c-14.224,0-19.292,9.573-19.292,18.536a30.167,30.167,0,0,1-.886,6.16c-.943,4.407-1.367,7.2.705,8.838h0c2.957,2.338,8.517,2.018,13.9,1.7,3.5-.2,6.947-.226,10.527-.089,5.989.227,12.194.463,15.375-2.323,1.673-1.466,1.154-3.988.1-7.966a25.4,25.4,0,0,1-1.127-6.324C845.22,955.424,840.151,945.85,825.919,945.85Z" transform="translate(-800.95 -941.846)" fill="#4f5965"/></g><g transform="translate(18.462)"><path d="M825.559,984.824a21.545,21.545,0,1,1,21.547-21.543A21.569,21.569,0,0,1,825.559,984.824Zm0-39.088A17.542,17.542,0,1,0,843.1,963.281,17.565,17.565,0,0,0,825.559,945.736Z" transform="translate(-804.013 -941.734)" fill="#4f5965"/><g transform="translate(9.814 4.266)"><path d="M837.193,959.864a13.1,13.1,0,0,1-7.654-2.756c-.267-.194-.518-.395-.757-.6v3.013l-1.673.278c-.417.066-4.18.581-8.673-2.687-4.586-3.337-5.6-10.72-5.643-11.033l3.97-.524c.224,1.661,1.383,6.395,4.028,8.319a10.28,10.28,0,0,0,3.988,1.846v-2.556l-.186-5.67,4-.135c0,.032.222,4.277,3.3,6.515,3.135,2.282,5.586,1.986,5.69,1.97l.3-.021h4.669v4h-4.541A7.74,7.74,0,0,1,837.193,959.864Z" transform="translate(-812.794 -945.551)" fill="#4f5965"/></g></g><g transform="translate(32.527 21.8)"><path d="M816.6,963.485a2.246,2.246,0,1,1,2.243,2.248A2.246,2.246,0,0,1,816.6,963.485Z" transform="translate(-816.598 -961.24)" fill="#4f5965"/><g transform="translate(10.478)"><path d="M825.973,963.485a2.246,2.246,0,1,1,2.245,2.248A2.243,2.243,0,0,1,825.973,963.485Z" transform="translate(-825.973 -961.24)" fill="#4f5965"/></g></g></g></g></svg>