<svg xmlns="http://www.w3.org/2000/svg" xmlns:xlink="http://www.w3.org/1999/xlink" width="45.423" height="123.027" viewBox="0 0 45.423 123.027"><defs><style>.a{fill:#fff;}.b{fill:#fb5b76;}.c{fill:#f1c14f;}.d{fill:#4f5965;}.e{filter:url(#a);}</style><filter id="a" x="0" y="0" width="45.423" height="123.027" filterUnits="userSpaceOnUse"><feOffset dx="1" dy="1" input="SourceAlpha"/><feGaussianBlur stdDeviation="1" result="b"/><feFlood flood-opacity="0.302"/><feComposite operator="in" in2="b"/><feComposite in="SourceGraphic"/></filter></defs><g transform="translate(2 2)"><g class="e" transform="matrix(1, 0, 0, 1, -2, -2)"><path class="a" d="M387.566,864.61h-1.617c4.2-4,8.489-10.146,8.489-18.591,0-14.5-14.12-29.649-15.724-31.323a6.52,6.52,0,0,0-11.138,5.611c.447,2.612.3,7.382-1.127,9.169a23.409,23.409,0,0,1-3.132,3c-3.5,2.97-8.3,7.037-8.3,16.012,0,6.637,4.438,12.2,8.934,16.127h-1.814a6.529,6.529,0,0,0-6.523,6.521v52.051a6.53,6.53,0,0,0,6.523,6.522h25.431a6.529,6.529,0,0,0,6.52-6.522V871.131A6.528,6.528,0,0,0,387.566,864.61Z" transform="translate(-353.01 -810.68)"/></g><g transform="translate(4.437 5.547)"><path class="a" d="M374.084,820.008s29.259,25.843,1.164,43.569c0,0-17.261-8.434-14.165-19.268C361.083,844.309,375.787,826.2,374.084,820.008Z" transform="translate(-359.108 -816.599)"/><g transform="translate(0)"><rect class="a" width="24.922" height="52.229" transform="translate(2.749 54.105)"/><path class="b" d="M362.663,877.239l10.846-11.3,10.732-.565-22.708,22.707Z" transform="translate(-359.018 -811.641)"/><path class="b" d="M362.334,896.715l24.4-24.515.113,11.75-25.419,24.74Z" transform="translate(-359.029 -810.895)"/><path class="b" d="M363.57,914.289,386.5,890.227l-.113,11.749-13.9,12.992Z" transform="translate(-358.796 -808.925)"/><path class="c" d="M368.865,844.03c-2.377,2.017-4.255,3.608-4.255,7.671,0,3.976,4.8,8.076,8.062,10.283v-9.853a1.075,1.075,0,0,1,2.15,0V862.2c2.682-1.742,7.865-5.946,7.865-12.457,0-6.136-4.793-13.176-7.948-17.144-.088,2.591-.636,5.809-2.5,8.143A23.5,23.5,0,0,1,368.865,844.03Z" transform="translate(-358.682 -815.223)"/><path class="d" d="M387.1,868.861H375.739V865.44c2.314-1.21,13.518-7.692,13.518-19.887,0-12.9-13.829-27.451-14.418-28.065a1.8,1.8,0,0,0-3.079,1.556c.4,2.356.82,9.275-2.1,12.916A27.159,27.159,0,0,1,365.9,835.6c-3.262,2.765-6.636,5.626-6.636,12.415,0,8.489,10.992,15.57,13.766,17.22v3.623H361.669a1.8,1.8,0,0,0-1.8,1.8v52.051a1.8,1.8,0,0,0,1.8,1.806H387.1a1.8,1.8,0,0,0,1.8-1.806V870.666A1.8,1.8,0,0,0,387.1,868.861Zm-24.226-20.843c0-5.117,2.366-7.122,5.36-9.662a29.748,29.748,0,0,0,4.245-4.141c2.354-2.941,3.044-6.993,3.154-10.258,3.974,5,10.011,13.865,10.011,21.6,0,8.2-6.528,13.5-9.907,15.691V848.559a1.353,1.353,0,1,0-2.707,0V860.97C368.918,858.19,362.876,853.025,362.876,848.018Zm22.421,72.9H363.473V872.47H385.3Z" transform="translate(-359.266 -816.935)"/></g></g></g></svg>