<svg xmlns="http://www.w3.org/2000/svg" width="53.446" height="66.879" viewBox="0 0 53.446 66.879"><defs><style>.a{fill:#edf2f9;}</style></defs><g transform="translate(-518.999 -395)"><path class="a" d="M704.732,1004.988c-.186,0-.371.007-.556.019a8.252,8.252,0,0,0-8.964-3.454,8.224,8.224,0,0,0-4.572-1.979v-9.28a8.262,8.262,0,1,0-16.525,0v19.221a9.112,9.112,0,0,0-14.567,7.3,10.472,10.472,0,0,0,1.738,5.294c1.9,3.179,14.116,22.328,14.6,23.076l.168.235a9.064,9.064,0,0,0,7.172,3.488h14.35c11.022,0,14.715-16.859,15.343-20.238l.052-.281.024-15.135A8.272,8.272,0,0,0,704.732,1004.988Z" transform="translate(-140.549 -587.028)"/></g></svg>