<svg xmlns="http://www.w3.org/2000/svg" width="68.572" height="64.904" viewBox="0 0 68.572 64.904"><defs><style>.a{fill:#edf2f9;}</style></defs><g transform="translate(-474 -528)"><path class="a" d="M516.216,874.511l-26.629-44.273v-9.256a4.519,4.519,0,0,0-4.523-4.522H470.579a4.522,4.522,0,0,0-3.227,7.69l.24.244-.238.242a4.523,4.523,0,0,0,3.226,7.692h8.768l-9.374,16.116-.293-.124a4.494,4.494,0,0,0-5.613,1.779l-15.1,24.358a4.522,4.522,0,0,0,3.844,6.906h59.53a4.523,4.523,0,0,0,3.875-6.852Z" transform="translate(25.711 -288.459)"/></g></svg>