<svg xmlns="http://www.w3.org/2000/svg" width="62.41" height="67.382" viewBox="0 0 62.41 67.382"><defs><style>.a{fill:#edf2f9;}</style></defs><g transform="translate(-2 -215)"><path class="a" d="M657.845,939.864H651.3v-6.291c.018-.664.018-1.3,0-1.936v-1.673a17.7,17.7,0,0,0-2.436-8.915c-2.328-4.668-7.379-10.107-18.283-9.815a18.683,18.683,0,0,0-12.849,4.982,18.253,18.253,0,0,0-6.493,13.3,47.216,47.216,0,0,0-.58,10.352H606.3a5.426,5.426,0,0,0-5.35,6.36l5.631,32.381H657.29l.592-3.4,4.879-25.9.128-.542.332-2.707a5.5,5.5,0,0,0,.054-.765v0A5.438,5.438,0,0,0,657.845,939.864Z" transform="translate(-598.865 -696.223)"/></g></svg>