<svg xmlns="http://www.w3.org/2000/svg" xmlns:xlink="http://www.w3.org/1999/xlink" width="128.92" height="76.458" viewBox="0 0 128.92 76.458"><defs><style>.a{fill:#fff;}.b{fill:#bacddc;}.c{fill:#4f5965;}.d{filter:url(#a);}</style><filter id="a" x="0" y="0" width="128.92" height="76.458" filterUnits="userSpaceOnUse"><feOffset dx="1" dy="1" input="SourceAlpha"/><feGaussianBlur stdDeviation="1" result="b"/><feFlood flood-opacity="0.302"/><feComposite operator="in" in2="b"/><feComposite in="SourceGraphic"/></filter></defs><g transform="translate(2 2)"><g class="d" transform="matrix(1, 0, 0, 1, -2, -2)"><path class="a" d="M848.981,862.047l.711-.711-3.145-3.451-.014-.015a15.15,15.15,0,0,0-1.308-1.435l-25.819-28.3h-16.83v14.557h10.406l7.874,8.632c-6.426.467-15.352,1.952-21.783,6.353l-9.46-4.883L780.4,857.7c-6.434-4.423-15.386-5.914-21.825-6.382l7.873-8.632h10.4V828.132H760.02l-25.813,28.3a15.26,15.26,0,0,0-1.309,1.436l-3.237,3.563.749.712c-1.462,3.551-2.156,8.09-2.156,13.915,0,7.011,1.884,12.3,5.766,16.177,6.381,6.356,16.411,6.356,23.049,6.356l3.336-.008a27.45,27.45,0,0,0,27.8-27c0-.506-.022-1.009-.068-1.5l1.585-.845,1.573.812q-.073.761-.072,1.538a27.448,27.448,0,0,0,27.792,27l3.346.008c6.637,0,16.669,0,23.049-6.357,3.879-3.867,5.764-9.159,5.764-16.176C851.174,870.18,850.468,865.612,848.981,862.047Z" transform="translate(-726.25 -826.13)"/></g><g transform="translate(4.601 4.601)"><g transform="translate(2.975 27.618)"><path class="b" d="M747.88,856.393c-2.168,0-8.669,1.433-10.422,1.594-1.611,2.7-2.366,6.786-2.366,12.95,0,16.458,12.785,15.635,25.51,15.635a22.413,22.413,0,0,0,4.362-.428c4.315-3.894,9.988-9.916,9.988-15.372C774.952,860.775,760.6,856.393,747.88,856.393Z" transform="translate(-735.092 -856.393)"/></g><g transform="translate(46.294 25.291)"><path class="c" d="M793.3,864.268h-1.579L783,859.763l-8.45,4.505h-1.8v-4.776h.6l9.607-5.122,9.923,5.122h.417Z" transform="translate(-772.75 -854.37)"/></g><g transform="translate(65.358 25.381)"><path class="b" d="M834.716,872.1c0-16.047-5.241-17.653-17.651-17.653s-27.742,3.427-27.742,13.178a20.168,20.168,0,0,0,20.521,19.72C822.255,887.346,834.716,888.149,834.716,872.1Z" transform="translate(-789.323 -854.448)"/></g><g transform="translate(72.58 25.826)"><path d="M818.1,854.835c-4.974,0-14.791,2.526-19.528,3.815a8.779,8.779,0,0,0-2.969,6.511,20.167,20.167,0,0,0,20.521,19.721,89.729,89.729,0,0,0,12.5-.478c1.72-2.243,4.945-5.634,4.945-10.185C833.563,858.172,830.508,854.835,818.1,854.835Z" transform="translate(-795.601 -854.835)"/></g><g transform="translate(62.969 22.991)"><path class="c" d="M813.493,890.055c-.553,0-1.1,0-1.652-.006l-1.686,0a22.549,22.549,0,0,1-22.909-22.109c0-11.491,16.232-15.566,30.13-15.566,13.856,0,20.039,2.894,20.039,20.042,0,5.651-1.415,9.809-4.326,12.712C828.443,889.754,820.954,890.055,813.493,890.055Zm3.884-32.907c-12.212,0-25.354,3.376-25.354,10.79a17.766,17.766,0,0,0,18.133,17.333l1.7,0c7.347.038,14.277.043,17.86-3.529,1.968-1.965,2.924-5.015,2.924-9.33C832.639,857.884,828.719,857.147,817.377,857.147Z" transform="translate(-787.246 -852.371)"/></g><g transform="translate(3.352)"><path class="c" d="M738.946,863.76l-3.527-3.22L761.1,832.384h9.779v4.775h-7.67Z" transform="translate(-735.42 -832.384)"/></g><g transform="translate(74.322)"><path class="c" d="M829.05,863.76l-24.262-26.6h-7.673v-4.775h9.779L832.58,860.54Z" transform="translate(-797.115 -832.384)"/></g><g transform="translate(9.61 26.446)"><path d="M753.328,855.374c-2.114,0-8.453,1.4-10.161,1.554-1.571,2.633-2.308,6.617-2.308,12.626,0,16.048,12.465,15.246,24.872,15.246a21.839,21.839,0,0,0,4.253-.418c4.208-3.8,9.74-9.668,9.74-14.988C779.725,859.645,765.735,855.374,753.328,855.374Z" transform="translate(-740.86 -855.374)"/></g><g transform="translate(0 22.991)"><path class="c" d="M756.429,890.055c-7.462,0-14.949-.3-19.6-4.929-2.91-2.906-4.327-7.062-4.327-12.712,0-17.148,6.182-20.042,20.04-20.042,13.9,0,30.129,4.076,30.129,15.566a22.549,22.549,0,0,1-22.909,22.109l-1.685,0C757.531,890.051,756.982,890.055,756.429,890.055Zm-3.884-32.907c-11.341,0-15.264.737-15.264,15.266,0,4.315.957,7.366,2.924,9.33,3.584,3.572,10.513,3.567,17.86,3.529l1.7,0A17.766,17.766,0,0,0,777.9,867.937C777.9,860.523,764.755,857.147,752.546,857.147Z" transform="translate(-732.506 -852.371)"/></g></g></g></svg>