<svg xmlns="http://www.w3.org/2000/svg" width="53.253" height="72.313" viewBox="0 0 53.253 72.313"><defs><style>.a{fill:#edf2f9;}</style></defs><g transform="translate(-466 -1149)"><path class="a" d="M622.621,604.009h-.464c-14.305,0-26.391,11.662-26.391,25.467,0,9.552,5.407,16.148,8.639,20.091.561.684,1.382,1.685,1.7,2.174a13.744,13.744,0,0,1,.257,1.6,9.586,9.586,0,0,0,2.3,5.7v17.276h27.464V659.04a9.547,9.547,0,0,0,2.294-5.695,13.257,13.257,0,0,1,.257-1.6c.314-.487,1.131-1.483,1.7-2.176,3.234-3.942,8.646-10.541,8.646-20.1C649.02,615.671,636.93,604.009,622.621,604.009Z" transform="translate(-129.766 544.991)"/></g></svg>