<svg xmlns="http://www.w3.org/2000/svg" xmlns:xlink="http://www.w3.org/1999/xlink" width="82.176" height="109.438" viewBox="0 0 82.176 109.438"><defs><style>.a{fill:#fff;}.b{fill:#bacddc;}.c{fill:#4f5965;}.d{filter:url(#a);}</style><filter id="a" x="0" y="0" width="82.176" height="109.438" filterUnits="userSpaceOnUse"><feOffset dx="1" dy="1" input="SourceAlpha"/><feGaussianBlur stdDeviation="1" result="b"/><feFlood flood-opacity="0.302"/><feComposite operator="in" in2="b"/><feComposite in="SourceGraphic"/></filter></defs><g transform="translate(2 2)"><g class="d" transform="matrix(1, 0, 0, 1, -2, -2)"><path class="a" d="M634.18,604.009h-.663c-20.463,0-37.751,16.682-37.751,36.43,0,13.663,7.735,23.1,12.358,28.739.8.978,1.977,2.411,2.429,3.11a19.674,19.674,0,0,1,.367,2.289c.22,1.833.644,5.353,3.291,8.157v24.713H653.5V682.728c2.647-2.8,3.064-6.316,3.282-8.146a18.956,18.956,0,0,1,.367-2.284c.449-.7,1.618-2.122,2.429-3.112,4.626-5.639,12.367-15.078,12.367-28.747C671.943,620.691,654.65,604.009,634.18,604.009Z" transform="translate(-593.77 -602.01)"/></g><g transform="translate(6.401 6.402)"><g transform="translate(3.812 3.813)"><path class="a" d="M631.28,611.987c-14.925,0-27.536,12-27.536,26.214,0,10.01,5.805,17.092,10.043,22.262,2.1,2.558,3.751,4.58,4.273,6.467a26.778,26.778,0,0,1,.764,4.188c.279,2.324.352,2.457,1.53,2.836,3.156,1.019,19.361,1.019,22.516,0,1.182-.379,1.252-.51,1.529-2.821a26.128,26.128,0,0,1,.773-4.21c.52-1.881,2.173-3.9,4.269-6.453,4.241-5.171,10.05-12.253,10.05-22.27,0-14.21-12.616-26.214-27.546-26.214Z" transform="translate(-603.744 -611.987)"/></g><g transform="translate(17.158 9.203)"><path class="b" d="M643.609,616.2c-15.532,0-29.441,12.584-29.441,28.122s13.061,24.432,14.383,29.235c.155.552.269,1.069.364,1.559,4.961-.009,9.877-.292,11.617-.854,3.543-1.134,2.214-3.533,3.553-8.333s14.39-13.7,14.39-29.235a27.335,27.335,0,0,0-9.042-20.01,29.033,29.033,0,0,0-5.159-.485Z" transform="translate(-614.168 -616.197)"/></g><path class="c" d="M632.448,679.375c-5.228,0-10.453-.317-12.429-.958-3.561-1.145-3.858-3.616-4.145-6.009a23.18,23.18,0,0,0-.656-3.627c-.306-1.111-1.881-3.032-3.547-5.064-4.343-5.3-10.905-13.307-10.905-24.681,0-16.278,14.356-30.028,31.348-30.028h.664c17,0,31.359,13.75,31.359,30.028,0,11.378-6.57,19.388-10.915,24.687-1.663,2.031-3.237,3.949-3.544,5.058a22.872,22.872,0,0,0-.659,3.641c-.284,2.385-.58,4.853-4.147,6C642.9,679.058,637.673,679.375,632.448,679.375Zm-.333-66.553c-14.925,0-27.536,12-27.536,26.214,0,10.01,5.805,17.092,10.043,22.262,2.1,2.558,3.751,4.58,4.273,6.467a26.775,26.775,0,0,1,.764,4.188c.279,2.324.352,2.457,1.53,2.836,3.156,1.019,19.361,1.019,22.516,0,1.182-.379,1.252-.51,1.529-2.821a26.13,26.13,0,0,1,.773-4.21c.52-1.881,2.173-3.9,4.269-6.453,4.241-5.172,10.05-12.253,10.05-22.27,0-14.21-12.616-26.214-27.546-26.214Z" transform="translate(-600.767 -609.009)"/><g transform="translate(18.444 73.252)"><rect class="c" width="26.483" height="3.813"/></g><g transform="translate(18.444 80.035)"><rect class="c" width="26.483" height="3.813"/></g><g transform="translate(18.444 86.822)"><rect class="c" width="26.483" height="3.813"/></g></g></g></svg>