<svg xmlns="http://www.w3.org/2000/svg" xmlns:xlink="http://www.w3.org/1999/xlink" width="96.947" height="109.975" viewBox="0 0 96.947 109.975"><defs><style>.a{fill:#fff;}.b{fill:#ffe5e3;}.c{fill:#fb5b76;}.d{fill:#bacddc;}.e{fill:#4f5965;}.f{filter:url(#a);}</style><filter id="a" x="0" y="0" width="96.947" height="109.975" filterUnits="userSpaceOnUse"><feOffset dx="1" dy="1" input="SourceAlpha"/><feGaussianBlur stdDeviation="1" result="b"/><feFlood flood-opacity="0.302"/><feComposite operator="in" in2="b"/><feComposite in="SourceGraphic"/></filter></defs><g transform="translate(2 2)"><g class="f" transform="matrix(1, 0, 0, 1, -2, -2)"><path class="a" d="M849.735,1096.658h-1.58a26.713,26.713,0,1,0-38.43,0h-1.582a24.705,24.705,0,0,0-24.677,24.676v34.046h90.947v-34.046A24.705,24.705,0,0,0,849.735,1096.658Z" transform="translate(-781.47 -1049.41)"/></g><g transform="translate(4.536 4.536)"><g transform="translate(19.968 1.277)"><path class="b" d="M805.327,1076.763a19.98,19.98,0,1,1,19.98,19.979A19.979,19.979,0,0,1,805.327,1076.763Z" transform="translate(-805.327 -1056.783)"/></g><g transform="translate(1.1 47.286)"><path class="a" d="M848.1,1097.357H844.74a19.643,19.643,0,0,1-34.868,0h-3.358a17.827,17.827,0,0,0-17.826,17.825v27.187h77.237v-27.187A17.828,17.828,0,0,0,848.1,1097.357Z" transform="translate(-788.688 -1097.357)"/></g><g transform="translate(8.222 46.413)"><path class="c" d="M866.1,1142.472v-27.187a17.7,17.7,0,0,0-2.558-9.164c-2.68-1.615-4.6-6.956-7.955-6.956l-9.978-2.578c-3.277,6.294-4.645,11.31-12.224,11.31-6.964,0-12.836,2.614-16.328-2.847a19.528,19.528,0,0,1-2.069-1.488h-2.2a17.827,17.827,0,0,0-17.826,17.824v21.086Z" transform="translate(-794.969 -1096.587)"/></g><g transform="translate(21.444 3.222)"><path class="d" d="M807.212,1075.375l3.075-.25,8.812-11.14,4.24,5.32,10.392,4.324,11.14.166-3.99-9.726-9.228-5.237-14.3-.333s-9.643,8.646-9.81,8.978-.914,7.733-.914,7.733Z" transform="translate(-806.629 -1058.498)"/></g><g transform="translate(29.584 54.083)"><path class="a" d="M813.807,1105.723l11.524,23.049,11.524-25.422-11.862,2.711Z" transform="translate(-813.807 -1103.351)"/></g><g transform="translate(0)"><g transform="translate(33.046 19.343)"><path class="e" d="M816.86,1075a2.282,2.282,0,1,1,2.285,2.281A2.284,2.284,0,0,1,816.86,1075Z" transform="translate(-816.86 -1072.715)"/><g transform="translate(10.648)"><path class="e" d="M826.25,1075a2.282,2.282,0,1,1,2.284,2.281A2.281,2.281,0,0,1,826.25,1075Z" transform="translate(-826.25 -1072.715)"/></g></g><g transform="translate(0 45.253)"><path class="e" d="M869.022,1144.643h-81.3v-29.224a19.877,19.877,0,0,1,19.856-19.855h4.6l.569,1.094a17.6,17.6,0,0,0,31.251,0l.569-1.094h4.6a19.877,19.877,0,0,1,19.856,19.855Zm-77.237-4.067h73.169v-25.157a15.807,15.807,0,0,0-15.788-15.788h-2.172a21.666,21.666,0,0,1-37.245,0h-2.176a15.807,15.807,0,0,0-15.788,15.788Z" transform="translate(-787.718 -1095.564)"/></g><g transform="translate(18.763)"><path class="e" d="M826.152,1099.439a21.891,21.891,0,1,1,21.9-21.891A21.914,21.914,0,0,1,826.152,1099.439Zm0-39.714a17.824,17.824,0,1,0,17.828,17.823A17.841,17.841,0,0,0,826.152,1059.726Z" transform="translate(-804.264 -1055.657)"/></g><g transform="translate(25.541 51.713)"><path class="e" d="M825.594,1132.182l-15.352-29.018,3.595-1.9,11.7,22.115,11.32-22.091,3.621,1.855Z" transform="translate(-810.242 -1101.26)"/></g><g transform="translate(15.164 70.488)"><g transform="translate(48.825 0)"><g transform="translate(0)"><rect class="e" width="2.034" height="21.535" transform="translate(0 0.011) rotate(-0.321)"/></g></g><g transform="translate(0 0.269)"><g transform="translate(0 0)"><rect class="e" width="2.034" height="21.536" transform="translate(0 0.011) rotate(-0.317)"/></g></g></g><g transform="translate(21.195 3.606)"><path class="e" d="M808.594,1078.6l-2.185-3.431a29.228,29.228,0,0,0,6.169-5.519c2.745-3.432,5.531-7.256,5.56-7.295l2.563-3.52,1.053,4.225a12.31,12.31,0,0,0,8.117,8.026c6.975,2.22,14.059-.3,14.13-.325l1.389,3.822c-.34.125-8.463,3.013-16.753.379a16.327,16.327,0,0,1-9.3-7.4c-1.023,1.357-2.305,3.033-3.584,4.63A32.962,32.962,0,0,1,808.594,1078.6Z" transform="translate(-806.409 -1058.837)"/></g><g transform="translate(30.739 25.617)"><path class="e" d="M816.867,1087.273l-2.041-3.517,9.486-5.508,9.407,5.512-2.056,3.509-7.361-4.312Z" transform="translate(-814.826 -1078.248)"/></g></g></g></g></svg>