<svg xmlns="http://www.w3.org/2000/svg" xmlns:xlink="http://www.w3.org/1999/xlink" width="76.401" height="128.822" viewBox="0 0 76.401 128.822"><defs><style>.a{fill:#fff;}.b{fill:#fb5b76;}.c{fill:#ffe8f1;}.d{fill:#4f5965;}.e{filter:url(#a);}</style><filter id="a" x="0" y="0" width="76.401" height="128.822" filterUnits="userSpaceOnUse"><feOffset dx="1" dy="1" input="SourceAlpha"/><feGaussianBlur stdDeviation="1" result="b"/><feFlood flood-opacity="0.302"/><feComposite operator="in" in2="b"/><feComposite in="SourceGraphic"/></filter></defs><g transform="translate(2 2)"><g class="e" transform="matrix(1, 0, 0, 1, -2, -2)"><path class="a" d="M282.964,641.535l-17-22.979a14.957,14.957,0,1,0-21.829,0l-17,22.979a7.743,7.743,0,0,0-7.285,7.72v12.219a7.746,7.746,0,0,0,5.493,7.4V676.1q0,.62.024,1.243a7.715,7.715,0,0,0-2.586,5.765c0,9.6,13.966,33.122,32.269,33.122s32.269-23.517,32.269-33.122a7.719,7.719,0,0,0-2.584-5.766q.023-.621.023-1.242v-7.227a7.746,7.746,0,0,0,5.494-7.4V649.254A7.744,7.744,0,0,0,282.964,641.535Z" transform="translate(-217.85 -591.41)"/></g><g transform="translate(6.021 6.022)"><rect class="a" width="55.117" height="12.334" transform="translate(1.371 49.27)"/><path class="a" d="M242.788,606.958a7.323,7.323,0,1,1,7.322,7.323A7.322,7.322,0,0,1,242.788,606.958Z" transform="translate(-221.181 -598.16)"/><path class="b" d="M242.947,668.728a7.323,7.323,0,1,1,7.324,7.323A7.323,7.323,0,0,1,242.947,668.728Z" transform="translate(-221.148 -585.541)"/><path class="b" d="M253.148,613.877l24.86,32.183-49.143.193Z" transform="translate(-224.025 -595.25)"/><path class="a" d="M228.41,668.184l16.543.508,2.312,4.24,5.589,3.083,4.432-1.156,3.277-2.12L262.3,668.5l15.61.192L270.2,683.723l-12.526,9.251-10.407.193-10.407-8.094Z" transform="translate(-224.118 -584.156)"/><path class="c" d="M230.717,650.771l.6,20.47h12.851l1.643-4.183,5.38-3.437,6.574.9,4.184,6.724,11.8.15.6-6.126.448-15.391Z" transform="translate(-223.646 -587.896)"/><g transform="translate(0)"><path class="d" d="M281.493,646.521h-2.6L256.28,615.954a8.935,8.935,0,1,0-4.511,0l-22.615,30.567h-2.6a1.711,1.711,0,0,0-1.711,1.711v12.219a1.711,1.711,0,0,0,1.711,1.71h3.783V675.08a28.343,28.343,0,0,0,.507,5.3H229.49a1.71,1.71,0,0,0-1.711,1.711c0,6.638,11.808,27.1,26.248,27.1s26.246-20.462,26.246-27.1a1.71,1.71,0,0,0-1.711-1.711H277.2a28.34,28.34,0,0,0,.507-5.3V662.162h3.783a1.711,1.711,0,0,0,1.711-1.71V648.233A1.711,1.711,0,0,0,281.493,646.521Zm-33.836-39.178a6.368,6.368,0,1,1,6.368,6.367A6.374,6.374,0,0,1,247.658,607.344Zm6.368,11.315,20.614,27.862H233.41Zm0,87.106c-11.361,0-20.829-15.546-22.548-21.967h13.272a9.411,9.411,0,0,0,18.551,0h13.27C274.854,690.219,265.386,705.765,254.026,705.765Zm-6-23.568a6,6,0,1,1,6,6A6.005,6.005,0,0,1,248.026,682.2Zm26.262-7.117a25.314,25.314,0,0,1-.561,5.3h-10.46a9.418,9.418,0,0,0-18.482,0h-10.46a25.318,25.318,0,0,1-.561-5.3V662.162h40.526Zm5.5-16.34H228.267v-8.8h51.516Z" transform="translate(-224.846 -598.41)"/><path class="d" d="M241.676,661.188a4.058,4.058,0,1,0-4.057-4.058A4.059,4.059,0,0,0,241.676,661.188Z" transform="translate(-222.237 -587.243)"/><path class="d" d="M257.851,661.188a4.058,4.058,0,1,0-4.058-4.058A4.059,4.059,0,0,0,257.851,661.188Z" transform="translate(-218.932 -587.243)"/></g></g></g></svg>