<svg xmlns="http://www.w3.org/2000/svg" xmlns:xlink="http://www.w3.org/1999/xlink" width="112.057" height="103.08" viewBox="0 0 112.057 103.08"><defs><style>.a{fill:#fff;}.b{fill:#ffe5e3;}.c{fill:#4f5965;}.d{fill:#3894df;}.e{filter:url(#a);}</style><filter id="a" x="0" y="0" width="112.057" height="103.08" filterUnits="userSpaceOnUse"><feOffset dx="1" dy="1" input="SourceAlpha"/><feGaussianBlur stdDeviation="1" result="b"/><feFlood flood-opacity="0.302"/><feComposite operator="in" in2="b"/><feComposite in="SourceGraphic"/></filter></defs><g transform="translate(2 2)"><g class="e" transform="matrix(1, 0, 0, 1, -2, -2)"><path class="a" d="M294.007,521.528a40.278,40.278,0,0,0-19.717-21.713,13.173,13.173,0,0,0-1.47-15.276,14.575,14.575,0,0,0-20.571-1.393,16.233,16.233,0,0,0-5.558,11.211,16.529,16.529,0,0,0,.006,2.356,40.093,40.093,0,0,0-28.3,24.816,16.08,16.08,0,0,0,1.31,32.131,40.484,40.484,0,0,0,72.992,0q.227.007.454.007a16.081,16.081,0,0,0,.855-32.138Z" transform="translate(-201.17 -477.54)"/></g><g transform="translate(5.775 5.777)"><g transform="translate(1.719 17.679)"><path class="a" d="M292.146,526.266a8.495,8.495,0,0,0-4.477,1.232,33,33,0,0,0-64.97-.749,8.58,8.58,0,1,0,.414,14.225,32.985,32.985,0,0,0,63.811.735,8.574,8.574,0,1,0,5.222-15.443Z" transform="translate(-209.57 -499.905)"/></g><g transform="translate(9.924 17.931)"><path class="b" d="M295.814,527.025a9.156,9.156,0,0,0-1.044.534c-.053-.327-.141-.641-.2-.965a8.17,8.17,0,0,0-6.675.885,33.02,33.02,0,0,0-28.733-27.356A33.016,33.016,0,0,0,229.8,526.81a8.173,8.173,0,0,0-6.654-1.039c-.072.321-.164.634-.226.959a9.348,9.348,0,0,0-1.033-.558,8.568,8.568,0,0,0-.2,15.682,8.756,8.756,0,0,0,1.646-.9c.131.52.3,1.024.454,1.533a8.084,8.084,0,0,0,6.427-1.455A33.026,33.026,0,0,0,258.4,565.785a33.025,33.025,0,0,0,28.746-24.1,8.1,8.1,0,0,0,6.392,1.6c.166-.507.347-1.006.489-1.523a8.667,8.667,0,0,0,1.625.937,8.566,8.566,0,0,0,.162-15.682Z" transform="translate(-216.672 -500.123)"/></g><g transform="translate(31.223 45.735)"><path class="c" d="M235.108,527.8a3.657,3.657,0,1,1,3.616,3.7A3.659,3.659,0,0,1,235.108,527.8Z" transform="translate(-235.108 -524.191)"/></g><g transform="translate(56.022 46.021)"><path class="c" d="M256.574,528.053a3.657,3.657,0,1,1,3.615,3.7A3.657,3.657,0,0,1,256.574,528.053Z" transform="translate(-256.574 -524.438)"/></g><g transform="translate(0 15.96)"><path class="c" d="M254.948,567.913a34.753,34.753,0,0,1-32.665-24.161,10.117,10.117,0,0,1-4.019.78,10.3,10.3,0,0,1,.237-20.606,10.1,10.1,0,0,1,3.223.572,34.718,34.718,0,0,1,67.442.777,10.047,10.047,0,0,1,3.231-.5,10.3,10.3,0,0,1-.237,20.606,10.14,10.14,0,0,1-4-.871A34.745,34.745,0,0,1,254.948,567.913ZM224.4,538.337l.613,2.448a31.265,31.265,0,0,0,60.484.7l.67-2.434,2.019,1.515a6.787,6.787,0,0,0,4.013,1.381,6.863,6.863,0,0,0,.158-13.726,6.744,6.744,0,0,0-3.577.988l-2.164,1.293-.414-2.487a31.277,31.277,0,0,0-61.583-.709l-.47,2.478-2.135-1.343a6.741,6.741,0,0,0-3.555-1.071,6.864,6.864,0,0,0-.158,13.727,6.79,6.79,0,0,0,4.042-1.288Z" transform="translate(-208.081 -498.417)"/></g><g transform="translate(43.961)"><path class="c" d="M249.785,502.927l-1.118-1.308a10.573,10.573,0,0,1,1.18-14.909,8.8,8.8,0,0,1,12.408.982,7.377,7.377,0,0,1-.821,10.411l-1.309,1.117-2.232-2.618,1.308-1.117a3.937,3.937,0,0,0,.439-5.559,5.359,5.359,0,0,0-7.557-.6,7.128,7.128,0,0,0-.8,10.058l1.116,1.308Z" transform="translate(-246.134 -484.602)"/></g><path class="d" d="M239.472,549.1a10.747,10.747,0,1,1,10.623,10.871A10.745,10.745,0,0,1,239.472,549.1Z" transform="translate(-203.208 -476.237)"/><path class="a" d="M249.571,543.05a5.466,5.466,0,1,0,5.4,5.529A5.472,5.472,0,0,0,249.571,543.05Z" transform="translate(-202.498 -475.527)"/><path class="c" d="M250.305,561.924a12.468,12.468,0,1,1,12.61-12.324A12.483,12.483,0,0,1,250.305,561.924Zm.247-21.494a9.027,9.027,0,1,0,8.922,9.13A9.037,9.037,0,0,0,250.553,540.431Z" transform="translate(-203.439 -476.468)"/></g></g></svg>