<svg xmlns="http://www.w3.org/2000/svg" width="38.899" height="76.358" viewBox="0 0 38.899 76.358"><defs><style>.a{fill:#edf2f9;}</style></defs><g transform="translate(-538 -668)"><path class="a" d="M1025.8,753.208a14.467,14.467,0,0,0-2.13-3.036,17.292,17.292,0,0,0-2.277-2.156,4.407,4.407,0,0,0-1.833-.86l-1.406-.7c.52-1.921,1.065-4.031,1.472-6.256,1.6-8.782-2.685-14.565-5.481-16.6l-5.13-3.719a22.577,22.577,0,0,0-5.008-7.939l-9.922-9.214,2.765,13.106c1.5,7.105.281,8.631-2.143,11.672a30.992,30.992,0,0,0-3.925,5.918c-4.594,9.359,1.264,18.93,1.513,19.329l1.687,2.71a21.657,21.657,0,0,0-1.108,4.884,16.98,16.98,0,0,0,3.981,12.623,17.227,17.227,0,0,0,11.981,6.068c.432.032.874.048,1.313.048a17.858,17.858,0,0,0,17.705-16.047A16.99,16.99,0,0,0,1025.8,753.208Z" transform="translate(-451.031 -34.731)"/></g></svg>