<svg xmlns="http://www.w3.org/2000/svg" xmlns:xlink="http://www.w3.org/1999/xlink" width="122.649" height="89.293" viewBox="0 0 122.649 89.293"><defs><style>.a{fill:#fff;}.b{fill:#bacddc;}.c{fill:#cc4462;}.d{fill:#fb5b76;}.e{fill:#4f5965;}.f{filter:url(#a);}</style><filter id="a" x="0" y="0" width="122.649" height="89.293" filterUnits="userSpaceOnUse"><feOffset dx="1" dy="1" input="SourceAlpha"/><feGaussianBlur stdDeviation="1" result="b"/><feFlood flood-opacity="0.302"/><feComposite operator="in" in2="b"/><feComposite in="SourceGraphic"/></filter></defs><g transform="translate(2 2)"><g class="f" transform="matrix(1, 0, 0, 1, -2, -2)"><path class="a" d="M671.981,1153.253c4.609-1.75,7.493-5.272,7.493-9.506s-2.885-7.755-7.493-9.5c0-10.721-2.388-16.7-4.28-19.753-7.935-10.487-26.174-17.444-48-17.444-29.807,0-52.285,12.674-52.285,29.481,0,.56.03,1.132.086,1.7l0,1.381c-.059.626-.089,1.214-.089,1.792s.03,1.162.086,1.746v6.306a9.712,9.712,0,0,0-4.671,8.082,9.6,9.6,0,0,0,4.724,8.119l1.883,3.64c6.192,12.549,26.06,21.041,50.263,21.041s44.07-8.491,50.262-21.041Z" transform="translate(-560.83 -1095.05)"/></g><g transform="translate(4.406 4.406)"><path class="b" d="M574.34,1135.589s41.8,36.067,88.733,0l1.024,16.6s-43.24,39.961-90.167-.821l2.006-6.177Z" transform="translate(-566.383 -1097.818)"/><path class="c" d="M573.382,1128.362c2.706,11.216,21.767,19.909,44.894,19.909,23.537,0,42.87-9,45.029-20.509-.829-13.013-18.5-23.559-40.912-24.7-1.357-.061-2.728-.1-4.117-.1-.952,0-1.893.018-2.83.048C592.161,1103.865,573.7,1114.856,573.382,1128.362Z" transform="translate(-566.438 -1101.129)"/><path class="d" d="M582.595,1136.567a15.054,15.054,0,0,0,.3,2.93c8.3,4.88,20.647,7.979,34.449,7.979,24.984,0,45.237-10.142,45.237-22.654a12.2,12.2,0,0,0-1.252-5.288c-8.245-5.351-20.3-8.73-33.741-8.73C602.738,1110.8,582.595,1122.338,582.595,1136.567Z" transform="translate(-565.503 -1100.333)"/><path class="e" d="M666.866,1149.185c4.5-.595,7.493-2.917,7.493-5.869s-2.989-5.274-7.493-5.869v-10.491l-.2-3.12c-2.125-12.884-22.341-22.538-47.4-22.538-26.692,0-47.6,10.892-47.6,24.8a12.8,12.8,0,0,0,.086,1.448l0,1.87a14.684,14.684,0,0,0-.089,1.56,13.624,13.624,0,0,0,.086,1.5v9.427c-2.933,1.034-4.671,2.96-4.671,5.206,0,2.229,1.74,4.155,4.679,5.2l.441,1.871c3.413,12.219,23.083,21.04,47.067,21.04s43.653-8.822,47.067-21.04Zm-90.6-21.488a8.96,8.96,0,0,1-.152-1.6c0-11.027,19.759-20.343,43.148-20.343s43.147,9.316,43.147,20.343-19.759,20.342-43.147,20.342c-21.464,0-40.223-7.9-42.839-18.014Zm56.3,32.682a6.3,6.3,0,0,1-4.779,1.844,7.28,7.28,0,0,1-3.81-1C626.9,1161.073,629.775,1160.791,632.566,1160.379Zm-13.3-7.888c-15.515,0-29.778-4.289-37.387-10.859,8.844,5.8,22.512,9.26,37.387,9.26,14.762,0,28.352-3.414,37.2-9.139C648.8,1148.253,634.622,1152.491,619.265,1152.491Zm-20.387,6.514a8.05,8.05,0,0,1-2.124.279c-2.439,0-4.618-1.1-5.146-2.471A66.794,66.794,0,0,0,598.878,1159.005Zm-27.319-11.9a5.084,5.084,0,0,1,2.767-1.307,21.223,21.223,0,0,0,2.305,2.869C573.482,1148.632,571.832,1147.505,571.559,1147.108Zm47.706,23.663c-21.346,0-39.834-7.7-42.734-17.649a14.833,14.833,0,0,0,5.881-1.03l3.622-1.508-3.151-2.337a24.287,24.287,0,0,1-2.49-2.1,42.313,42.313,0,0,0,8.758,5.063l-.929,1.329a6.355,6.355,0,0,0-1.189,3.643c0,4.24,4.27,7.561,9.722,7.561,4.15,0,7.839-2.029,9.18-5.048l1.15-2.588a87.442,87.442,0,0,0,10.983.825v2.19c0,4.24,4.27,7.562,9.72,7.562s9.721-3.321,9.721-7.562a6.123,6.123,0,0,0-.415-2.191l-.636-1.663c8.89-1.823,16.539-5.058,21.977-9.372l-1.282,1.148a37.13,37.13,0,0,1-11.013,6.25l-3.675,1.407,3.1,2.425a11.219,11.219,0,0,0,6.911,2.222c3.851,0,7.113-1.658,8.7-4.126C656.528,1164.176,639.385,1170.771,619.265,1170.771Zm38.4-18.493c-.371,1.234-2.071,2.269-4.137,2.54A39.026,39.026,0,0,0,657.665,1152.279Zm4.653-.62q-.068.5-.184.99a6.282,6.282,0,0,0,.061-.869,6.155,6.155,0,0,0-.654-2.745c.284.053.575.1.875.141l0,1.737Zm2.457-6.778a16.04,16.04,0,0,0,1.376-3.039c2.325.282,3.506,1.154,3.731,1.475C669.608,1143.715,667.948,1144.848,664.775,1144.88Z" transform="translate(-567.078 -1101.298)"/></g></g></svg>