<svg xmlns="http://www.w3.org/2000/svg" width="25.644" height="76.123" viewBox="0 0 25.644 76.123"><defs><style>.a{fill:#edf2f9;}</style></defs><g transform="translate(-390 -617)"><path class="a" d="M376.188,846.458h-1.052a16.556,16.556,0,0,0,5.522-12.093c0-9.432-9.185-19.286-10.228-20.375a4.241,4.241,0,0,0-7.245,3.65c.291,1.7.2,4.8-.733,5.964a15.228,15.228,0,0,1-2.037,1.948c-2.279,1.932-5.4,4.578-5.4,10.416,0,4.317,2.887,7.934,5.811,10.49h-1.18A4.247,4.247,0,0,0,355.4,850.7v33.858a4.247,4.247,0,0,0,4.243,4.243h16.542a4.247,4.247,0,0,0,4.241-4.243V850.7A4.246,4.246,0,0,0,376.188,846.458Z" transform="translate(34.986 -195.678)"/></g></svg>