<svg xmlns="http://www.w3.org/2000/svg" width="65.924" height="51.281" viewBox="0 0 65.924 51.281"><defs><style>.a{fill:#edf2f9;}</style></defs><path class="a" d="M897.216,497.215a5.276,5.276,0,0,0-4.339-2.267l-40.025.061-.678-1.668a5.251,5.251,0,0,0-4.884-3.287h-9.785a5.272,5.272,0,0,0,0,10.544h6.237l7.282,17.907a7.432,7.432,0,0,0-4.414,6.788v1.043a7.417,7.417,0,0,0,6.513,7.353c-.009.147-.014.295-.014.444a7.2,7.2,0,0,0,14.406,0c0-.132,0-.262-.01-.391h9.346c-.007.129-.011.26-.011.391a7.2,7.2,0,1,0,14.373-.73,5.272,5.272,0,0,0-1.321-10.177l7.926-21.152A5.26,5.26,0,0,0,897.216,497.215Z" transform="translate(-832.234 -490.055)"/></svg>