<svg xmlns="http://www.w3.org/2000/svg" xmlns:xlink="http://www.w3.org/1999/xlink" width="110.916" height="98.026" viewBox="0 0 110.916 98.026"><defs><style>.a{fill:#fff;}.b{fill:#4f5965;}.c{fill:#ffd0cc;}.d{fill:#f1c14f;}.e{filter:url(#a);}</style><filter id="a" x="0" y="0" width="110.916" height="98.026" filterUnits="userSpaceOnUse"><feOffset dx="1" dy="1" input="SourceAlpha"/><feGaussianBlur stdDeviation="1" result="b"/><feFlood flood-opacity="0.302"/><feComposite operator="in" in2="b"/><feComposite in="SourceGraphic"/></filter></defs><g transform="translate(2 2)"><g class="e" transform="matrix(1, 0, 0, 1, -2, -2)"><path class="a" d="M312.048,424.118a8.108,8.108,0,0,0-7.077-7.545,58.571,58.571,0,0,0-12.458-13.8,36.221,36.221,0,0,0-14.107-6.99,18.244,18.244,0,0,0-36.194-4.6,8.9,8.9,0,0,0-8.268-2.555c-6.664,1.307-8.158,8.138-8.639,13.35a37.033,37.033,0,0,0-9.909,12.671h-.129a8.127,8.127,0,0,0-8.119,8.119V436.73a8.127,8.127,0,0,0,8.119,8.118h4.4l5.622,7.231v7.266a8.126,8.126,0,0,0,8.119,8.118H244.96a8.134,8.134,0,0,0,7.892-6.207h14.9a8.132,8.132,0,0,0,7.891,6.207h12.912a8.074,8.074,0,0,0,8.113-7.854l.239-7.281a41.739,41.739,0,0,0,7.456-9.978,32.232,32.232,0,0,0,2.522-7.5c.23-.93.613-2.486.816-2.945l.051-.1c.045-.024.09-.049.134-.074l3.683-1.64-.378-1.784A8.081,8.081,0,0,0,312.048,424.118Z" transform="translate(-205.15 -373.44)"/></g><g transform="translate(6.256 6.256)"><g transform="translate(1.862 14.893)"><path class="a" d="M298.44,419.925a51.892,51.892,0,0,0-12.562-15c-8.025-6.283-14.655-5.937-14.655-5.937s-4.19,8.029-12.215,8.029c-9.792,0-13.11-8.7-13.11-8.7a19.765,19.765,0,0,0-7.841.724c-1.094-3.276-2.675-6.968-4.181-6.68-1.6.315-2.156,5.543-2.343,9.669a25.357,25.357,0,0,0-2.542,1.851c-8.375,6.975-9.421,14.652-9.421,14.652h-5.933v13.958h8.378l4.683,6.026,5.086,6.539V455.1h11.548v-6.207H274.01V455.1h12.912l.35-10.745a33.357,33.357,0,0,0,8.292-10.067c1.459-2.74,1.993-7.652,3.18-10.13,1.564-3.278,3.572-3.775,3.572-3.775Z" transform="translate(-213.636 -392.338)"/></g><g transform="translate(15.125 32.697)"><path class="b" d="M227.2,412.51a2.971,2.971,0,1,1,2.97-2.972A2.971,2.971,0,0,1,227.2,412.51Z" transform="translate(-224.237 -406.568)"/></g><g transform="translate(25.667 21.536)"><path class="c" d="M296.851,418.967l-3.189-.375a51.892,51.892,0,0,0-12.562-15c-8.025-6.283-14.655-5.937-14.655-5.937s-4.19,8.029-12.215,8.029a13.594,13.594,0,0,1-9.269-3.432c-7.484,5.3-12.3,13.464-12.3,22.646s4.827,17.366,12.328,22.664h24.241v6c4.752-.54,9.174.629,13.056-1.54l.206-8.993a33.358,33.358,0,0,0,8.292-10.067c1.459-2.74,1.993-7.652,3.18-10.129a7.5,7.5,0,0,1,2.958-3.5C296.9,419.2,296.878,419.085,296.851,418.967Z" transform="translate(-232.662 -397.647)"/></g><g transform="translate(0 13.03)"><path class="b" d="M287.3,457.334H274.383a1.861,1.861,0,0,1-1.862-1.862v-4.345H245.567v4.345a1.861,1.861,0,0,1-1.863,1.862H232.156a1.862,1.862,0,0,1-1.863-1.862v-9.411l-8.817-11.341h-7.464a1.862,1.862,0,0,1-1.863-1.862V418.9a1.863,1.863,0,0,1,1.863-1.863h4.444a29.106,29.106,0,0,1,9.719-14.221c.6-.5,1.235-.982,1.919-1.451.46-8.126,1.856-10.083,3.8-10.465,2.657-.487,4.4,2.669,5.739,6.3a20.383,20.383,0,0,1,6.947-.352,1.865,1.865,0,0,1,1.435,1.172,12.334,12.334,0,0,0,11.369,7.5c6.768,0,10.531-6.963,10.569-7.032a1.872,1.872,0,0,1,1.551-1c.292,0,7.419-.307,15.9,6.333a53.471,53.471,0,0,1,12.578,14.73l2.93.347a1.863,1.863,0,0,1,.229,3.657h0c.012,0-1.23.449-2.341,2.769a25.385,25.385,0,0,0-1.252,4.175,27.247,27.247,0,0,1-1.963,6.028,35.772,35.772,0,0,1-8.1,10.1l-.324,9.9A1.857,1.857,0,0,1,287.3,457.334Zm-11.05-3.726h9.247l.29-8.941a1.866,1.866,0,0,1,.737-1.424,31.9,31.9,0,0,0,7.771-9.458,24.918,24.918,0,0,0,1.637-5.169,26.95,26.95,0,0,1,1.508-4.892,12.668,12.668,0,0,1,.923-1.62,1.863,1.863,0,0,1-1.2-.946,50.451,50.451,0,0,0-12.056-14.4c-5.619-4.4-10.5-5.309-12.478-5.5-1.551,2.387-5.971,7.986-13.245,7.986a15.862,15.862,0,0,1-14.343-8.8,19.7,19.7,0,0,0-6.1.757,1.859,1.859,0,0,1-2.271-1.2,23.5,23.5,0,0,0-2-4.716,31.923,31.923,0,0,0-.9,7.2,1.865,1.865,0,0,1-.856,1.484,23.163,23.163,0,0,0-2.351,1.712c-7.731,6.441-8.762,13.4-8.77,13.473a1.864,1.864,0,0,1-1.847,1.613h-4.069v10.232h6.514a1.865,1.865,0,0,1,1.471.722l9.768,12.562a1.867,1.867,0,0,1,.392,1.145v8.185h7.822v-4.344A1.863,1.863,0,0,1,243.7,447.4h30.679a1.862,1.862,0,0,1,1.863,1.863Z" transform="translate(-212.148 -390.849)"/></g><g transform="translate(36.759 1.863)"><path class="a" d="M251.652,402.17a10.123,10.123,0,1,0-10.124-10.119A10.118,10.118,0,0,0,251.652,402.17Z" transform="translate(-241.528 -381.924)"/></g><g transform="translate(41.401 6.506)"><path class="d" d="M245.238,395.761a10.059,10.059,0,0,0,1.353,5.04,10.112,10.112,0,0,0,13.815-13.813,10.115,10.115,0,0,0-15.168,8.773Z" transform="translate(-245.238 -385.635)"/></g><g transform="translate(34.895)"><path class="b" d="M252.027,404.406a11.986,11.986,0,1,1,11.985-11.983A12,12,0,0,1,252.027,404.406Zm0-20.247a8.26,8.26,0,1,0,8.259,8.264A8.275,8.275,0,0,0,252.027,384.16Z" transform="translate(-240.038 -380.435)"/></g></g></g></svg>