<svg xmlns="http://www.w3.org/2000/svg" width="62.585" height="71.546" viewBox="0 0 62.585 71.546"><defs><style>.a{fill:#edf2f9;}</style></defs><g transform="translate(-430.001 -903)"><path class="a" d="M834.289,969.512c2.2-3.368,1.124-7.425.441-10.009a14.33,14.33,0,0,1-.582-2.855c0-10.008-6.272-17.379-15.989-18.807a18.5,18.5,0,0,0-7.254,0c-9.712,1.428-15.98,8.8-15.98,18.806a16.917,16.917,0,0,1-.484,3.028c-.583,2.72-1.4,6.534.5,9.784A17.015,17.015,0,0,0,783.243,985.6v23.429h62.585V985.6A17.015,17.015,0,0,0,834.289,969.512Z" transform="translate(-353.242 -34.483)"/></g></svg>