<svg xmlns="http://www.w3.org/2000/svg" xmlns:xlink="http://www.w3.org/1999/xlink" width="113.485" height="105.407" viewBox="0 0 113.485 105.407"><defs><style>.a{fill:#fff;}.b{fill:#ffe5e3;}.c{fill:#f1c14f;}.d{fill:#bacddc;}.e{fill:#54afed;}.f{fill:#fb5b76;}.g{fill:#cc4462;}.h{fill:#4f5965;}.i{fill:#3894df;}.j{filter:url(#a);}</style><filter id="a" x="0" y="0" width="113.485" height="105.407" filterUnits="userSpaceOnUse"><feOffset dx="1" dy="1" input="SourceAlpha"/><feGaussianBlur stdDeviation="1" result="b"/><feFlood flood-opacity="0.302"/><feComposite operator="in" in2="b"/><feComposite in="SourceGraphic"/></filter></defs><g transform="translate(2 2)"><g class="j" transform="matrix(1, 0, 0, 1, -2, -2)"><path class="a" d="M1022.432,933.334h-2.655a24.913,24.913,0,0,0-18.177,7.892,7.007,7.007,0,0,0-10.349-4.829c-2.721,1.548-3.089,1.675-5.132.369-8.581-5.493-20.852-6.174-29.179-1.62-6.553,3.585-10.162,9.978-10.162,18l0,19.452a9.232,9.232,0,0,0,5.08,8.239v7.145a12.387,12.387,0,0,0-2.246,1.241,12.986,12.986,0,0,0-5.369,8.471c-.763,4.558-.728,9.9-.668,18.815l0,.858c.017,2.531.036,5.348.036,8.507a5.677,5.677,0,0,0,5.671,5.671H986.33a5.678,5.678,0,0,0,5.672-5.671v-3.056c0-2.468.009-5.008.021-7.3a22.219,22.219,0,0,0-12.291-19.636v-.631a19.645,19.645,0,0,0,15.185-19.106V959.176q.036.931.142,1.873A24.175,24.175,0,0,0,996.515,967v9.152a19.642,19.642,0,0,0,15.963,19.269v3.9l-8.425,6.973c-5.953,4.029-10.91,11.768-7.195,21.585a5.7,5.7,0,0,0,5.308,3.673h36.127a5.678,5.678,0,0,0,5.672-5.671v-14.9h1.4a5.678,5.678,0,0,0,5.673-5.671V961.94A28.638,28.638,0,0,0,1022.432,933.334Zm-27.515,23.8v-.052h0Z" transform="translate(-941.55 -930.14)"/></g><g transform="translate(5.208 4.166)"><path class="b" d="M1031.664,964.226a1.951,1.951,0,0,0-1.949,1.949v2.133a1.242,1.242,0,0,1-.444.953,1.227,1.227,0,0,1-1.018.271c-2.719-.486-20.906-8.842-24.52-16.908a14.629,14.629,0,0,0-2.7,8.5V975.29a12.708,12.708,0,0,0,12.694,12.695h3.374a12.708,12.708,0,0,0,12.692-12.695,1.242,1.242,0,0,1,1.243-1.243h.264a4.045,4.045,0,0,0,4.042-4.04v-2.1A3.684,3.684,0,0,0,1031.664,964.226Z" transform="translate(-945.586 -935.72)"/><path class="b" d="M974.025,953.494a5.688,5.688,0,0,0-5.682,5.682c0,8.9-5.181,9.823-7.966,10.32a1.242,1.242,0,0,1-1.461-1.224v-2.133a1.95,1.95,0,0,0-1.947-1.949h-1.733a1.95,1.95,0,0,0-1.947,1.949V971.7a2.311,2.311,0,0,0,2.308,2.308h2a1.243,1.243,0,0,1,1.243,1.243,12.708,12.708,0,0,0,12.694,12.694H974.9A12.708,12.708,0,0,0,987.6,975.254v-21.76Z" transform="translate(-947.574 -935.684)"/><path class="b" d="M971.327,989.263a15.179,15.179,0,0,1-13.161-7.649v7.948l14.042,6.035v-6.334Z" transform="translate(-947.371 -934.513)"/><path class="c" d="M953.287,962.787a4.385,4.385,0,0,1,1.949-.471h1.733a4.437,4.437,0,0,1,4.432,4.434v.615c2.31-.583,4.456-1.945,4.456-7.577a8.177,8.177,0,0,1,8.167-8.168h14.629c5.434-1.2,5.806-4.509,5.739-9.409a.09.09,0,0,0-.051-.088c-3.715,2.07-7.15,3.511-12.355.181-5.584-3.575-15.388-5.067-22.131-1.378-4.3,2.351-6.569,6.478-6.569,11.936Z" transform="translate(-947.574 -936.296)"/><path class="b" d="M1013.664,1004.862l12.822-11.749v-7.595a15.088,15.088,0,0,1-9.758,3.581h-.1v10.655a1.24,1.24,0,0,1-.451.957l-6.132,5.075Z" transform="translate(-945.211 -934.35)"/><path class="d" d="M1020.1,939.918h-2.656a18,18,0,0,0-13.394,5.992,17.742,17.742,0,0,0-4.469,10.083,17.14,17.14,0,0,1,3.945-6.38,1.243,1.243,0,0,1,2.131.87c0,5.925,16.049,14.561,21.634,16.677V966.7a4.44,4.44,0,0,1,4.434-4.434,6.172,6.172,0,0,1,6.166,6.166v2.1A6.534,6.534,0,0,1,1032.3,977a15.089,15.089,0,0,1-2.889,7.778v8.285a3.379,3.379,0,0,1,3.959,1.256,21.783,21.783,0,0,1,3.644,9.412h4.778V961.609A21.716,21.716,0,0,0,1020.1,939.918Z" transform="translate(-945.647 -936.249)"/><path class="e" d="M1031.293,993.507a.877.877,0,0,0-.653-.383.832.832,0,0,0-.708.262l-14.406,13.2a1.243,1.243,0,0,1-.532.289l-8.969,2.29c-1.051.612-7.823,4.921-5.33,12.919h34v-17.921A18.886,18.886,0,0,0,1031.293,993.507Z" transform="translate(-945.623 -934.034)"/><path class="f" d="M976.055,999.44c-.267-.135-.524-.259-.772-.367l-17.7-7.605a5.687,5.687,0,0,0-4.3.956,6.04,6.04,0,0,0-2.5,3.936c-.666,3.98-.631,9.119-.573,17.632.015,2.432.034,5.137.038,8.165H984.81v-1.813c0-2.48.009-5.034.022-7.329A15.367,15.367,0,0,0,976.055,999.44Z" transform="translate(-947.703 -934.106)"/><path class="g" d="M985.3,1023.239c2.311-14.373-3.159-21.028-6.756-23.767L965.121,993.7a5.683,5.683,0,0,0-4.3.957,6.028,6.028,0,0,0-2.5,3.936c-.666,3.98-.631,9.118-.573,17.632.015,2.431.033,5.137.039,8.166H985.3Z" transform="translate(-947.39 -934.013)"/><path class="h" d="M975.956,964.885h10.216a1.243,1.243,0,1,0,0-2.485H975.956a1.243,1.243,0,1,0,0,2.485Zm8,1.893a4.15,4.15,0,0,1-3.9,0,1.243,1.243,0,1,0-1.1,2.228,6.567,6.567,0,0,0,6.1,0,1.243,1.243,0,0,0-1.1-2.228Zm13.148-24.5h0a2.566,2.566,0,0,0-1.3-2.209,2.53,2.53,0,0,0-2.538,0c-3.326,1.892-5.636,2.855-9.709.25-7.185-4.6-17.787-5.227-24.666-1.465-3.585,1.96-7.859,6-7.859,14.115v13.894l0,.012v5.546a4.8,4.8,0,0,0,4.794,4.794h.287v14.023a8.2,8.2,0,0,0-4.143,1.443,8.541,8.541,0,0,0-3.532,5.569c-.7,4.189-.665,9.409-.606,18.056.017,2.756.038,5.862.038,9.392a1.243,1.243,0,0,0,1.243,1.243h37.04a1.242,1.242,0,0,0,1.243-1.243v-3.056c0-2.475.01-5.024.022-7.316a17.836,17.836,0,0,0-10.134-15.8c-.318-.162-.624-.307-.917-.434l-1.241-.533v-7.4h.005a15.2,15.2,0,0,0,15.18-15.18V953.912C997.218,951.94,997.164,946.387,997.106,942.276Zm-21.724,59.087c.248.107.505.231.772.367a15.367,15.367,0,0,1,8.777,13.576c-.012,2.295-.022,4.849-.022,7.329v1.814H950.355c0-3.028-.024-5.733-.039-8.166-.058-8.513-.093-13.652.573-17.632a6.035,6.035,0,0,1,2.5-3.936,5.688,5.688,0,0,1,4.3-.956ZM958.6,991.445V983.5a15.178,15.178,0,0,0,13.161,7.649h.881v6.334Zm29.228-15.479a12.708,12.708,0,0,1-12.694,12.695h-3.372a12.708,12.708,0,0,1-12.695-12.695,1.243,1.243,0,0,0-1.243-1.243h-2a2.31,2.31,0,0,1-2.307-2.308v-5.564a1.949,1.949,0,0,1,1.946-1.949H957.2a1.95,1.95,0,0,1,1.947,1.949v2.133a1.242,1.242,0,0,0,1.462,1.224c2.783-.5,7.967-1.422,7.967-10.32a5.688,5.688,0,0,1,5.682-5.682h13.57Zm1.057-24.245H974.255a8.178,8.178,0,0,0-8.169,8.168c0,5.632-2.146,6.994-4.456,7.577v-.615a4.437,4.437,0,0,0-4.432-4.434h-1.733a4.385,4.385,0,0,0-1.949.471v-9.924c0-5.458,2.272-9.585,6.569-11.936,6.742-3.688,16.546-2.2,22.131,1.378,5.205,3.33,8.639,1.888,12.355-.181a.09.09,0,0,1,.051.088C994.689,947.211,994.317,950.518,988.882,951.721Z" transform="translate(-947.803 -936.396)"/><path class="i" d="M1014.112,1004.441s-1.134.432-2.795,1.253l-2.316,2.123a1.253,1.253,0,0,1-.532.287l-2.281.582c-2.743,1.894-5.484,4.373-6.911,7.346l.338,7.281h28.556v-17.92a18.7,18.7,0,0,0-2.816-9.755Z" transform="translate(-945.659 -933.929)"/><path class="h" d="M1020.2,937.532h-2.656a20.451,20.451,0,0,0-20.315,22.8,19.913,19.913,0,0,0,1.482,5.581v10.01a15.2,15.2,0,0,0,15.18,15.18h.784v10.07l-10.2,8.445c-2.185,1.441-9.283,7-5.7,16.47a1.242,1.242,0,0,0,1.164.8h36.127a1.242,1.242,0,0,0,1.242-1.243v-19.163c0-.057-.007-.111-.007-.169h5.835a1.242,1.242,0,0,0,1.244-1.243V961.709A24.2,24.2,0,0,0,1020.2,937.532Zm-6.309,51.081a12.708,12.708,0,0,1-12.694-12.695V961.751a14.623,14.623,0,0,1,2.7-8.5c3.614,8.065,21.8,16.422,24.519,16.908a1.227,1.227,0,0,0,1.018-.271,1.242,1.242,0,0,0,.444-.953V966.8a1.951,1.951,0,0,1,1.949-1.949,3.684,3.684,0,0,1,3.68,3.68v2.1a4.045,4.045,0,0,1-4.042,4.04h-.264a1.242,1.242,0,0,0-1.243,1.243,12.708,12.708,0,0,1-12.693,12.695Zm2.819,14.1a1.241,1.241,0,0,0,.451-.957V991.1h.1a15.089,15.089,0,0,0,9.758-3.581v7.595l-12.821,11.749-3.624.925Zm18.109,21.69h-34c-2.493-8,4.28-12.307,5.33-12.919l8.969-2.29a1.244,1.244,0,0,0,.532-.289l14.406-13.2a.832.832,0,0,1,.708-.262.877.877,0,0,1,.653.383,18.884,18.884,0,0,1,3.4,10.659Zm7.07-20.575h-4.778a21.772,21.772,0,0,0-3.645-9.412,3.378,3.378,0,0,0-3.958-1.256v-8.285a15.088,15.088,0,0,0,2.888-7.778,6.534,6.534,0,0,0,5.595-6.458v-2.1a6.171,6.171,0,0,0-6.166-6.165,4.44,4.44,0,0,0-4.434,4.434v.455c-5.585-2.116-21.634-10.752-21.634-16.677a1.243,1.243,0,0,0-2.131-.87,17.136,17.136,0,0,0-3.945,6.38,17.743,17.743,0,0,1,4.469-10.083,18,18,0,0,1,13.394-5.991h2.656a21.715,21.715,0,0,1,21.689,21.691Zm-30.559-38.55h-8.478a1.242,1.242,0,1,0,0,2.484h8.478a1.242,1.242,0,1,0,0-2.484Zm-2.367,4.378a4.163,4.163,0,0,1-3.9,0,1.243,1.243,0,0,0-1.1,2.229,6.59,6.59,0,0,0,6.1,0,1.243,1.243,0,0,0-1.1-2.231Z" transform="translate(-945.75 -936.349)"/></g></g></svg>