<svg xmlns="http://www.w3.org/2000/svg" xmlns:xlink="http://www.w3.org/1999/xlink" width="102.938" height="110.661" viewBox="0 0 102.938 110.661"><defs><style>.a{fill:#fff;}.b{fill:#fbdc5b;}.c{fill:#fb5b76;}.d{fill:#ffe5e3;}.e{fill:#707070;}.f{fill:#4f5965;}.g{filter:url(#a);}</style><filter id="a" x="0" y="0" width="102.938" height="110.661" filterUnits="userSpaceOnUse"><feOffset dx="1" dy="1" input="SourceAlpha"/><feGaussianBlur stdDeviation="1" result="b"/><feFlood flood-opacity="0.302"/><feComposite operator="in" in2="b"/><feComposite in="SourceGraphic"/></filter></defs><g transform="translate(-108 -213)"><g transform="translate(110 215)"><g class="g" transform="matrix(1, 0, 0, 1, -2, -2)"><path class="a" d="M689.369,955.71H679.209v-9.771c.028-1.031.028-2.017,0-3.006v-2.6a27.5,27.5,0,0,0-3.784-13.848c-3.616-7.25-11.462-15.7-28.4-15.246-8.061.2-14.775,2.806-19.958,7.738a28.351,28.351,0,0,0-10.085,20.653,73.34,73.34,0,0,0-.9,16.079H609.3a8.428,8.428,0,0,0-8.31,9.879l8.746,50.3h78.771l.919-5.28L697,970.377l.2-.842.516-4.205a8.545,8.545,0,0,0,.084-1.188v-.008A8.446,8.446,0,0,0,689.369,955.71Z" transform="translate(-598.86 -909.22)"/></g><g transform="translate(4.66 4.661)"><path class="b" d="M701.259,959.649s-7.146-43.372,24.1-44.16,25.165,33.326,25.165,33.326l.584,10.832Z" transform="translate(-683.584 -913.657)"/><path class="c" d="M704.89,990.225l-7.206-40.417h72.635l-7.654,40.417Z" transform="translate(-685.011 -896.597)"/><g transform="translate(25.074 22.45)"><path class="d" d="M706.468,952.517V938.864l8.056-9.036,9.761,2.918,9.283,1.229,5.792,4.889v13.654Z" transform="translate(-705.72 -928.975)"/><path class="e" d="M740.356,953.547H705.968V938.863l8.564-9.6,10.218,3.052,9.381,1.233,6.224,5.256Zm-32.891-1.5h31.394V939.5L733.5,934.97l-9.062-1.2-9.42-2.805-7.552,8.468Z" transform="translate(-705.968 -929.258)"/></g><g transform="translate(16.089)"><path class="f" d="M753.142,959.394H749.4v-20.6c0-11.462-10.25-20.787-22.846-20.787s-22.845,9.328-22.845,20.793v20.6h-3.742V938.8c0-13.529,11.926-24.535,26.587-24.535s26.589,11,26.589,24.529Z" transform="translate(-699.966 -914.261)"/></g><g transform="translate(30.508 18.35)"><path class="f" d="M740.116,953.3h-3.742V941.435c-.721-1.129-3.6-4.805-10.488-4.805-9.591-.006-16.288-4.164-16.288-10.11h3.742c0,3.684,5.277,6.364,12.547,6.368,10.407,0,13.9,6.937,14.04,7.232l.189.388Z" transform="translate(-709.598 -926.519)"/></g><g transform="translate(24.328 21.54)"><path class="f" d="M709.212,952.237H705.47v-10.3c0-5.886,6.242-11.073,8.908-13.288l2.391,2.879c-1.87,1.554-7.557,6.28-7.557,10.41Z" transform="translate(-705.47 -928.65)"/></g><g transform="translate(0 44.381)"><path class="f" d="M768.487,995.027H697.365l-8.088-46.515a3.928,3.928,0,0,1,3.872-4.6H772.7a3.93,3.93,0,0,1,3.872,4.6Zm-67.973-3.742h64.824l7.549-43.413a.193.193,0,0,0-.186-.22H693.149a.194.194,0,0,0-.186.22Z" transform="translate(-689.218 -943.909)"/></g><g transform="translate(32.378 39.136)"><rect class="f" width="6.179" height="3.742"/></g><g transform="translate(46.797 39.136)"><rect class="f" width="6.179" height="3.742"/></g></g></g></g></svg>