<svg xmlns="http://www.w3.org/2000/svg" xmlns:xlink="http://www.w3.org/1999/xlink" width="94.027" height="111.348" viewBox="0 0 94.027 111.348"><defs><style>.a{fill:#fff;}.b{fill:#4f5965;}.c{fill:#3894df;}.d{fill:#54afed;}.e{fill:#ffe5e3;}.f{filter:url(#a);}</style><filter id="a" x="0" y="0" width="94.027" height="111.348" filterUnits="userSpaceOnUse"><feOffset dx="1" dy="1" input="SourceAlpha"/><feGaussianBlur stdDeviation="1" result="b"/><feFlood flood-opacity="0.302"/><feComposite operator="in" in2="b"/><feComposite in="SourceGraphic"/></filter></defs><g transform="translate(2 2)"><g class="f" transform="matrix(1, 0, 0, 1, -2, -2)"><path class="a" d="M798.689,715.319a14.145,14.145,0,0,0-8.253,2.741c-.471.324-3.154,2.282-6.466,4.709a18.212,18.212,0,0,0-14.353-9.138,10.833,10.833,0,0,0-2.955,0,18.156,18.156,0,0,0-14.347,9.107c-2.835-2.087-5.684-4.176-6.208-4.533a14.341,14.341,0,0,0-8.216-2.715,13.6,13.6,0,0,0-10.663,22.054,9.587,9.587,0,0,0,1.042,1.169,13.142,13.142,0,0,0,2.377,1.89l17.99,13.748V804c-.017.3-.018.539-.018.7a14.184,14.184,0,0,0,19.516,13.134A14.18,14.18,0,0,0,787.648,804.7c0-.166,0-.43-.025-.768v-49.57l18.331-13.943a13.112,13.112,0,0,0,2.617-2.15c.139-.145.271-.292.359-.4a13.591,13.591,0,0,0-10.241-22.557Z" transform="translate(-722.28 -711.53)"/></g><g transform="translate(4.869 4.869)"><path class="b" d="M797.766,719.57a9.1,9.1,0,0,0-5.317,1.828c-.607.419-6.2,4.507-12.216,8.934a13.056,13.056,0,0,0-12.085-12.476,6.525,6.525,0,0,0-.921-.073h-.015a6.7,6.7,0,0,0-.935.073A13.045,13.045,0,0,0,754.2,730.311c-5.85-4.32-11.311-8.335-11.944-8.766a9.088,9.088,0,0,0-5.284-1.8,8.422,8.422,0,0,0-6.564,13.716,4.469,4.469,0,0,0,.56.629,8.089,8.089,0,0,0,1.683,1.312l20.243,15.47v52.376c-.018.236-.018.42-.018.533a9,9,0,0,0,14.341,7.24,8.993,8.993,0,0,0,14.336-7.24c0-.113,0-.312-.024-.568V750.876L802.1,735.223a8.235,8.235,0,0,0,1.809-1.455c.067-.071.133-.144.2-.219a8.416,8.416,0,0,0-6.342-13.979ZM766.679,722.3c.175-.013.346-.055.521-.055h.027c.179,0,.342.041.518.055a8.536,8.536,0,0,1,0,17.042v0c-.176.01-.339.052-.518.052H767.2c-.175,0-.346-.043-.521-.052v0a8.536,8.536,0,0,1,0-17.042Zm34.048,8.352-.052.038a3.9,3.9,0,0,1-1.046.8l-22.566,17.166v54.821a1.438,1.438,0,0,1,.021.295,4.535,4.535,0,1,1-9.069,0v-25.4h-1.6v25.4a4.538,4.538,0,0,1-9.077,0,1.637,1.637,0,0,1,.018-.295V748.663l-22.247-17a3.8,3.8,0,0,1-1.05-.795l-.05-.045.006-.007a3.958,3.958,0,0,1,2.955-6.611,4.748,4.748,0,0,1,2.775,1.033c.9.614,15.448,11.342,23.241,17.137h8.456c7.791-5.8,22.648-16.688,23.548-17.3a4.724,4.724,0,0,1,2.778-1.036,3.953,3.953,0,0,1,2.948,6.615Z" transform="translate(-728.532 -717.783)"/><path class="c" d="M799.931,729.539l-.052.038a3.9,3.9,0,0,1-1.045.8l-22.566,17.166v54.821a1.432,1.432,0,0,1,.021.294,4.535,4.535,0,1,1-9.069,0v-25.4h-1.6v25.4a4.538,4.538,0,0,1-9.077,0,1.629,1.629,0,0,1,.018-.294V747.548l-22.247-17a3.807,3.807,0,0,1-1.05-.795l-.05-.045.006-.007a3.958,3.958,0,0,1,2.955-6.611,4.749,4.749,0,0,1,2.775,1.033c.9.614,15.449,11.342,23.241,17.137h8.456c7.791-5.8,22.648-16.687,23.548-17.3a4.724,4.724,0,0,1,2.778-1.036,3.953,3.953,0,0,1,2.948,6.615Z" transform="translate(-727.736 -716.668)"/><g transform="translate(4.461 6.421)"><path class="d" d="M761.3,797.875a1.718,1.718,0,0,1,.017-.293V742.761l-22.245-17a3.843,3.843,0,0,1-1.051-.8l-.051-.041.007-.008a4,4,0,0,1-.9-1.731,3.754,3.754,0,0,0-.9-.122,3.958,3.958,0,0,0-2.955,6.611l-.006.007.05.045a3.807,3.807,0,0,0,1.05.795l22.247,17v54.821a1.63,1.63,0,0,0-.018.294,4.538,4.538,0,0,0,9.077,0v-.245A4.532,4.532,0,0,1,761.3,797.875Z" transform="translate(-732.197 -723.058)"/></g><path class="e" d="M761.3,721.506c.175-.013.346-.055.521-.055h.027c.179,0,.342.041.518.055a8.536,8.536,0,0,1,0,17.042v0c-.176.01-.34.052-.518.052h-.027c-.175,0-.346-.043-.521-.052v0a8.536,8.536,0,0,1,0-17.042Z" transform="translate(-723.158 -716.986)"/></g></g></svg>