<svg xmlns="http://www.w3.org/2000/svg" xmlns:xlink="http://www.w3.org/1999/xlink" width="69.424" height="97.149" viewBox="0 0 69.424 97.149"><defs><style>.a{fill:#fff;}.b{fill:#fb5b76;}.c{fill:#4f5965;}.d{fill:#3894df;}.e{fill:#ce4966;}.f{filter:url(#a);}</style><filter id="a" x="0" y="0" width="69.424" height="97.149" filterUnits="userSpaceOnUse"><feOffset dx="1" dy="1" input="SourceAlpha"/><feGaussianBlur stdDeviation="1" result="b"/><feFlood flood-opacity="0.302"/><feComposite operator="in" in2="b"/><feComposite in="SourceGraphic"/></filter></defs><g transform="translate(2 2)"><g class="f" transform="matrix(1, 0, 0, 1, -2, -2)"><rect class="a" width="63.424" height="91.15" transform="translate(2 2)"/></g><g transform="translate(5.912 6.524)"><g transform="translate(1.77 1.771)"><rect class="a" width="47.372" height="75.098"/></g><g transform="translate(8.878 8.58)"><path class="b" d="M995.37,437.24v-49.6h32.945Z" transform="translate(-995.37 -387.643)"/></g><path class="c" d="M1039.187,459.423H988.274V380.785h50.913Zm-47.373-3.54h43.833V384.326H991.814Z" transform="translate(-988.274 -380.785)"/><g transform="translate(17.874 61.986)"><path class="d" d="M1007.267,440.215a4.95,4.95,0,0,1,0-9.888h5.75a4.971,4.971,0,0,1,4.707,4.945,4.835,4.835,0,0,1-4.707,4.943Z" transform="translate(-1002.56 -430.327)"/></g><g transform="translate(20.225 64.894)"><path class="d" d="M1006.476,432.651a2.037,2.037,0,0,0,0,4.074h6.388a2.037,2.037,0,0,0,0-4.074Z" transform="translate(-1004.439 -432.651)"/></g><g transform="translate(8.878 8.58)"><path class="e" d="M1028.314,437.24H995.37l32.945-49.6Z" transform="translate(-995.37 -387.643)"/></g></g></g></svg>