<svg xmlns="http://www.w3.org/2000/svg" width="68.246" height="59.861" viewBox="0 0 68.246 59.861"><defs><style>.a{fill:#edf2f9;}</style></defs><path class="a" d="M275.383,407.1a5.274,5.274,0,0,0-4.6-4.908,38.1,38.1,0,0,0-8.1-8.975,23.561,23.561,0,0,0-9.176-4.547,11.867,11.867,0,0,0-23.543-2.992,5.788,5.788,0,0,0-5.378-1.662c-4.335.85-5.306,5.293-5.62,8.684a24.088,24.088,0,0,0-6.446,8.242h-.084a5.287,5.287,0,0,0-5.281,5.281v9.08a5.286,5.286,0,0,0,5.281,5.28h2.865l3.657,4.7v4.726a5.286,5.286,0,0,0,5.281,5.28h7.512a5.291,5.291,0,0,0,5.134-4.038h9.689A5.29,5.29,0,0,0,251.7,435.3h8.4a5.252,5.252,0,0,0,5.277-5.109l.155-4.736a27.151,27.151,0,0,0,4.85-6.491,20.969,20.969,0,0,0,1.641-4.878c.15-.6.4-1.617.531-1.916l.033-.067.087-.048,2.4-1.067-.246-1.161A5.257,5.257,0,0,0,275.383,407.1Z" transform="translate(-207.148 -375.435)"/></svg>