<svg xmlns="http://www.w3.org/2000/svg" xmlns:xlink="http://www.w3.org/1999/xlink" width="142.873" height="132.49" viewBox="0 0 142.873 132.49"><defs><style>.a{fill:#fff;}.b{fill:#edf2f9;}.c{fill:#3894df;}.d{fill:#fb5b76;}.e{fill:#4f5965;}.f{filter:url(#a);}</style><filter id="a" x="0" y="0" width="142.873" height="132.49" filterUnits="userSpaceOnUse"><feOffset dx="1" dy="1" input="SourceAlpha"/><feGaussianBlur stdDeviation="1" result="b"/><feFlood flood-opacity="0.302"/><feComposite operator="in" in2="b"/><feComposite in="SourceGraphic"/></filter></defs><g transform="translate(2 38.454) rotate(-19)"><g class="f" transform="matrix(0.95, 0.33, -0.33, 0.95, 10.63, -37.01)"><path class="a" d="M111.972,41.468a9.253,9.253,0,0,0-15.8-6.542l-2.143,2.142a47.564,47.564,0,1,0,.293,19.808l1.849,1.85a9.255,9.255,0,0,0,14.091-11.9A9.193,9.193,0,0,0,111.972,41.468Z" transform="translate(2 38.45) rotate(-19)"/></g><g transform="translate(7.45 7.451)"><ellipse class="b" cx="38.368" cy="38.368" rx="38.368" ry="38.368" transform="translate(2.243 2.172)"/><path class="c" d="M20.677,0A20.675,20.675,0,1,0,41.351,20.679,20.7,20.7,0,0,0,20.677,0Z" transform="translate(18.42 21.375)"/><ellipse class="a" cx="12.476" cy="12.476" rx="12.476" ry="12.476" transform="translate(28.408 28.568)"/><path class="d" d="M8.891,0a8.891,8.891,0,1,0,8.888,8.9A8.9,8.9,0,0,0,8.891,0Z" transform="translate(30.439 32.925)"/><g transform="translate(0 0)"><path class="e" d="M40.574,0A40.572,40.572,0,1,0,81.147,40.578,40.622,40.622,0,0,0,40.574,0Zm0,76.406A35.834,35.834,0,1,1,76.412,40.578,35.873,35.873,0,0,1,40.574,76.406Z"/><path class="e" d="M26.89,0A26.888,26.888,0,1,0,53.777,26.892,26.919,26.919,0,0,0,26.89,0Zm0,49.039A22.151,22.151,0,1,1,49.039,26.892,22.178,22.178,0,0,1,26.89,49.039Z" transform="translate(13.683 13.686)"/><path class="e" d="M14.872,0A14.871,14.871,0,1,0,29.741,14.876,14.889,14.889,0,0,0,14.872,0Zm0,25.006A10.134,10.134,0,1,1,25,14.876,10.145,10.145,0,0,1,14.872,25.006Z" transform="translate(25.702 25.702)"/></g><path class="e" d="M55.494,7.571l3.8-3.794A2.213,2.213,0,1,0,56.16.648l-4.711,4.71H2.213a2.213,2.213,0,1,0,0,4.426H51.448l4.711,4.71a2.212,2.212,0,0,0,3.129-3.128Z" transform="translate(37.955 32.215)"/></g></g></svg>