<svg xmlns="http://www.w3.org/2000/svg" width="57.679" height="60.318" viewBox="0 0 57.679 60.318"><defs><style>.a{fill:#edf2f9;}</style></defs><g transform="translate(0)"><path class="a" d="M647.658,741c0-.047.01-.094.014-.142a17.879,17.879,0,0,0-4.181-13.358h0c-3.616-4.352-8.218-6.652-13.311-6.652a21.569,21.569,0,0,0-11.341,3.579,17.7,17.7,0,0,0-10.185-3.392c-4.832,0-9.354,2.142-13.444,6.369-3.975,4.111-7.687,11.156-2.8,21.376,2.856,5.973,7.7,11.013,10.595,14.025l.093.1c.585.61,1.092,1.135,1.465,1.555,3.5,3.922,7.883,8.981,9.144,10.438l5.439,6.272,4.353-6.933,0,0a44.1,44.1,0,0,1,8.321-9.123c4.243-3.492,11.322-10.563,14.02-17.3A33.225,33.225,0,0,0,647.658,741Z" transform="translate(-590.078 -720.852)"/></g></svg>