<svg xmlns="http://www.w3.org/2000/svg" xmlns:xlink="http://www.w3.org/1999/xlink" width="94.671" height="98.729" viewBox="0 0 94.671 98.729"><defs><style>.a{fill:#fff;}.b{fill:#fb5b76;}.c{fill:#4f5965;}.d{filter:url(#a);}</style><filter id="a" x="0" y="0" width="94.671" height="98.729" filterUnits="userSpaceOnUse"><feOffset dx="1" dy="1" input="SourceAlpha"/><feGaussianBlur stdDeviation="1" result="b"/><feFlood flood-opacity="0.302"/><feComposite operator="in" in2="b"/><feComposite in="SourceGraphic"/></filter></defs><g transform="translate(2 2)"><g class="d" transform="matrix(1, 0, 0, 1, -2, -2)"><path class="a" d="M678.6,751.832c.008-.073.015-.145.021-.218a27.486,27.486,0,0,0-6.427-20.536h0c-5.559-6.69-12.634-10.226-20.464-10.226-6.989,0-13.1,2.764-17.435,5.5a27.207,27.207,0,0,0-15.658-5.215c-7.428,0-14.381,3.293-20.668,9.791-6.111,6.32-11.817,17.151-4.307,32.862,4.39,9.182,11.839,16.931,16.288,21.56l.143.149c.9.937,1.679,1.745,2.252,2.391,5.374,6.029,12.119,13.807,14.057,16.046l8.362,9.642,6.693-10.659,0-.006a67.8,67.8,0,0,1,12.792-14.026c6.522-5.369,17.4-16.239,21.553-26.6A51.071,51.071,0,0,0,678.6,751.832Z" transform="translate(-588.08 -718.85)"/></g><g transform="translate(6.256 7.507)"><path class="b" d="M652.009,733.831c-9.6,0-17.515,7.961-17.934,8.38-.31-.41-6.218-8.091-15.158-8.091-4.185,0-8.952,1.764-13.967,6.948a17.34,17.34,0,0,0-5.083,10.208c1.474,12.642,15.349,25.047,19.721,29.968,6.064,6.8,13.841,15.795,14.252,16.269a76.439,76.439,0,0,1,14.766-16.269c6.7-5.52,19.667-18.076,20.983-30.776a18.224,18.224,0,0,0-4.285-9.775C661.057,735.583,656.4,733.831,652.009,733.831Z" transform="translate(-593.884 -725.96)"/><path class="c" d="M650.458,727.54c-7.687,0-14.236,4.305-17.7,7.13-2.849-2.783-8.232-6.843-15.389-6.843-5.669,0-11.11,2.651-16.17,7.882-16.033,16.583,3.61,37.016,11.995,45.742,1.029,1.071,1.917,1.993,2.554,2.71,5.2,5.834,11.6,13.211,14.117,16.115l.11.128,2.713,3.128,2.2-3.506A73.427,73.427,0,0,1,649,784.492c6.193-5.1,20.746-18.525,22.119-33.036a21.081,21.081,0,0,0-5.011-15.949C661.717,730.22,656.45,727.54,650.458,727.54Zm-3.4,54.586A76.4,76.4,0,0,0,632.289,798.4c-.413-.474-8.189-9.468-14.253-16.269-6.057-6.819-30.375-28.008-14.637-44.285,5.015-5.182,9.782-6.947,13.967-6.947,8.941,0,14.849,7.68,15.158,8.09.418-.418,8.337-8.378,17.936-8.378,4.394,0,9.048,1.75,13.3,6.86C677.263,753.735,656.251,774.553,647.054,782.126Z" transform="translate(-595.085 -727.54)"/></g></g></svg>