<svg xmlns="http://www.w3.org/2000/svg" width="78.314" height="72.428" viewBox="0 0 78.314 72.428"><defs><style>.a{fill:#edf2f9;}</style></defs><g transform="translate(-517 -960)"><path class="a" d="M1001.024,933.009h-1.935a18.152,18.152,0,0,0-13.244,5.75,5.106,5.106,0,0,0-7.54-3.518c-1.982,1.128-2.25,1.22-3.739.269-6.252-4-15.193-4.5-21.26-1.18-4.775,2.612-7.4,7.27-7.4,13.116l0,14.173a6.727,6.727,0,0,0,3.7,6v5.206a9.031,9.031,0,0,0-1.636.9,9.462,9.462,0,0,0-3.912,6.172c-.556,3.321-.53,7.216-.487,13.709l0,.625c.012,1.844.026,3.9.026,6.2a4.136,4.136,0,0,0,4.132,4.132H974.72a4.137,4.137,0,0,0,4.132-4.132v-2.227c0-1.8.007-3.649.015-5.316a16.189,16.189,0,0,0-8.956-14.307v-.46a14.313,14.313,0,0,0,11.064-13.921V951.838q.026.679.1,1.365a17.614,17.614,0,0,0,1.061,4.334v6.668a14.311,14.311,0,0,0,11.631,14.04v2.839l-6.138,5.08c-4.337,2.936-7.949,8.574-5.242,15.727a4.151,4.151,0,0,0,3.868,2.676h26.323a4.137,4.137,0,0,0,4.133-4.132V989.576h1.018a4.137,4.137,0,0,0,4.133-4.132V953.852A20.866,20.866,0,0,0,1001.024,933.009Zm-20.048,17.343v-.038h0Z" transform="translate(-426.551 27.862)"/></g></svg>